<?xml version="1.0" encoding="utf-8" standalone="no"?>
<!DOCTYPE svg PUBLIC "-//W3C//DTD SVG 1.1//EN"
  "http://www.w3.org/Graphics/SVG/1.1/DTD/svg11.dtd">
<!-- Created with matplotlib (https://matplotlib.org/) -->
<svg height="720pt" version="1.1" viewBox="0 0 1440 720" width="1440pt" xmlns="http://www.w3.org/2000/svg" xmlns:xlink="http://www.w3.org/1999/xlink">
 <defs>
  <style type="text/css">
*{stroke-linecap:butt;stroke-linejoin:round;}
  </style>
 </defs>
 <g id="figure_1">
  <g id="patch_1">
   <path d="M 0 720 
L 1440 720 
L 1440 0 
L 0 0 
z
" style="fill:#ffffff;"/>
  </g>
  <g id="axes_1">
   <g id="patch_2">
    <path d="M 180 630 
L 1296 630 
L 1296 86.4 
L 180 86.4 
z
" style="fill:#ffffff;"/>
   </g>
   <g id="matplotlib.axis_1">
    <g id="xtick_1">
     <g id="line2d_1">
      <defs>
       <path d="M 0 0 
L 0 3.5 
" id="mc5db0ce297" style="stroke:#000000;stroke-width:0.8;"/>
      </defs>
      <g>
       <use style="stroke:#000000;stroke-width:0.8;" x="230.727273" xlink:href="#mc5db0ce297" y="630"/>
      </g>
     </g>
     <g id="text_1">
      <!-- 03-02 00 -->
      <defs>
       <path d="M 31.78125 66.40625 
Q 24.171875 66.40625 20.328125 58.90625 
Q 16.5 51.421875 16.5 36.375 
Q 16.5 21.390625 20.328125 13.890625 
Q 24.171875 6.390625 31.78125 6.390625 
Q 39.453125 6.390625 43.28125 13.890625 
Q 47.125 21.390625 47.125 36.375 
Q 47.125 51.421875 43.28125 58.90625 
Q 39.453125 66.40625 31.78125 66.40625 
z
M 31.78125 74.21875 
Q 44.046875 74.21875 50.515625 64.515625 
Q 56.984375 54.828125 56.984375 36.375 
Q 56.984375 17.96875 50.515625 8.265625 
Q 44.046875 -1.421875 31.78125 -1.421875 
Q 19.53125 -1.421875 13.0625 8.265625 
Q 6.59375 17.96875 6.59375 36.375 
Q 6.59375 54.828125 13.0625 64.515625 
Q 19.53125 74.21875 31.78125 74.21875 
z
" id="DejaVuSans-48"/>
       <path d="M 40.578125 39.3125 
Q 47.65625 37.796875 51.625 33 
Q 55.609375 28.21875 55.609375 21.1875 
Q 55.609375 10.40625 48.1875 4.484375 
Q 40.765625 -1.421875 27.09375 -1.421875 
Q 22.515625 -1.421875 17.65625 -0.515625 
Q 12.796875 0.390625 7.625 2.203125 
L 7.625 11.71875 
Q 11.71875 9.328125 16.59375 8.109375 
Q 21.484375 6.890625 26.8125 6.890625 
Q 36.078125 6.890625 40.9375 10.546875 
Q 45.796875 14.203125 45.796875 21.1875 
Q 45.796875 27.640625 41.28125 31.265625 
Q 36.765625 34.90625 28.71875 34.90625 
L 20.21875 34.90625 
L 20.21875 43.015625 
L 29.109375 43.015625 
Q 36.375 43.015625 40.234375 45.921875 
Q 44.09375 48.828125 44.09375 54.296875 
Q 44.09375 59.90625 40.109375 62.90625 
Q 36.140625 65.921875 28.71875 65.921875 
Q 24.65625 65.921875 20.015625 65.03125 
Q 15.375 64.15625 9.8125 62.3125 
L 9.8125 71.09375 
Q 15.4375 72.65625 20.34375 73.4375 
Q 25.25 74.21875 29.59375 74.21875 
Q 40.828125 74.21875 47.359375 69.109375 
Q 53.90625 64.015625 53.90625 55.328125 
Q 53.90625 49.265625 50.4375 45.09375 
Q 46.96875 40.921875 40.578125 39.3125 
z
" id="DejaVuSans-51"/>
       <path d="M 4.890625 31.390625 
L 31.203125 31.390625 
L 31.203125 23.390625 
L 4.890625 23.390625 
z
" id="DejaVuSans-45"/>
       <path d="M 19.1875 8.296875 
L 53.609375 8.296875 
L 53.609375 0 
L 7.328125 0 
L 7.328125 8.296875 
Q 12.9375 14.109375 22.625 23.890625 
Q 32.328125 33.6875 34.8125 36.53125 
Q 39.546875 41.84375 41.421875 45.53125 
Q 43.3125 49.21875 43.3125 52.78125 
Q 43.3125 58.59375 39.234375 62.25 
Q 35.15625 65.921875 28.609375 65.921875 
Q 23.96875 65.921875 18.8125 64.3125 
Q 13.671875 62.703125 7.8125 59.421875 
L 7.8125 69.390625 
Q 13.765625 71.78125 18.9375 73 
Q 24.125 74.21875 28.421875 74.21875 
Q 39.75 74.21875 46.484375 68.546875 
Q 53.21875 62.890625 53.21875 53.421875 
Q 53.21875 48.921875 51.53125 44.890625 
Q 49.859375 40.875 45.40625 35.40625 
Q 44.1875 33.984375 37.640625 27.21875 
Q 31.109375 20.453125 19.1875 8.296875 
z
" id="DejaVuSans-50"/>
       <path id="DejaVuSans-32"/>
      </defs>
      <g transform="translate(208.246804 644.598438)scale(0.1 -0.1)">
       <use xlink:href="#DejaVuSans-48"/>
       <use x="63.623047" xlink:href="#DejaVuSans-51"/>
       <use x="127.246094" xlink:href="#DejaVuSans-45"/>
       <use x="163.330078" xlink:href="#DejaVuSans-48"/>
       <use x="226.953125" xlink:href="#DejaVuSans-50"/>
       <use x="290.576172" xlink:href="#DejaVuSans-32"/>
       <use x="322.363281" xlink:href="#DejaVuSans-48"/>
       <use x="385.986328" xlink:href="#DejaVuSans-48"/>
      </g>
     </g>
    </g>
    <g id="xtick_2">
     <g id="line2d_2">
      <g>
       <use style="stroke:#000000;stroke-width:0.8;" x="360.243714" xlink:href="#mc5db0ce297" y="630"/>
      </g>
     </g>
     <g id="text_2">
      <!-- 03-02 06 -->
      <defs>
       <path d="M 33.015625 40.375 
Q 26.375 40.375 22.484375 35.828125 
Q 18.609375 31.296875 18.609375 23.390625 
Q 18.609375 15.53125 22.484375 10.953125 
Q 26.375 6.390625 33.015625 6.390625 
Q 39.65625 6.390625 43.53125 10.953125 
Q 47.40625 15.53125 47.40625 23.390625 
Q 47.40625 31.296875 43.53125 35.828125 
Q 39.65625 40.375 33.015625 40.375 
z
M 52.59375 71.296875 
L 52.59375 62.3125 
Q 48.875 64.0625 45.09375 64.984375 
Q 41.3125 65.921875 37.59375 65.921875 
Q 27.828125 65.921875 22.671875 59.328125 
Q 17.53125 52.734375 16.796875 39.40625 
Q 19.671875 43.65625 24.015625 45.921875 
Q 28.375 48.1875 33.59375 48.1875 
Q 44.578125 48.1875 50.953125 41.515625 
Q 57.328125 34.859375 57.328125 23.390625 
Q 57.328125 12.15625 50.6875 5.359375 
Q 44.046875 -1.421875 33.015625 -1.421875 
Q 20.359375 -1.421875 13.671875 8.265625 
Q 6.984375 17.96875 6.984375 36.375 
Q 6.984375 53.65625 15.1875 63.9375 
Q 23.390625 74.21875 37.203125 74.21875 
Q 40.921875 74.21875 44.703125 73.484375 
Q 48.484375 72.75 52.59375 71.296875 
z
" id="DejaVuSans-54"/>
      </defs>
      <g transform="translate(337.763245 644.598438)scale(0.1 -0.1)">
       <use xlink:href="#DejaVuSans-48"/>
       <use x="63.623047" xlink:href="#DejaVuSans-51"/>
       <use x="127.246094" xlink:href="#DejaVuSans-45"/>
       <use x="163.330078" xlink:href="#DejaVuSans-48"/>
       <use x="226.953125" xlink:href="#DejaVuSans-50"/>
       <use x="290.576172" xlink:href="#DejaVuSans-32"/>
       <use x="322.363281" xlink:href="#DejaVuSans-48"/>
       <use x="385.986328" xlink:href="#DejaVuSans-54"/>
      </g>
     </g>
    </g>
    <g id="xtick_3">
     <g id="line2d_3">
      <g>
       <use style="stroke:#000000;stroke-width:0.8;" x="489.760155" xlink:href="#mc5db0ce297" y="630"/>
      </g>
     </g>
     <g id="text_3">
      <!-- 03-02 12 -->
      <defs>
       <path d="M 12.40625 8.296875 
L 28.515625 8.296875 
L 28.515625 63.921875 
L 10.984375 60.40625 
L 10.984375 69.390625 
L 28.421875 72.90625 
L 38.28125 72.90625 
L 38.28125 8.296875 
L 54.390625 8.296875 
L 54.390625 0 
L 12.40625 0 
z
" id="DejaVuSans-49"/>
      </defs>
      <g transform="translate(467.279686 644.598438)scale(0.1 -0.1)">
       <use xlink:href="#DejaVuSans-48"/>
       <use x="63.623047" xlink:href="#DejaVuSans-51"/>
       <use x="127.246094" xlink:href="#DejaVuSans-45"/>
       <use x="163.330078" xlink:href="#DejaVuSans-48"/>
       <use x="226.953125" xlink:href="#DejaVuSans-50"/>
       <use x="290.576172" xlink:href="#DejaVuSans-32"/>
       <use x="322.363281" xlink:href="#DejaVuSans-49"/>
       <use x="385.986328" xlink:href="#DejaVuSans-50"/>
      </g>
     </g>
    </g>
    <g id="xtick_4">
     <g id="line2d_4">
      <g>
       <use style="stroke:#000000;stroke-width:0.8;" x="619.276596" xlink:href="#mc5db0ce297" y="630"/>
      </g>
     </g>
     <g id="text_4">
      <!-- 03-02 18 -->
      <defs>
       <path d="M 31.78125 34.625 
Q 24.75 34.625 20.71875 30.859375 
Q 16.703125 27.09375 16.703125 20.515625 
Q 16.703125 13.921875 20.71875 10.15625 
Q 24.75 6.390625 31.78125 6.390625 
Q 38.8125 6.390625 42.859375 10.171875 
Q 46.921875 13.96875 46.921875 20.515625 
Q 46.921875 27.09375 42.890625 30.859375 
Q 38.875 34.625 31.78125 34.625 
z
M 21.921875 38.8125 
Q 15.578125 40.375 12.03125 44.71875 
Q 8.5 49.078125 8.5 55.328125 
Q 8.5 64.0625 14.71875 69.140625 
Q 20.953125 74.21875 31.78125 74.21875 
Q 42.671875 74.21875 48.875 69.140625 
Q 55.078125 64.0625 55.078125 55.328125 
Q 55.078125 49.078125 51.53125 44.71875 
Q 48 40.375 41.703125 38.8125 
Q 48.828125 37.15625 52.796875 32.3125 
Q 56.78125 27.484375 56.78125 20.515625 
Q 56.78125 9.90625 50.3125 4.234375 
Q 43.84375 -1.421875 31.78125 -1.421875 
Q 19.734375 -1.421875 13.25 4.234375 
Q 6.78125 9.90625 6.78125 20.515625 
Q 6.78125 27.484375 10.78125 32.3125 
Q 14.796875 37.15625 21.921875 38.8125 
z
M 18.3125 54.390625 
Q 18.3125 48.734375 21.84375 45.5625 
Q 25.390625 42.390625 31.78125 42.390625 
Q 38.140625 42.390625 41.71875 45.5625 
Q 45.3125 48.734375 45.3125 54.390625 
Q 45.3125 60.0625 41.71875 63.234375 
Q 38.140625 66.40625 31.78125 66.40625 
Q 25.390625 66.40625 21.84375 63.234375 
Q 18.3125 60.0625 18.3125 54.390625 
z
" id="DejaVuSans-56"/>
      </defs>
      <g transform="translate(596.796127 644.598438)scale(0.1 -0.1)">
       <use xlink:href="#DejaVuSans-48"/>
       <use x="63.623047" xlink:href="#DejaVuSans-51"/>
       <use x="127.246094" xlink:href="#DejaVuSans-45"/>
       <use x="163.330078" xlink:href="#DejaVuSans-48"/>
       <use x="226.953125" xlink:href="#DejaVuSans-50"/>
       <use x="290.576172" xlink:href="#DejaVuSans-32"/>
       <use x="322.363281" xlink:href="#DejaVuSans-49"/>
       <use x="385.986328" xlink:href="#DejaVuSans-56"/>
      </g>
     </g>
    </g>
    <g id="xtick_5">
     <g id="line2d_5">
      <g>
       <use style="stroke:#000000;stroke-width:0.8;" x="748.793037" xlink:href="#mc5db0ce297" y="630"/>
      </g>
     </g>
     <g id="text_5">
      <!-- 03-03 00 -->
      <g transform="translate(726.312568 644.598438)scale(0.1 -0.1)">
       <use xlink:href="#DejaVuSans-48"/>
       <use x="63.623047" xlink:href="#DejaVuSans-51"/>
       <use x="127.246094" xlink:href="#DejaVuSans-45"/>
       <use x="163.330078" xlink:href="#DejaVuSans-48"/>
       <use x="226.953125" xlink:href="#DejaVuSans-51"/>
       <use x="290.576172" xlink:href="#DejaVuSans-32"/>
       <use x="322.363281" xlink:href="#DejaVuSans-48"/>
       <use x="385.986328" xlink:href="#DejaVuSans-48"/>
      </g>
     </g>
    </g>
    <g id="xtick_6">
     <g id="line2d_6">
      <g>
       <use style="stroke:#000000;stroke-width:0.8;" x="878.309478" xlink:href="#mc5db0ce297" y="630"/>
      </g>
     </g>
     <g id="text_6">
      <!-- 03-03 06 -->
      <g transform="translate(855.829009 644.598438)scale(0.1 -0.1)">
       <use xlink:href="#DejaVuSans-48"/>
       <use x="63.623047" xlink:href="#DejaVuSans-51"/>
       <use x="127.246094" xlink:href="#DejaVuSans-45"/>
       <use x="163.330078" xlink:href="#DejaVuSans-48"/>
       <use x="226.953125" xlink:href="#DejaVuSans-51"/>
       <use x="290.576172" xlink:href="#DejaVuSans-32"/>
       <use x="322.363281" xlink:href="#DejaVuSans-48"/>
       <use x="385.986328" xlink:href="#DejaVuSans-54"/>
      </g>
     </g>
    </g>
    <g id="xtick_7">
     <g id="line2d_7">
      <g>
       <use style="stroke:#000000;stroke-width:0.8;" x="1007.825919" xlink:href="#mc5db0ce297" y="630"/>
      </g>
     </g>
     <g id="text_7">
      <!-- 03-03 12 -->
      <g transform="translate(985.34545 644.598438)scale(0.1 -0.1)">
       <use xlink:href="#DejaVuSans-48"/>
       <use x="63.623047" xlink:href="#DejaVuSans-51"/>
       <use x="127.246094" xlink:href="#DejaVuSans-45"/>
       <use x="163.330078" xlink:href="#DejaVuSans-48"/>
       <use x="226.953125" xlink:href="#DejaVuSans-51"/>
       <use x="290.576172" xlink:href="#DejaVuSans-32"/>
       <use x="322.363281" xlink:href="#DejaVuSans-49"/>
       <use x="385.986328" xlink:href="#DejaVuSans-50"/>
      </g>
     </g>
    </g>
    <g id="xtick_8">
     <g id="line2d_8">
      <g>
       <use style="stroke:#000000;stroke-width:0.8;" x="1137.34236" xlink:href="#mc5db0ce297" y="630"/>
      </g>
     </g>
     <g id="text_8">
      <!-- 03-03 18 -->
      <g transform="translate(1114.861891 644.598438)scale(0.1 -0.1)">
       <use xlink:href="#DejaVuSans-48"/>
       <use x="63.623047" xlink:href="#DejaVuSans-51"/>
       <use x="127.246094" xlink:href="#DejaVuSans-45"/>
       <use x="163.330078" xlink:href="#DejaVuSans-48"/>
       <use x="226.953125" xlink:href="#DejaVuSans-51"/>
       <use x="290.576172" xlink:href="#DejaVuSans-32"/>
       <use x="322.363281" xlink:href="#DejaVuSans-49"/>
       <use x="385.986328" xlink:href="#DejaVuSans-56"/>
      </g>
     </g>
    </g>
    <g id="xtick_9">
     <g id="line2d_9">
      <g>
       <use style="stroke:#000000;stroke-width:0.8;" x="1266.858801" xlink:href="#mc5db0ce297" y="630"/>
      </g>
     </g>
     <g id="text_9">
      <!-- 03-04 00 -->
      <defs>
       <path d="M 37.796875 64.3125 
L 12.890625 25.390625 
L 37.796875 25.390625 
z
M 35.203125 72.90625 
L 47.609375 72.90625 
L 47.609375 25.390625 
L 58.015625 25.390625 
L 58.015625 17.1875 
L 47.609375 17.1875 
L 47.609375 0 
L 37.796875 0 
L 37.796875 17.1875 
L 4.890625 17.1875 
L 4.890625 26.703125 
z
" id="DejaVuSans-52"/>
      </defs>
      <g transform="translate(1244.378332 644.598438)scale(0.1 -0.1)">
       <use xlink:href="#DejaVuSans-48"/>
       <use x="63.623047" xlink:href="#DejaVuSans-51"/>
       <use x="127.246094" xlink:href="#DejaVuSans-45"/>
       <use x="163.330078" xlink:href="#DejaVuSans-48"/>
       <use x="226.953125" xlink:href="#DejaVuSans-52"/>
       <use x="290.576172" xlink:href="#DejaVuSans-32"/>
       <use x="322.363281" xlink:href="#DejaVuSans-48"/>
       <use x="385.986328" xlink:href="#DejaVuSans-48"/>
      </g>
     </g>
    </g>
   </g>
   <g id="matplotlib.axis_2">
    <g id="ytick_1">
     <g id="line2d_10">
      <defs>
       <path d="M 0 0 
L -3.5 0 
" id="mbe0c631a49" style="stroke:#000000;stroke-width:0.8;"/>
      </defs>
      <g>
       <use style="stroke:#000000;stroke-width:0.8;" x="180" xlink:href="#mbe0c631a49" y="618.887194"/>
      </g>
     </g>
     <g id="text_10">
      <!-- −4 -->
      <defs>
       <path d="M 10.59375 35.5 
L 73.1875 35.5 
L 73.1875 27.203125 
L 10.59375 27.203125 
z
" id="DejaVuSans-8722"/>
      </defs>
      <g transform="translate(158.257812 622.686413)scale(0.1 -0.1)">
       <use xlink:href="#DejaVuSans-8722"/>
       <use x="83.789062" xlink:href="#DejaVuSans-52"/>
      </g>
     </g>
    </g>
    <g id="ytick_2">
     <g id="line2d_11">
      <g>
       <use style="stroke:#000000;stroke-width:0.8;" x="180" xlink:href="#mbe0c631a49" y="502.253886"/>
      </g>
     </g>
     <g id="text_11">
      <!-- −2 -->
      <g transform="translate(158.257812 506.053105)scale(0.1 -0.1)">
       <use xlink:href="#DejaVuSans-8722"/>
       <use x="83.789062" xlink:href="#DejaVuSans-50"/>
      </g>
     </g>
    </g>
    <g id="ytick_3">
     <g id="line2d_12">
      <g>
       <use style="stroke:#000000;stroke-width:0.8;" x="180" xlink:href="#mbe0c631a49" y="385.620579"/>
      </g>
     </g>
     <g id="text_12">
      <!-- 0 -->
      <g transform="translate(166.6375 389.419797)scale(0.1 -0.1)">
       <use xlink:href="#DejaVuSans-48"/>
      </g>
     </g>
    </g>
    <g id="ytick_4">
     <g id="line2d_13">
      <g>
       <use style="stroke:#000000;stroke-width:0.8;" x="180" xlink:href="#mbe0c631a49" y="268.987271"/>
      </g>
     </g>
     <g id="text_13">
      <!-- 2 -->
      <g transform="translate(166.6375 272.78649)scale(0.1 -0.1)">
       <use xlink:href="#DejaVuSans-50"/>
      </g>
     </g>
    </g>
    <g id="ytick_5">
     <g id="line2d_14">
      <g>
       <use style="stroke:#000000;stroke-width:0.8;" x="180" xlink:href="#mbe0c631a49" y="152.353963"/>
      </g>
     </g>
     <g id="text_14">
      <!-- 4 -->
      <g transform="translate(166.6375 156.153182)scale(0.1 -0.1)">
       <use xlink:href="#DejaVuSans-52"/>
      </g>
     </g>
    </g>
   </g>
   <g id="line2d_15">
    <path clip-path="url(#p0a78e9e46f)" d="M 230.727273 378.120814 
L 252.313346 403.714577 
L 273.89942 403.116269 
L 295.485493 390.154698 
L 317.071567 400.156005 
L 338.65764 378.492583 
L 360.243714 384.528356 
L 381.829787 391.751117 
L 403.415861 426.855313 
L 425.001934 445.565239 
L 446.588008 427.804429 
L 468.174081 414.221253 
L 489.760155 402.507984 
L 511.346228 339.637897 
L 532.932302 384.657139 
L 554.518375 383.299501 
L 576.104449 329.069218 
L 597.690522 306.143484 
L 619.276596 376.310735 
L 640.862669 383.241745 
L 662.448743 348.852347 
L 684.034816 391.301593 
L 705.62089 358.048951 
L 727.206963 396.058218 
L 748.793037 486.679067 
L 770.37911 505.174579 
L 791.965184 469.648802 
L 813.551257 413.001463 
L 835.137331 426.057103 
L 856.723404 446.296376 
L 878.309478 392.551756 
L 899.895551 425.589355 
L 921.481625 466.398864 
L 943.067698 453.082013 
L 964.653772 476.113027 
L 986.239845 432.875292 
L 1007.825919 432.067364 
L 1029.411992 403.32647 
L 1050.998066 412.82969 
L 1072.584139 405.452598 
L 1094.170213 362.843066 
L 1115.756286 366.263094 
L 1137.34236 348.186147 
L 1158.928433 385.270679 
L 1180.514507 328.886979 
L 1202.10058 321.834309 
L 1223.686654 359.887056 
L 1245.272727 389.959262 
" style="fill:none;stroke:#1f77b4;stroke-linecap:square;stroke-width:1.5;"/>
   </g>
   <g id="line2d_16">
    <path clip-path="url(#p0a78e9e46f)" d="M 230.727273 414.724234 
L 252.313346 400.779306 
L 273.89942 415.720997 
L 295.485493 405.511417 
L 317.071567 419.303306 
L 338.65764 421.083179 
L 360.243714 422.997909 
L 381.829787 429.793014 
L 403.415861 462.62286 
L 425.001934 478.203126 
L 446.588008 474.963163 
L 468.174081 466.336902 
L 489.760155 485.280766 
L 511.346228 496.218113 
L 532.932302 502.204074 
L 554.518375 431.750173 
L 576.104449 474.627586 
L 597.690522 435.295433 
L 619.276596 453.521985 
L 640.862669 437.340161 
L 662.448743 426.452375 
L 684.034816 463.303221 
L 705.62089 465.75981 
L 727.206963 482.675111 
L 748.793037 492.316343 
L 770.37911 496.951931 
L 791.965184 460.220943 
L 813.551257 484.478241 
L 835.137331 500.663543 
L 856.723404 481.780384 
L 878.309478 439.846562 
L 899.895551 465.41963 
L 921.481625 469.858985 
L 943.067698 454.578807 
L 964.653772 461.281158 
L 986.239845 495.001967 
L 1007.825919 468.55415 
L 1029.411992 474.547192 
L 1050.998066 469.630111 
L 1072.584139 457.720407 
L 1094.170213 401.176546 
L 1115.756286 437.292779 
L 1137.34236 458.929472 
L 1158.928433 488.841056 
L 1180.514507 466.164382 
L 1202.10058 496.278859 
L 1223.686654 475.120764 
L 1245.272727 491.313607 
" style="fill:none;stroke:#ff7f0e;stroke-linecap:square;stroke-width:1.5;"/>
   </g>
   <g id="line2d_17">
    <path clip-path="url(#p0a78e9e46f)" d="M 230.727273 295.952649 
L 252.313346 352.881894 
L 273.89942 307.224251 
L 295.485493 323.479324 
L 317.071567 323.605677 
L 338.65764 317.357291 
L 360.243714 272.113287 
L 381.829787 249.594554 
L 403.415861 242.010959 
L 425.001934 221.94031 
L 446.588008 173.932596 
L 468.174081 235.577903 
L 489.760155 216.711125 
L 511.346228 247.672534 
L 532.932302 222.750669 
L 554.518375 277.435335 
L 576.104449 287.528322 
L 597.690522 288.842877 
L 619.276596 270.291059 
L 640.862669 231.249106 
L 662.448743 297.864153 
L 684.034816 302.660279 
L 705.62089 295.028087 
L 727.206963 255.901083 
L 748.793037 179.89459 
L 770.37911 159.298505 
L 791.965184 217.915246 
L 813.551257 209.670729 
L 835.137331 176.073047 
L 856.723404 194.240403 
L 878.309478 194.858299 
L 899.895551 180.270631 
L 921.481625 152.946849 
L 943.067698 121.065864 
L 964.653772 111.109091 
L 986.239845 170.489228 
L 1007.825919 215.557067 
L 1029.411992 198.476152 
L 1050.998066 209.460079 
L 1072.584139 235.903295 
L 1094.170213 280.908167 
L 1115.756286 232.543007 
L 1137.34236 285.165283 
L 1158.928433 242.492071 
L 1180.514507 260.151083 
L 1202.10058 211.227055 
L 1223.686654 228.674585 
L 1245.272727 219.324733 
" style="fill:none;stroke:#2ca02c;stroke-linecap:square;stroke-width:1.5;"/>
   </g>
   <g id="line2d_18">
    <path clip-path="url(#p0a78e9e46f)" d="M 230.727273 412.741467 
L 252.313346 380.796132 
L 273.89942 354.344108 
L 295.485493 381.621028 
L 317.071567 378.79267 
L 338.65764 399.0978 
L 360.243714 406.008324 
L 381.829787 396.57196 
L 403.415861 401.293179 
L 425.001934 413.393885 
L 446.588008 414.8346 
L 468.174081 416.106824 
L 489.760155 376.537634 
L 511.346228 313.162136 
L 532.932302 363.818655 
L 554.518375 360.089473 
L 576.104449 396.347198 
L 597.690522 383.529684 
L 619.276596 382.16184 
L 640.862669 364.833121 
L 662.448743 407.18844 
L 684.034816 371.182347 
L 705.62089 378.518096 
L 727.206963 371.115352 
L 748.793037 356.244151 
L 770.37911 384.439666 
L 791.965184 320.027707 
L 813.551257 342.516067 
L 835.137331 337.746251 
L 856.723404 351.928635 
L 878.309478 349.630699 
L 899.895551 360.002559 
L 921.481625 381.081599 
L 943.067698 399.877786 
L 964.653772 326.764077 
L 986.239845 282.496081 
L 1007.825919 316.833656 
L 1029.411992 344.306665 
L 1050.998066 336.31824 
L 1072.584139 316.244205 
L 1094.170213 372.562508 
L 1115.756286 303.864275 
L 1137.34236 320.855075 
L 1158.928433 321.841598 
L 1180.514507 304.607812 
L 1202.10058 330.17359 
L 1223.686654 348.087653 
L 1245.272727 356.582697 
" style="fill:none;stroke:#d62728;stroke-linecap:square;stroke-width:1.5;"/>
   </g>
   <g id="line2d_19">
    <path clip-path="url(#p0a78e9e46f)" d="M 230.727273 403.624631 
L 252.313346 323.898517 
L 273.89942 403.699436 
L 295.485493 394.625642 
L 317.071567 395.451795 
L 338.65764 400.730667 
L 360.243714 425.038992 
L 381.829787 408.935091 
L 403.415861 385.100588 
L 425.001934 385.013113 
L 446.588008 398.432274 
L 468.174081 401.644294 
L 489.760155 377.315189 
L 511.346228 356.646921 
L 532.932302 411.521677 
L 554.518375 397.684276 
L 576.104449 436.332984 
L 597.690522 401.02468 
L 619.276596 380.822568 
L 640.862669 439.381244 
L 662.448743 439.593061 
L 684.034816 426.097196 
L 705.62089 422.002881 
L 727.206963 408.710155 
L 748.793037 394.957025 
L 770.37911 281.627406 
L 791.965184 361.879626 
L 813.551257 388.29464 
L 835.137331 394.002383 
L 856.723404 399.184563 
L 878.309478 433.995458 
L 899.895551 423.470517 
L 921.481625 401.414672 
L 943.067698 410.063761 
L 964.653772 445.982756 
L 986.239845 328.35241 
L 1007.825919 351.78477 
L 1029.411992 395.197665 
L 1050.998066 379.453125 
L 1072.584139 412.525 
L 1094.170213 409.729655 
L 1115.756286 416.259906 
L 1137.34236 425.183569 
L 1158.928433 431.360274 
L 1180.514507 452.071191 
L 1202.10058 434.366012 
L 1223.686654 390.347789 
L 1245.272727 410.56448 
" style="fill:none;stroke:#9467bd;stroke-linecap:square;stroke-width:1.5;"/>
   </g>
   <g id="line2d_20">
    <path clip-path="url(#p0a78e9e46f)" d="M 230.727273 384.127429 
L 252.313346 404.978105 
L 273.89942 397.051337 
L 295.485493 400.807207 
L 317.071567 386.64598 
L 338.65764 390.816835 
L 360.243714 374.109114 
L 381.829787 395.425066 
L 403.415861 383.234456 
L 425.001934 378.170626 
L 446.588008 409.007028 
L 468.174081 377.870538 
L 489.760155 434.11561 
L 511.346228 455.318699 
L 532.932302 438.211266 
L 554.518375 429.50573 
L 576.104449 435.944206 
L 597.690522 431.17439 
L 619.276596 434.860656 
L 640.862669 416.832138 
L 662.448743 406.566396 
L 684.034816 392.448487 
L 705.62089 404.274618 
L 727.206963 405.502739 
L 748.793037 475.346197 
L 770.37911 540.475593 
L 791.965184 464.419742 
L 813.551257 448.438549 
L 835.137331 465.440284 
L 856.723404 471.497214 
L 878.309478 403.709676 
L 899.895551 400.493755 
L 921.481625 421.125701 
L 943.067698 422.349136 
L 964.653772 408.290759 
L 986.239845 475.290938 
L 1007.825919 465.210662 
L 1029.411992 454.427946 
L 1050.998066 434.990019 
L 1072.584139 492.457694 
L 1094.170213 421.159719 
L 1115.756286 475.917842 
L 1137.34236 434.144894 
L 1158.928433 444.986932 
L 1180.514507 436.908861 
L 1202.10058 444.202087 
L 1223.686654 430.722352 
L 1245.272727 451.52221 
" style="fill:none;stroke:#8c564b;stroke-linecap:square;stroke-width:1.5;"/>
   </g>
   <g id="line2d_21">
    <path clip-path="url(#p0a78e9e46f)" d="M 230.727273 365.718806 
L 252.313346 384.48952 
L 273.89942 382.860951 
L 295.485493 363.018016 
L 317.071567 381.261409 
L 338.65764 381.797193 
L 360.243714 363.067828 
L 381.829787 367.102611 
L 403.415861 356.253284 
L 425.001934 375.83796 
L 446.588008 376.54409 
L 468.174081 362.999792 
L 489.760155 354.105161 
L 511.346228 367.629891 
L 532.932302 338.820249 
L 554.518375 361.022539 
L 576.104449 366.644582 
L 597.690522 351.047307 
L 619.276596 333.156412 
L 640.862669 346.949348 
L 662.448743 312.248928 
L 684.034816 315.081726 
L 705.62089 320.104248 
L 727.206963 313.537376 
L 748.793037 369.229326 
L 770.37911 360.996372 
L 791.965184 316.023297 
L 813.551257 324.982193 
L 835.137331 343.811183 
L 856.723404 346.621819 
L 878.309478 337.772979 
L 899.895551 360.877308 
L 921.481625 365.958147 
L 943.067698 356.198612 
L 964.653772 366.698249 
L 986.239845 399.654238 
L 1007.825919 365.139284 
L 1029.411992 379.141146 
L 1050.998066 351.325059 
L 1072.584139 329.482085 
L 1094.170213 341.712998 
L 1115.756286 348.768098 
L 1137.34236 345.892358 
L 1158.928433 347.928581 
L 1180.514507 354.215846 
L 1202.10058 343.217082 
L 1223.686654 352.694669 
L 1245.272727 363.988912 
" style="fill:none;stroke:#e377c2;stroke-linecap:square;stroke-width:1.5;"/>
   </g>
   <g id="line2d_22">
    <path clip-path="url(#p0a78e9e46f)" d="M 230.727273 375.418809 
L 252.313346 380.13521 
L 273.89942 379.711852 
L 295.485493 365.681143 
L 317.071567 368.762206 
L 338.65764 380.144888 
L 360.243714 406.474857 
L 381.829787 405.144508 
L 403.415861 398.882758 
L 425.001934 390.533757 
L 446.588008 389.295999 
L 468.174081 371.241879 
L 489.760155 395.568302 
L 511.346228 395.34974 
L 532.932302 381.877378 
L 554.518375 411.855223 
L 576.104449 390.962627 
L 597.690522 409.811056 
L 619.276596 403.58349 
L 640.862669 438.389861 
L 662.448743 443.474135 
L 684.034816 465.111038 
L 705.62089 485.179256 
L 727.206963 411.625988 
L 748.793037 394.188854 
L 770.37911 413.248093 
L 791.965184 402.137556 
L 813.551257 410.727113 
L 835.137331 401.330842 
L 856.723404 391.097987 
L 878.309478 454.153581 
L 899.895551 450.704394 
L 921.481625 416.79083 
L 943.067698 431.69924 
L 964.653772 446.546484 
L 986.239845 448.834616 
L 1007.825919 416.26355 
L 1029.411992 410.301678 
L 1050.998066 467.919489 
L 1072.584139 415.227005 
L 1094.170213 452.067546 
L 1115.756286 477.783975 
L 1137.34236 449.21003 
L 1158.928433 446.036632 
L 1180.514507 461.537928 
L 1202.10058 443.210704 
L 1223.686654 433.210529 
L 1245.272727 388.015374 
" style="fill:none;stroke:#7f7f7f;stroke-linecap:square;stroke-width:1.5;"/>
   </g>
   <g id="line2d_23">
    <path clip-path="url(#p0a78e9e46f)" d="M 230.727273 340.098356 
L 252.313346 342.248824 
L 273.89942 334.671956 
L 295.485493 342.393359 
L 317.071567 324.985838 
L 338.65764 319.262301 
L 360.243714 354.767424 
L 381.829787 359.735274 
L 403.415861 318.833431 
L 425.001934 326.327121 
L 446.588008 348.649291 
L 468.174081 327.679338 
L 489.760155 331.536616 
L 511.346228 341.970563 
L 532.932302 313.258116 
L 554.518375 310.28705 
L 576.104449 242.119088 
L 597.690522 305.152101 
L 619.276596 298.866219 
L 640.862669 321.620481 
L 662.448743 284.062545 
L 684.034816 238.842421 
L 705.62089 258.405228 
L 727.206963 327.358423 
L 748.793037 409.953789 
L 770.37911 479.126473 
L 791.965184 415.394875 
L 813.551257 387.847546 
L 835.137331 439.586567 
L 856.723404 419.323248 
L 878.309478 326.926081 
L 899.895551 318.811562 
L 921.481625 334.020059 
L 943.067698 346.265342 
L 964.653772 438.518224 
L 986.239845 472.977711 
L 1007.825919 460.312063 
L 1029.411992 454.680652 
L 1050.998066 461.504657 
L 1072.584139 470.433438 
L 1094.170213 394.858909 
L 1115.756286 397.073726 
L 1137.34236 427.108018 
L 1158.928433 450.138237 
L 1180.514507 421.707653 
L 1202.10058 402.622313 
L 1223.686654 389.570233 
L 1245.272727 400.942232 
" style="fill:none;stroke:#bcbd22;stroke-linecap:square;stroke-width:1.5;"/>
   </g>
   <g id="line2d_24">
    <path clip-path="url(#p0a78e9e46f)" d="M 230.727273 424.074337 
L 252.313346 385.383709 
L 273.89942 373.024876 
L 295.485493 386.091972 
L 317.071567 372.338961 
L 338.65764 379.05631 
L 360.243714 389.990683 
L 381.829787 385.375163 
L 403.415861 377.169524 
L 425.001934 384.37163 
L 446.588008 391.978565 
L 468.174081 393.305013 
L 489.760155 338.690126 
L 511.346228 319.402018 
L 532.932302 366.753926 
L 554.518375 360.167228 
L 576.104449 393.781265 
L 597.690522 363.818655 
L 619.276596 384.669456 
L 640.862669 385.846556 
L 662.448743 376.008469 
L 684.034816 370.871325 
L 705.62089 378.343146 
L 727.206963 387.638404 
L 748.793037 407.368417 
L 770.37911 369.316214 
L 791.965184 378.772017 
L 813.551257 375.970387 
L 835.137331 356.174313 
L 856.723404 361.317616 
L 878.309478 326.342915 
L 899.895551 393.670707 
L 921.481625 392.317274 
L 943.067698 406.156545 
L 964.653772 357.147053 
L 986.239845 309.86603 
L 1007.825919 341.8515 
L 1029.411992 352.898652 
L 1050.998066 361.608229 
L 1072.584139 349.659648 
L 1094.170213 376.547479 
L 1115.756286 344.413788 
L 1137.34236 381.096178 
L 1158.928433 345.420965 
L 1180.514507 376.492807 
L 1202.10058 410.397867 
L 1223.686654 402.497091 
L 1245.272727 396.587922 
" style="fill:none;stroke:#17becf;stroke-linecap:square;stroke-width:1.5;"/>
   </g>
   <g id="line2d_25">
    <path clip-path="url(#p0a78e9e46f)" d="M 230.727273 411.886157 
L 252.313346 424.358673 
L 273.89942 436.026301 
L 295.485493 453.020051 
L 317.071567 462.574263 
L 338.65764 467.503235 
L 360.243714 527.01538 
L 381.829787 519.678416 
L 403.415861 503.677785 
L 425.001934 457.636786 
L 446.588008 400.356724 
L 468.174081 417.370352 
L 489.760155 430.830439 
L 511.346228 478.373217 
L 532.932302 492.776215 
L 554.518375 510.818584 
L 576.104449 528.278908 
L 597.690522 596.91032 
L 619.276596 541.482938 
L 640.862669 532.299112 
L 662.448743 553.738191 
L 684.034816 569.439531 
L 705.62089 521.238387 
L 727.206963 457.151856 
L 748.793037 378.637746 
L 770.37911 395.01442 
L 791.965184 374.456584 
L 813.551257 400.094043 
L 835.137331 348.72922 
L 856.723404 401.906007 
L 878.309478 605.290909 
L 899.895551 525.271956 
L 921.481625 444.996652 
L 943.067698 406.836906 
L 964.653772 424.988761 
L 986.239845 328.741187 
L 1007.825919 367.005417 
L 1029.411992 360.926911 
L 1050.998066 383.165952 
L 1072.584139 357.435201 
L 1094.170213 436.691388 
L 1115.756286 391.242061 
L 1137.34236 430.548701 
L 1158.928433 425.217587 
L 1180.514507 397.895019 
L 1202.10058 446.398681 
L 1223.686654 434.279668 
L 1245.272727 388.987318 
" style="fill:none;stroke:#1f77b4;stroke-linecap:square;stroke-width:1.5;"/>
   </g>
   <g id="line2d_26">
    <path clip-path="url(#p0a78e9e46f)" d="M 230.727273 389.259295 
L 252.313346 366.080897 
L 273.89942 382.549929 
L 295.485493 380.824034 
L 317.071567 383.691269 
L 338.65764 371.57234 
L 360.243714 366.216927 
L 381.829787 364.420045 
L 403.415861 367.663909 
L 425.001934 374.418921 
L 446.588008 375.261124 
L 468.174081 367.820635 
L 489.760155 379.589539 
L 511.346228 380.71226 
L 532.932302 362.691199 
L 554.518375 366.445988 
L 576.104449 400.818142 
L 597.690522 365.257132 
L 619.276596 370.284681 
L 640.862669 379.684429 
L 662.448743 379.701857 
L 684.034816 377.92764 
L 705.62089 370.664787 
L 727.206963 356.438994 
L 748.793037 390.864804 
L 770.37911 428.527057 
L 791.965184 392.495869 
L 813.551257 383.41548 
L 835.137331 387.898573 
L 856.723404 386.432655 
L 878.309478 354.023887 
L 899.895551 400.746461 
L 921.481625 400.870384 
L 943.067698 401.491213 
L 964.653772 382.087142 
L 986.239845 367.307934 
L 1007.825919 371.865138 
L 1029.411992 407.210895 
L 1050.998066 430.868975 
L 1072.584139 421.602959 
L 1094.170213 448.276963 
L 1115.756286 422.616421 
L 1137.34236 377.636057 
L 1158.928433 339.822566 
L 1180.514507 405.787206 
L 1202.10058 398.034736 
L 1223.686654 406.540379 
L 1245.272727 383.408358 
" style="fill:none;stroke:#ff7f0e;stroke-linecap:square;stroke-width:1.5;"/>
   </g>
   <g id="line2d_27">
    <path clip-path="url(#p0a78e9e46f)" d="M 230.727273 408.251085 
L 252.313346 384.975493 
L 273.89942 381.694618 
L 295.485493 363.776132 
L 317.071567 357.837553 
L 338.65764 371.455706 
L 360.243714 369.540976 
L 381.829787 342.706811 
L 403.415861 362.570921 
L 425.001934 349.887049 
L 446.588008 374.814029 
L 468.174081 430.025066 
L 489.760155 421.538652 
L 511.346228 402.775394 
L 532.932302 366.617854 
L 554.518375 419.067049 
L 576.104449 398.854814 
L 597.690522 380.594412 
L 619.276596 359.204517 
L 640.862669 373.872203 
L 662.448743 376.358369 
L 684.034816 374.856296 
L 705.62089 391.814293 
L 727.206963 409.351638 
L 748.793037 193.365737 
L 770.37911 113.053398 
L 791.965184 367.147564 
L 813.551257 370.313672 
L 835.137331 373.533237 
L 856.723404 340.420815 
L 878.309478 393.640333 
L 899.895551 357.397748 
L 921.481625 388.56557 
L 943.067698 434.692828 
L 964.653772 408.79617 
L 986.239845 379.496115 
L 1007.825919 357.422047 
L 1029.411992 360.557572 
L 1050.998066 345.026861 
L 1072.584139 407.198746 
L 1094.170213 456.557928 
L 1115.756286 465.615234 
L 1137.34236 365.778337 
L 1158.928433 390.033205 
L 1180.514507 398.439308 
L 1202.10058 334.70285 
L 1223.686654 360.081445 
L 1245.272727 431.014187 
" style="fill:none;stroke:#2ca02c;stroke-linecap:square;stroke-width:1.5;"/>
   </g>
   <g id="line2d_28">
    <path clip-path="url(#p0a78e9e46f)" d="M 230.727273 366.185339 
L 252.313346 400.059397 
L 273.89942 406.129296 
L 295.485493 393.984159 
L 317.071567 391.466823 
L 338.65764 387.706614 
L 360.243714 378.094085 
L 381.829787 390.526467 
L 403.415861 359.966111 
L 425.001934 376.868221 
L 446.588008 403.680773 
L 468.174081 362.027847 
L 489.760155 358.926005 
L 511.346228 388.857153 
L 532.932302 348.306425 
L 554.518375 347.531953 
L 576.104449 370.804504 
L 597.690522 386.3872 
L 619.276596 386.127372 
L 640.862669 377.293446 
L 662.448743 355.578201 
L 684.034816 365.03966 
L 705.62089 366.096649 
L 727.206963 387.910549 
L 748.793037 428.790068 
L 770.37911 419.526853 
L 791.965184 428.03015 
L 813.551257 420.777016 
L 835.137331 400.397776 
L 856.723404 345.805386 
L 878.309478 393.134922 
L 899.895551 362.23803 
L 921.481625 370.584601 
L 943.067698 362.807833 
L 964.653772 352.753866 
L 986.239845 471.4226 
L 1007.825919 420.61786 
L 1029.411992 421.07082 
L 1050.998066 353.968747 
L 1072.584139 351.389708 
L 1094.170213 303.748856 
L 1115.756286 344.083327 
L 1137.34236 331.079928 
L 1158.928433 364.626583 
L 1180.514507 338.295399 
L 1202.10058 386.896255 
L 1223.686654 358.506896 
L 1245.272727 323.283888 
" style="fill:none;stroke:#d62728;stroke-linecap:square;stroke-width:1.5;"/>
   </g>
   <g id="line2d_29">
    <path clip-path="url(#p0a78e9e46f)" d="M 230.727273 419.720027 
L 252.313346 402.353855 
L 273.89942 411.280601 
L 295.485493 420.790381 
L 317.071567 428.167437 
L 338.65764 438.578175 
L 360.243714 430.773463 
L 381.829787 430.240108 
L 403.415861 456.713439 
L 425.001934 465.801118 
L 446.588008 468.839914 
L 468.174081 437.470159 
L 489.760155 453.729445 
L 511.346228 447.504268 
L 532.932302 434.867778 
L 554.518375 411.310934 
L 576.104449 330.546574 
L 597.690522 401.977185 
L 619.276596 412.112469 
L 640.862669 363.025305 
L 662.448743 394.417093 
L 684.034816 410.118433 
L 705.62089 426.259997 
L 727.206963 439.540226 
L 748.793037 484.268645 
L 770.37911 473.25593 
L 791.965184 436.000093 
L 813.551257 455.144964 
L 835.137331 490.302617 
L 856.723404 476.531885 
L 878.309478 450.285243 
L 899.895551 455.544676 
L 921.481625 473.046962 
L 943.067698 474.21208 
L 964.653772 468.667934 
L 986.239845 476.12681 
L 1007.825919 478.604053 
L 1029.411992 439.012911 
L 1050.998066 419.640776 
L 1072.584139 427.279114 
L 1094.170213 389.416021 
L 1115.756286 389.259295 
L 1137.34236 382.690167 
L 1158.928433 338.267456 
L 1180.514507 387.456338 
L 1202.10058 393.699865 
L 1223.686654 433.639525 
L 1245.272727 447.204096 
" style="fill:none;stroke:#9467bd;stroke-linecap:square;stroke-width:1.5;"/>
   </g>
   <g id="line2d_30">
    <path clip-path="url(#p0a78e9e46f)" d="M 230.727273 380.025825 
L 252.313346 432.795149 
L 273.89942 400.822481 
L 295.485493 404.150695 
L 317.071567 394.888067 
L 338.65764 365.274141 
L 360.243714 299.191653 
L 381.829787 332.929052 
L 403.415861 367.080742 
L 425.001934 345.960394 
L 446.588008 341.534659 
L 468.174081 388.231464 
L 489.760155 412.946665 
L 511.346228 438.698453 
L 532.932302 440.796638 
L 554.518375 391.658221 
L 576.104449 387.269239 
L 597.690522 362.963344 
L 619.276596 382.472862 
L 640.862669 378.071002 
L 662.448743 367.824699 
L 684.034816 335.648066 
L 705.62089 328.190824 
L 727.206963 359.413144 
L 748.793037 327.824501 
L 770.37911 349.896768 
L 791.965184 365.359186 
L 813.551257 354.257153 
L 835.137331 328.182319 
L 856.723404 355.544267 
L 878.309478 313.765957 
L 899.895551 289.419969 
L 921.481625 289.952108 
L 943.067698 288.551293 
L 964.653772 294.184506 
L 986.239845 330.996098 
L 1007.825919 340.840678 
L 1029.411992 313.845933 
L 1050.998066 352.219248 
L 1072.584139 319.918154 
L 1094.170213 321.671508 
L 1115.756286 356.93243 
L 1137.34236 406.425045 
L 1158.928433 407.644835 
L 1180.514507 379.311446 
L 1202.10058 372.666992 
L 1223.686654 366.068622 
L 1245.272727 327.229982 
" style="fill:none;stroke:#8c564b;stroke-linecap:square;stroke-width:1.5;"/>
   </g>
   <g id="patch_3">
    <path d="M 180 630 
L 180 86.4 
" style="fill:none;stroke:#000000;stroke-linecap:square;stroke-linejoin:miter;stroke-width:0.8;"/>
   </g>
   <g id="patch_4">
    <path d="M 1296 630 
L 1296 86.4 
" style="fill:none;stroke:#000000;stroke-linecap:square;stroke-linejoin:miter;stroke-width:0.8;"/>
   </g>
   <g id="patch_5">
    <path d="M 180 630 
L 1296 630 
" style="fill:none;stroke:#000000;stroke-linecap:square;stroke-linejoin:miter;stroke-width:0.8;"/>
   </g>
   <g id="patch_6">
    <path d="M 180 86.4 
L 1296 86.4 
" style="fill:none;stroke:#000000;stroke-linecap:square;stroke-linejoin:miter;stroke-width:0.8;"/>
   </g>
   <g id="legend_1">
    <g id="patch_7">
     <path d="M 187 333.7 
L 275.503125 333.7 
Q 277.503125 333.7 277.503125 331.7 
L 277.503125 93.4 
Q 277.503125 91.4 275.503125 91.4 
L 187 91.4 
Q 185 91.4 185 93.4 
L 185 331.7 
Q 185 333.7 187 333.7 
z
" style="fill:#ffffff;opacity:0.8;stroke:#cccccc;stroke-linejoin:miter;"/>
    </g>
    <g id="line2d_31">
     <path d="M 189 99.498437 
L 209 99.498437 
" style="fill:none;stroke:#1f77b4;stroke-linecap:square;stroke-width:1.5;"/>
    </g>
    <g id="line2d_32"/>
    <g id="text_15">
     <!-- PA_II_E6D8 -->
     <defs>
      <path d="M 19.671875 64.796875 
L 19.671875 37.40625 
L 32.078125 37.40625 
Q 38.96875 37.40625 42.71875 40.96875 
Q 46.484375 44.53125 46.484375 51.125 
Q 46.484375 57.671875 42.71875 61.234375 
Q 38.96875 64.796875 32.078125 64.796875 
z
M 9.8125 72.90625 
L 32.078125 72.90625 
Q 44.34375 72.90625 50.609375 67.359375 
Q 56.890625 61.8125 56.890625 51.125 
Q 56.890625 40.328125 50.609375 34.8125 
Q 44.34375 29.296875 32.078125 29.296875 
L 19.671875 29.296875 
L 19.671875 0 
L 9.8125 0 
z
" id="DejaVuSans-80"/>
      <path d="M 34.1875 63.1875 
L 20.796875 26.90625 
L 47.609375 26.90625 
z
M 28.609375 72.90625 
L 39.796875 72.90625 
L 67.578125 0 
L 57.328125 0 
L 50.6875 18.703125 
L 17.828125 18.703125 
L 11.1875 0 
L 0.78125 0 
z
" id="DejaVuSans-65"/>
      <path d="M 50.984375 -16.609375 
L 50.984375 -23.578125 
L -0.984375 -23.578125 
L -0.984375 -16.609375 
z
" id="DejaVuSans-95"/>
      <path d="M 9.8125 72.90625 
L 19.671875 72.90625 
L 19.671875 0 
L 9.8125 0 
z
" id="DejaVuSans-73"/>
      <path d="M 9.8125 72.90625 
L 55.90625 72.90625 
L 55.90625 64.59375 
L 19.671875 64.59375 
L 19.671875 43.015625 
L 54.390625 43.015625 
L 54.390625 34.71875 
L 19.671875 34.71875 
L 19.671875 8.296875 
L 56.78125 8.296875 
L 56.78125 0 
L 9.8125 0 
z
" id="DejaVuSans-69"/>
      <path d="M 19.671875 64.796875 
L 19.671875 8.109375 
L 31.59375 8.109375 
Q 46.6875 8.109375 53.6875 14.9375 
Q 60.6875 21.78125 60.6875 36.53125 
Q 60.6875 51.171875 53.6875 57.984375 
Q 46.6875 64.796875 31.59375 64.796875 
z
M 9.8125 72.90625 
L 30.078125 72.90625 
Q 51.265625 72.90625 61.171875 64.09375 
Q 71.09375 55.28125 71.09375 36.53125 
Q 71.09375 17.671875 61.125 8.828125 
Q 51.171875 0 30.078125 0 
L 9.8125 0 
z
" id="DejaVuSans-68"/>
     </defs>
     <g transform="translate(217 102.998437)scale(0.1 -0.1)">
      <use xlink:href="#DejaVuSans-80"/>
      <use x="60.208984" xlink:href="#DejaVuSans-65"/>
      <use x="128.617188" xlink:href="#DejaVuSans-95"/>
      <use x="178.617188" xlink:href="#DejaVuSans-73"/>
      <use x="208.109375" xlink:href="#DejaVuSans-73"/>
      <use x="237.601562" xlink:href="#DejaVuSans-95"/>
      <use x="287.601562" xlink:href="#DejaVuSans-69"/>
      <use x="350.785156" xlink:href="#DejaVuSans-54"/>
      <use x="414.408203" xlink:href="#DejaVuSans-68"/>
      <use x="491.410156" xlink:href="#DejaVuSans-56"/>
     </g>
    </g>
    <g id="line2d_33">
     <path d="M 189 114.454687 
L 209 114.454687 
" style="fill:none;stroke:#ff7f0e;stroke-linecap:square;stroke-width:1.5;"/>
    </g>
    <g id="line2d_34"/>
    <g id="text_16">
     <!-- PA_II_0D9C -->
     <defs>
      <path d="M 10.984375 1.515625 
L 10.984375 10.5 
Q 14.703125 8.734375 18.5 7.8125 
Q 22.3125 6.890625 25.984375 6.890625 
Q 35.75 6.890625 40.890625 13.453125 
Q 46.046875 20.015625 46.78125 33.40625 
Q 43.953125 29.203125 39.59375 26.953125 
Q 35.25 24.703125 29.984375 24.703125 
Q 19.046875 24.703125 12.671875 31.3125 
Q 6.296875 37.9375 6.296875 49.421875 
Q 6.296875 60.640625 12.9375 67.421875 
Q 19.578125 74.21875 30.609375 74.21875 
Q 43.265625 74.21875 49.921875 64.515625 
Q 56.59375 54.828125 56.59375 36.375 
Q 56.59375 19.140625 48.40625 8.859375 
Q 40.234375 -1.421875 26.421875 -1.421875 
Q 22.703125 -1.421875 18.890625 -0.6875 
Q 15.09375 0.046875 10.984375 1.515625 
z
M 30.609375 32.421875 
Q 37.25 32.421875 41.125 36.953125 
Q 45.015625 41.5 45.015625 49.421875 
Q 45.015625 57.28125 41.125 61.84375 
Q 37.25 66.40625 30.609375 66.40625 
Q 23.96875 66.40625 20.09375 61.84375 
Q 16.21875 57.28125 16.21875 49.421875 
Q 16.21875 41.5 20.09375 36.953125 
Q 23.96875 32.421875 30.609375 32.421875 
z
" id="DejaVuSans-57"/>
      <path d="M 64.40625 67.28125 
L 64.40625 56.890625 
Q 59.421875 61.53125 53.78125 63.8125 
Q 48.140625 66.109375 41.796875 66.109375 
Q 29.296875 66.109375 22.65625 58.46875 
Q 16.015625 50.828125 16.015625 36.375 
Q 16.015625 21.96875 22.65625 14.328125 
Q 29.296875 6.6875 41.796875 6.6875 
Q 48.140625 6.6875 53.78125 8.984375 
Q 59.421875 11.28125 64.40625 15.921875 
L 64.40625 5.609375 
Q 59.234375 2.09375 53.4375 0.328125 
Q 47.65625 -1.421875 41.21875 -1.421875 
Q 24.65625 -1.421875 15.125 8.703125 
Q 5.609375 18.84375 5.609375 36.375 
Q 5.609375 53.953125 15.125 64.078125 
Q 24.65625 74.21875 41.21875 74.21875 
Q 47.75 74.21875 53.53125 72.484375 
Q 59.328125 70.75 64.40625 67.28125 
z
" id="DejaVuSans-67"/>
     </defs>
     <g transform="translate(217 117.954687)scale(0.1 -0.1)">
      <use xlink:href="#DejaVuSans-80"/>
      <use x="60.208984" xlink:href="#DejaVuSans-65"/>
      <use x="128.617188" xlink:href="#DejaVuSans-95"/>
      <use x="178.617188" xlink:href="#DejaVuSans-73"/>
      <use x="208.109375" xlink:href="#DejaVuSans-73"/>
      <use x="237.601562" xlink:href="#DejaVuSans-95"/>
      <use x="287.601562" xlink:href="#DejaVuSans-48"/>
      <use x="351.224609" xlink:href="#DejaVuSans-68"/>
      <use x="428.226562" xlink:href="#DejaVuSans-57"/>
      <use x="491.849609" xlink:href="#DejaVuSans-67"/>
     </g>
    </g>
    <g id="line2d_35">
     <path d="M 189 129.410937 
L 209 129.410937 
" style="fill:none;stroke:#2ca02c;stroke-linecap:square;stroke-width:1.5;"/>
    </g>
    <g id="line2d_36"/>
    <g id="text_17">
     <!-- PA_II_0DA2 -->
     <g transform="translate(217 132.910937)scale(0.1 -0.1)">
      <use xlink:href="#DejaVuSans-80"/>
      <use x="60.208984" xlink:href="#DejaVuSans-65"/>
      <use x="128.617188" xlink:href="#DejaVuSans-95"/>
      <use x="178.617188" xlink:href="#DejaVuSans-73"/>
      <use x="208.109375" xlink:href="#DejaVuSans-73"/>
      <use x="237.601562" xlink:href="#DejaVuSans-95"/>
      <use x="287.601562" xlink:href="#DejaVuSans-48"/>
      <use x="351.224609" xlink:href="#DejaVuSans-68"/>
      <use x="428.210938" xlink:href="#DejaVuSans-65"/>
      <use x="496.619141" xlink:href="#DejaVuSans-50"/>
     </g>
    </g>
    <g id="line2d_37">
     <path d="M 189 144.367188 
L 209 144.367188 
" style="fill:none;stroke:#d62728;stroke-linecap:square;stroke-width:1.5;"/>
    </g>
    <g id="line2d_38"/>
    <g id="text_18">
     <!-- PA_II_0DA8 -->
     <g transform="translate(217 147.867188)scale(0.1 -0.1)">
      <use xlink:href="#DejaVuSans-80"/>
      <use x="60.208984" xlink:href="#DejaVuSans-65"/>
      <use x="128.617188" xlink:href="#DejaVuSans-95"/>
      <use x="178.617188" xlink:href="#DejaVuSans-73"/>
      <use x="208.109375" xlink:href="#DejaVuSans-73"/>
      <use x="237.601562" xlink:href="#DejaVuSans-95"/>
      <use x="287.601562" xlink:href="#DejaVuSans-48"/>
      <use x="351.224609" xlink:href="#DejaVuSans-68"/>
      <use x="428.210938" xlink:href="#DejaVuSans-65"/>
      <use x="496.619141" xlink:href="#DejaVuSans-56"/>
     </g>
    </g>
    <g id="line2d_39">
     <path d="M 189 159.323437 
L 209 159.323437 
" style="fill:none;stroke:#9467bd;stroke-linecap:square;stroke-width:1.5;"/>
    </g>
    <g id="line2d_40"/>
    <g id="text_19">
     <!-- PA_II_0E47 -->
     <defs>
      <path d="M 8.203125 72.90625 
L 55.078125 72.90625 
L 55.078125 68.703125 
L 28.609375 0 
L 18.3125 0 
L 43.21875 64.59375 
L 8.203125 64.59375 
z
" id="DejaVuSans-55"/>
     </defs>
     <g transform="translate(217 162.823437)scale(0.1 -0.1)">
      <use xlink:href="#DejaVuSans-80"/>
      <use x="60.208984" xlink:href="#DejaVuSans-65"/>
      <use x="128.617188" xlink:href="#DejaVuSans-95"/>
      <use x="178.617188" xlink:href="#DejaVuSans-73"/>
      <use x="208.109375" xlink:href="#DejaVuSans-73"/>
      <use x="237.601562" xlink:href="#DejaVuSans-95"/>
      <use x="287.601562" xlink:href="#DejaVuSans-48"/>
      <use x="351.224609" xlink:href="#DejaVuSans-69"/>
      <use x="414.408203" xlink:href="#DejaVuSans-52"/>
      <use x="478.03125" xlink:href="#DejaVuSans-55"/>
     </g>
    </g>
    <g id="line2d_41">
     <path d="M 189 174.279687 
L 209 174.279687 
" style="fill:none;stroke:#8c564b;stroke-linecap:square;stroke-width:1.5;"/>
    </g>
    <g id="line2d_42"/>
    <g id="text_20">
     <!-- PA_II_0E49 -->
     <g transform="translate(217 177.779687)scale(0.1 -0.1)">
      <use xlink:href="#DejaVuSans-80"/>
      <use x="60.208984" xlink:href="#DejaVuSans-65"/>
      <use x="128.617188" xlink:href="#DejaVuSans-95"/>
      <use x="178.617188" xlink:href="#DejaVuSans-73"/>
      <use x="208.109375" xlink:href="#DejaVuSans-73"/>
      <use x="237.601562" xlink:href="#DejaVuSans-95"/>
      <use x="287.601562" xlink:href="#DejaVuSans-48"/>
      <use x="351.224609" xlink:href="#DejaVuSans-69"/>
      <use x="414.408203" xlink:href="#DejaVuSans-52"/>
      <use x="478.03125" xlink:href="#DejaVuSans-57"/>
     </g>
    </g>
    <g id="line2d_43">
     <path d="M 189 189.235937 
L 209 189.235937 
" style="fill:none;stroke:#e377c2;stroke-linecap:square;stroke-width:1.5;"/>
    </g>
    <g id="line2d_44"/>
    <g id="text_21">
     <!-- PA_II_0ED1 -->
     <g transform="translate(217 192.735937)scale(0.1 -0.1)">
      <use xlink:href="#DejaVuSans-80"/>
      <use x="60.208984" xlink:href="#DejaVuSans-65"/>
      <use x="128.617188" xlink:href="#DejaVuSans-95"/>
      <use x="178.617188" xlink:href="#DejaVuSans-73"/>
      <use x="208.109375" xlink:href="#DejaVuSans-73"/>
      <use x="237.601562" xlink:href="#DejaVuSans-95"/>
      <use x="287.601562" xlink:href="#DejaVuSans-48"/>
      <use x="351.224609" xlink:href="#DejaVuSans-69"/>
      <use x="414.408203" xlink:href="#DejaVuSans-68"/>
      <use x="491.410156" xlink:href="#DejaVuSans-49"/>
     </g>
    </g>
    <g id="line2d_45">
     <path d="M 189 204.192187 
L 209 204.192187 
" style="fill:none;stroke:#7f7f7f;stroke-linecap:square;stroke-width:1.5;"/>
    </g>
    <g id="line2d_46"/>
    <g id="text_22">
     <!-- PA_II_6A1A -->
     <g transform="translate(217 207.692187)scale(0.1 -0.1)">
      <use xlink:href="#DejaVuSans-80"/>
      <use x="60.208984" xlink:href="#DejaVuSans-65"/>
      <use x="128.617188" xlink:href="#DejaVuSans-95"/>
      <use x="178.617188" xlink:href="#DejaVuSans-73"/>
      <use x="208.109375" xlink:href="#DejaVuSans-73"/>
      <use x="237.601562" xlink:href="#DejaVuSans-95"/>
      <use x="287.601562" xlink:href="#DejaVuSans-54"/>
      <use x="351.224609" xlink:href="#DejaVuSans-65"/>
      <use x="419.632812" xlink:href="#DejaVuSans-49"/>
      <use x="483.255859" xlink:href="#DejaVuSans-65"/>
     </g>
    </g>
    <g id="line2d_47">
     <path d="M 189 219.148437 
L 209 219.148437 
" style="fill:none;stroke:#bcbd22;stroke-linecap:square;stroke-width:1.5;"/>
    </g>
    <g id="line2d_48"/>
    <g id="text_23">
     <!-- PA_II_806B -->
     <defs>
      <path d="M 19.671875 34.8125 
L 19.671875 8.109375 
L 35.5 8.109375 
Q 43.453125 8.109375 47.28125 11.40625 
Q 51.125 14.703125 51.125 21.484375 
Q 51.125 28.328125 47.28125 31.5625 
Q 43.453125 34.8125 35.5 34.8125 
z
M 19.671875 64.796875 
L 19.671875 42.828125 
L 34.28125 42.828125 
Q 41.5 42.828125 45.03125 45.53125 
Q 48.578125 48.25 48.578125 53.8125 
Q 48.578125 59.328125 45.03125 62.0625 
Q 41.5 64.796875 34.28125 64.796875 
z
M 9.8125 72.90625 
L 35.015625 72.90625 
Q 46.296875 72.90625 52.390625 68.21875 
Q 58.5 63.53125 58.5 54.890625 
Q 58.5 48.1875 55.375 44.234375 
Q 52.25 40.28125 46.1875 39.3125 
Q 53.46875 37.75 57.5 32.78125 
Q 61.53125 27.828125 61.53125 20.40625 
Q 61.53125 10.640625 54.890625 5.3125 
Q 48.25 0 35.984375 0 
L 9.8125 0 
z
" id="DejaVuSans-66"/>
     </defs>
     <g transform="translate(217 222.648437)scale(0.1 -0.1)">
      <use xlink:href="#DejaVuSans-80"/>
      <use x="60.208984" xlink:href="#DejaVuSans-65"/>
      <use x="128.617188" xlink:href="#DejaVuSans-95"/>
      <use x="178.617188" xlink:href="#DejaVuSans-73"/>
      <use x="208.109375" xlink:href="#DejaVuSans-73"/>
      <use x="237.601562" xlink:href="#DejaVuSans-95"/>
      <use x="287.601562" xlink:href="#DejaVuSans-56"/>
      <use x="351.224609" xlink:href="#DejaVuSans-48"/>
      <use x="414.847656" xlink:href="#DejaVuSans-54"/>
      <use x="478.470703" xlink:href="#DejaVuSans-66"/>
     </g>
    </g>
    <g id="line2d_49">
     <path d="M 189 234.104687 
L 209 234.104687 
" style="fill:none;stroke:#17becf;stroke-linecap:square;stroke-width:1.5;"/>
    </g>
    <g id="line2d_50"/>
    <g id="text_24">
     <!-- PA_II_D718 -->
     <g transform="translate(217 237.604687)scale(0.1 -0.1)">
      <use xlink:href="#DejaVuSans-80"/>
      <use x="60.208984" xlink:href="#DejaVuSans-65"/>
      <use x="128.617188" xlink:href="#DejaVuSans-95"/>
      <use x="178.617188" xlink:href="#DejaVuSans-73"/>
      <use x="208.109375" xlink:href="#DejaVuSans-73"/>
      <use x="237.601562" xlink:href="#DejaVuSans-95"/>
      <use x="287.601562" xlink:href="#DejaVuSans-68"/>
      <use x="364.603516" xlink:href="#DejaVuSans-55"/>
      <use x="428.226562" xlink:href="#DejaVuSans-49"/>
      <use x="491.849609" xlink:href="#DejaVuSans-56"/>
     </g>
    </g>
    <g id="line2d_51">
     <path d="M 189 249.060937 
L 209 249.060937 
" style="fill:none;stroke:#1f77b4;stroke-linecap:square;stroke-width:1.5;"/>
    </g>
    <g id="line2d_52"/>
    <g id="text_25">
     <!-- PA_II_D71C -->
     <g transform="translate(217 252.560937)scale(0.1 -0.1)">
      <use xlink:href="#DejaVuSans-80"/>
      <use x="60.208984" xlink:href="#DejaVuSans-65"/>
      <use x="128.617188" xlink:href="#DejaVuSans-95"/>
      <use x="178.617188" xlink:href="#DejaVuSans-73"/>
      <use x="208.109375" xlink:href="#DejaVuSans-73"/>
      <use x="237.601562" xlink:href="#DejaVuSans-95"/>
      <use x="287.601562" xlink:href="#DejaVuSans-68"/>
      <use x="364.603516" xlink:href="#DejaVuSans-55"/>
      <use x="428.226562" xlink:href="#DejaVuSans-49"/>
      <use x="491.849609" xlink:href="#DejaVuSans-67"/>
     </g>
    </g>
    <g id="line2d_53">
     <path d="M 189 264.017187 
L 209 264.017187 
" style="fill:none;stroke:#ff7f0e;stroke-linecap:square;stroke-width:1.5;"/>
    </g>
    <g id="line2d_54"/>
    <g id="text_26">
     <!-- PA_II_D727 -->
     <g transform="translate(217 267.517187)scale(0.1 -0.1)">
      <use xlink:href="#DejaVuSans-80"/>
      <use x="60.208984" xlink:href="#DejaVuSans-65"/>
      <use x="128.617188" xlink:href="#DejaVuSans-95"/>
      <use x="178.617188" xlink:href="#DejaVuSans-73"/>
      <use x="208.109375" xlink:href="#DejaVuSans-73"/>
      <use x="237.601562" xlink:href="#DejaVuSans-95"/>
      <use x="287.601562" xlink:href="#DejaVuSans-68"/>
      <use x="364.603516" xlink:href="#DejaVuSans-55"/>
      <use x="428.226562" xlink:href="#DejaVuSans-50"/>
      <use x="491.849609" xlink:href="#DejaVuSans-55"/>
     </g>
    </g>
    <g id="line2d_55">
     <path d="M 189 278.973437 
L 209 278.973437 
" style="fill:none;stroke:#2ca02c;stroke-linecap:square;stroke-width:1.5;"/>
    </g>
    <g id="line2d_56"/>
    <g id="text_27">
     <!-- PA_II_D8B6 -->
     <g transform="translate(217 282.473437)scale(0.1 -0.1)">
      <use xlink:href="#DejaVuSans-80"/>
      <use x="60.208984" xlink:href="#DejaVuSans-65"/>
      <use x="128.617188" xlink:href="#DejaVuSans-95"/>
      <use x="178.617188" xlink:href="#DejaVuSans-73"/>
      <use x="208.109375" xlink:href="#DejaVuSans-73"/>
      <use x="237.601562" xlink:href="#DejaVuSans-95"/>
      <use x="287.601562" xlink:href="#DejaVuSans-68"/>
      <use x="364.603516" xlink:href="#DejaVuSans-56"/>
      <use x="428.226562" xlink:href="#DejaVuSans-66"/>
      <use x="496.830078" xlink:href="#DejaVuSans-54"/>
     </g>
    </g>
    <g id="line2d_57">
     <path d="M 189 293.929687 
L 209 293.929687 
" style="fill:none;stroke:#d62728;stroke-linecap:square;stroke-width:1.5;"/>
    </g>
    <g id="line2d_58"/>
    <g id="text_28">
     <!-- PA_II_D8BE -->
     <g transform="translate(217 297.429687)scale(0.1 -0.1)">
      <use xlink:href="#DejaVuSans-80"/>
      <use x="60.208984" xlink:href="#DejaVuSans-65"/>
      <use x="128.617188" xlink:href="#DejaVuSans-95"/>
      <use x="178.617188" xlink:href="#DejaVuSans-73"/>
      <use x="208.109375" xlink:href="#DejaVuSans-73"/>
      <use x="237.601562" xlink:href="#DejaVuSans-95"/>
      <use x="287.601562" xlink:href="#DejaVuSans-68"/>
      <use x="364.603516" xlink:href="#DejaVuSans-56"/>
      <use x="428.226562" xlink:href="#DejaVuSans-66"/>
      <use x="496.830078" xlink:href="#DejaVuSans-69"/>
     </g>
    </g>
    <g id="line2d_59">
     <path d="M 189 308.885937 
L 209 308.885937 
" style="fill:none;stroke:#9467bd;stroke-linecap:square;stroke-width:1.5;"/>
    </g>
    <g id="line2d_60"/>
    <g id="text_29">
     <!-- PA_II_DA7A -->
     <g transform="translate(217 312.385937)scale(0.1 -0.1)">
      <use xlink:href="#DejaVuSans-80"/>
      <use x="60.208984" xlink:href="#DejaVuSans-65"/>
      <use x="128.617188" xlink:href="#DejaVuSans-95"/>
      <use x="178.617188" xlink:href="#DejaVuSans-73"/>
      <use x="208.109375" xlink:href="#DejaVuSans-73"/>
      <use x="237.601562" xlink:href="#DejaVuSans-95"/>
      <use x="287.601562" xlink:href="#DejaVuSans-68"/>
      <use x="364.587891" xlink:href="#DejaVuSans-65"/>
      <use x="432.996094" xlink:href="#DejaVuSans-55"/>
      <use x="496.619141" xlink:href="#DejaVuSans-65"/>
     </g>
    </g>
    <g id="line2d_61">
     <path d="M 189 323.842187 
L 209 323.842187 
" style="fill:none;stroke:#8c564b;stroke-linecap:square;stroke-width:1.5;"/>
    </g>
    <g id="line2d_62"/>
    <g id="text_30">
     <!-- PA_II_D44F -->
     <defs>
      <path d="M 9.8125 72.90625 
L 51.703125 72.90625 
L 51.703125 64.59375 
L 19.671875 64.59375 
L 19.671875 43.109375 
L 48.578125 43.109375 
L 48.578125 34.8125 
L 19.671875 34.8125 
L 19.671875 0 
L 9.8125 0 
z
" id="DejaVuSans-70"/>
     </defs>
     <g transform="translate(217 327.342187)scale(0.1 -0.1)">
      <use xlink:href="#DejaVuSans-80"/>
      <use x="60.208984" xlink:href="#DejaVuSans-65"/>
      <use x="128.617188" xlink:href="#DejaVuSans-95"/>
      <use x="178.617188" xlink:href="#DejaVuSans-73"/>
      <use x="208.109375" xlink:href="#DejaVuSans-73"/>
      <use x="237.601562" xlink:href="#DejaVuSans-95"/>
      <use x="287.601562" xlink:href="#DejaVuSans-68"/>
      <use x="364.603516" xlink:href="#DejaVuSans-52"/>
      <use x="428.226562" xlink:href="#DejaVuSans-52"/>
      <use x="491.849609" xlink:href="#DejaVuSans-70"/>
     </g>
    </g>
   </g>
  </g>
 </g>
 <defs>
  <clipPath id="p0a78e9e46f">
   <rect height="543.6" width="1116" x="180" y="86.4"/>
  </clipPath>
 </defs>
</svg>
