<?xml version="1.0" encoding="utf-8" standalone="no"?>
<!DOCTYPE svg PUBLIC "-//W3C//DTD SVG 1.1//EN"
  "http://www.w3.org/Graphics/SVG/1.1/DTD/svg11.dtd">
<!-- Created with matplotlib (https://matplotlib.org/) -->
<svg height="720pt" version="1.1" viewBox="0 0 1440 720" width="1440pt" xmlns="http://www.w3.org/2000/svg" xmlns:xlink="http://www.w3.org/1999/xlink">
 <defs>
  <style type="text/css">
*{stroke-linecap:butt;stroke-linejoin:round;}
  </style>
 </defs>
 <g id="figure_1">
  <g id="patch_1">
   <path d="M 0 720 
L 1440 720 
L 1440 0 
L 0 0 
z
" style="fill:#ffffff;"/>
  </g>
  <g id="axes_1">
   <g id="patch_2">
    <path d="M 180 576 
L 1296 576 
L 1296 86.4 
L 180 86.4 
z
" style="fill:#ffffff;"/>
   </g>
   <g id="matplotlib.axis_1">
    <g id="xtick_1">
     <g id="line2d_1">
      <defs>
       <path d="M 0 0 
L 0 3.5 
" id="m344b612023" style="stroke:#000000;stroke-width:0.8;"/>
      </defs>
      <g>
       <use style="stroke:#000000;stroke-width:0.8;" x="230.727273" xlink:href="#m344b612023" y="576"/>
      </g>
     </g>
     <g id="text_1">
      <!-- 03-02 00 -->
      <defs>
       <path d="M 31.78125 66.40625 
Q 24.171875 66.40625 20.328125 58.90625 
Q 16.5 51.421875 16.5 36.375 
Q 16.5 21.390625 20.328125 13.890625 
Q 24.171875 6.390625 31.78125 6.390625 
Q 39.453125 6.390625 43.28125 13.890625 
Q 47.125 21.390625 47.125 36.375 
Q 47.125 51.421875 43.28125 58.90625 
Q 39.453125 66.40625 31.78125 66.40625 
z
M 31.78125 74.21875 
Q 44.046875 74.21875 50.515625 64.515625 
Q 56.984375 54.828125 56.984375 36.375 
Q 56.984375 17.96875 50.515625 8.265625 
Q 44.046875 -1.421875 31.78125 -1.421875 
Q 19.53125 -1.421875 13.0625 8.265625 
Q 6.59375 17.96875 6.59375 36.375 
Q 6.59375 54.828125 13.0625 64.515625 
Q 19.53125 74.21875 31.78125 74.21875 
z
" id="DejaVuSans-48"/>
       <path d="M 40.578125 39.3125 
Q 47.65625 37.796875 51.625 33 
Q 55.609375 28.21875 55.609375 21.1875 
Q 55.609375 10.40625 48.1875 4.484375 
Q 40.765625 -1.421875 27.09375 -1.421875 
Q 22.515625 -1.421875 17.65625 -0.515625 
Q 12.796875 0.390625 7.625 2.203125 
L 7.625 11.71875 
Q 11.71875 9.328125 16.59375 8.109375 
Q 21.484375 6.890625 26.8125 6.890625 
Q 36.078125 6.890625 40.9375 10.546875 
Q 45.796875 14.203125 45.796875 21.1875 
Q 45.796875 27.640625 41.28125 31.265625 
Q 36.765625 34.90625 28.71875 34.90625 
L 20.21875 34.90625 
L 20.21875 43.015625 
L 29.109375 43.015625 
Q 36.375 43.015625 40.234375 45.921875 
Q 44.09375 48.828125 44.09375 54.296875 
Q 44.09375 59.90625 40.109375 62.90625 
Q 36.140625 65.921875 28.71875 65.921875 
Q 24.65625 65.921875 20.015625 65.03125 
Q 15.375 64.15625 9.8125 62.3125 
L 9.8125 71.09375 
Q 15.4375 72.65625 20.34375 73.4375 
Q 25.25 74.21875 29.59375 74.21875 
Q 40.828125 74.21875 47.359375 69.109375 
Q 53.90625 64.015625 53.90625 55.328125 
Q 53.90625 49.265625 50.4375 45.09375 
Q 46.96875 40.921875 40.578125 39.3125 
z
" id="DejaVuSans-51"/>
       <path d="M 4.890625 31.390625 
L 31.203125 31.390625 
L 31.203125 23.390625 
L 4.890625 23.390625 
z
" id="DejaVuSans-45"/>
       <path d="M 19.1875 8.296875 
L 53.609375 8.296875 
L 53.609375 0 
L 7.328125 0 
L 7.328125 8.296875 
Q 12.9375 14.109375 22.625 23.890625 
Q 32.328125 33.6875 34.8125 36.53125 
Q 39.546875 41.84375 41.421875 45.53125 
Q 43.3125 49.21875 43.3125 52.78125 
Q 43.3125 58.59375 39.234375 62.25 
Q 35.15625 65.921875 28.609375 65.921875 
Q 23.96875 65.921875 18.8125 64.3125 
Q 13.671875 62.703125 7.8125 59.421875 
L 7.8125 69.390625 
Q 13.765625 71.78125 18.9375 73 
Q 24.125 74.21875 28.421875 74.21875 
Q 39.75 74.21875 46.484375 68.546875 
Q 53.21875 62.890625 53.21875 53.421875 
Q 53.21875 48.921875 51.53125 44.890625 
Q 49.859375 40.875 45.40625 35.40625 
Q 44.1875 33.984375 37.640625 27.21875 
Q 31.109375 20.453125 19.1875 8.296875 
z
" id="DejaVuSans-50"/>
       <path id="DejaVuSans-32"/>
      </defs>
      <g transform="translate(190.750115 612.060909)rotate(-30)scale(0.1 -0.1)">
       <use xlink:href="#DejaVuSans-48"/>
       <use x="63.623047" xlink:href="#DejaVuSans-51"/>
       <use x="127.246094" xlink:href="#DejaVuSans-45"/>
       <use x="163.330078" xlink:href="#DejaVuSans-48"/>
       <use x="226.953125" xlink:href="#DejaVuSans-50"/>
       <use x="290.576172" xlink:href="#DejaVuSans-32"/>
       <use x="322.363281" xlink:href="#DejaVuSans-48"/>
       <use x="385.986328" xlink:href="#DejaVuSans-48"/>
      </g>
     </g>
    </g>
    <g id="xtick_2">
     <g id="line2d_2">
      <g>
       <use style="stroke:#000000;stroke-width:0.8;" x="360.243714" xlink:href="#m344b612023" y="576"/>
      </g>
     </g>
     <g id="text_2">
      <!-- 03-02 06 -->
      <defs>
       <path d="M 33.015625 40.375 
Q 26.375 40.375 22.484375 35.828125 
Q 18.609375 31.296875 18.609375 23.390625 
Q 18.609375 15.53125 22.484375 10.953125 
Q 26.375 6.390625 33.015625 6.390625 
Q 39.65625 6.390625 43.53125 10.953125 
Q 47.40625 15.53125 47.40625 23.390625 
Q 47.40625 31.296875 43.53125 35.828125 
Q 39.65625 40.375 33.015625 40.375 
z
M 52.59375 71.296875 
L 52.59375 62.3125 
Q 48.875 64.0625 45.09375 64.984375 
Q 41.3125 65.921875 37.59375 65.921875 
Q 27.828125 65.921875 22.671875 59.328125 
Q 17.53125 52.734375 16.796875 39.40625 
Q 19.671875 43.65625 24.015625 45.921875 
Q 28.375 48.1875 33.59375 48.1875 
Q 44.578125 48.1875 50.953125 41.515625 
Q 57.328125 34.859375 57.328125 23.390625 
Q 57.328125 12.15625 50.6875 5.359375 
Q 44.046875 -1.421875 33.015625 -1.421875 
Q 20.359375 -1.421875 13.671875 8.265625 
Q 6.984375 17.96875 6.984375 36.375 
Q 6.984375 53.65625 15.1875 63.9375 
Q 23.390625 74.21875 37.203125 74.21875 
Q 40.921875 74.21875 44.703125 73.484375 
Q 48.484375 72.75 52.59375 71.296875 
z
" id="DejaVuSans-54"/>
      </defs>
      <g transform="translate(320.266556 612.060909)rotate(-30)scale(0.1 -0.1)">
       <use xlink:href="#DejaVuSans-48"/>
       <use x="63.623047" xlink:href="#DejaVuSans-51"/>
       <use x="127.246094" xlink:href="#DejaVuSans-45"/>
       <use x="163.330078" xlink:href="#DejaVuSans-48"/>
       <use x="226.953125" xlink:href="#DejaVuSans-50"/>
       <use x="290.576172" xlink:href="#DejaVuSans-32"/>
       <use x="322.363281" xlink:href="#DejaVuSans-48"/>
       <use x="385.986328" xlink:href="#DejaVuSans-54"/>
      </g>
     </g>
    </g>
    <g id="xtick_3">
     <g id="line2d_3">
      <g>
       <use style="stroke:#000000;stroke-width:0.8;" x="489.760155" xlink:href="#m344b612023" y="576"/>
      </g>
     </g>
     <g id="text_3">
      <!-- 03-02 12 -->
      <defs>
       <path d="M 12.40625 8.296875 
L 28.515625 8.296875 
L 28.515625 63.921875 
L 10.984375 60.40625 
L 10.984375 69.390625 
L 28.421875 72.90625 
L 38.28125 72.90625 
L 38.28125 8.296875 
L 54.390625 8.296875 
L 54.390625 0 
L 12.40625 0 
z
" id="DejaVuSans-49"/>
      </defs>
      <g transform="translate(449.782997 612.060909)rotate(-30)scale(0.1 -0.1)">
       <use xlink:href="#DejaVuSans-48"/>
       <use x="63.623047" xlink:href="#DejaVuSans-51"/>
       <use x="127.246094" xlink:href="#DejaVuSans-45"/>
       <use x="163.330078" xlink:href="#DejaVuSans-48"/>
       <use x="226.953125" xlink:href="#DejaVuSans-50"/>
       <use x="290.576172" xlink:href="#DejaVuSans-32"/>
       <use x="322.363281" xlink:href="#DejaVuSans-49"/>
       <use x="385.986328" xlink:href="#DejaVuSans-50"/>
      </g>
     </g>
    </g>
    <g id="xtick_4">
     <g id="line2d_4">
      <g>
       <use style="stroke:#000000;stroke-width:0.8;" x="619.276596" xlink:href="#m344b612023" y="576"/>
      </g>
     </g>
     <g id="text_4">
      <!-- 03-02 18 -->
      <defs>
       <path d="M 31.78125 34.625 
Q 24.75 34.625 20.71875 30.859375 
Q 16.703125 27.09375 16.703125 20.515625 
Q 16.703125 13.921875 20.71875 10.15625 
Q 24.75 6.390625 31.78125 6.390625 
Q 38.8125 6.390625 42.859375 10.171875 
Q 46.921875 13.96875 46.921875 20.515625 
Q 46.921875 27.09375 42.890625 30.859375 
Q 38.875 34.625 31.78125 34.625 
z
M 21.921875 38.8125 
Q 15.578125 40.375 12.03125 44.71875 
Q 8.5 49.078125 8.5 55.328125 
Q 8.5 64.0625 14.71875 69.140625 
Q 20.953125 74.21875 31.78125 74.21875 
Q 42.671875 74.21875 48.875 69.140625 
Q 55.078125 64.0625 55.078125 55.328125 
Q 55.078125 49.078125 51.53125 44.71875 
Q 48 40.375 41.703125 38.8125 
Q 48.828125 37.15625 52.796875 32.3125 
Q 56.78125 27.484375 56.78125 20.515625 
Q 56.78125 9.90625 50.3125 4.234375 
Q 43.84375 -1.421875 31.78125 -1.421875 
Q 19.734375 -1.421875 13.25 4.234375 
Q 6.78125 9.90625 6.78125 20.515625 
Q 6.78125 27.484375 10.78125 32.3125 
Q 14.796875 37.15625 21.921875 38.8125 
z
M 18.3125 54.390625 
Q 18.3125 48.734375 21.84375 45.5625 
Q 25.390625 42.390625 31.78125 42.390625 
Q 38.140625 42.390625 41.71875 45.5625 
Q 45.3125 48.734375 45.3125 54.390625 
Q 45.3125 60.0625 41.71875 63.234375 
Q 38.140625 66.40625 31.78125 66.40625 
Q 25.390625 66.40625 21.84375 63.234375 
Q 18.3125 60.0625 18.3125 54.390625 
z
" id="DejaVuSans-56"/>
      </defs>
      <g transform="translate(579.299438 612.060909)rotate(-30)scale(0.1 -0.1)">
       <use xlink:href="#DejaVuSans-48"/>
       <use x="63.623047" xlink:href="#DejaVuSans-51"/>
       <use x="127.246094" xlink:href="#DejaVuSans-45"/>
       <use x="163.330078" xlink:href="#DejaVuSans-48"/>
       <use x="226.953125" xlink:href="#DejaVuSans-50"/>
       <use x="290.576172" xlink:href="#DejaVuSans-32"/>
       <use x="322.363281" xlink:href="#DejaVuSans-49"/>
       <use x="385.986328" xlink:href="#DejaVuSans-56"/>
      </g>
     </g>
    </g>
    <g id="xtick_5">
     <g id="line2d_5">
      <g>
       <use style="stroke:#000000;stroke-width:0.8;" x="748.793037" xlink:href="#m344b612023" y="576"/>
      </g>
     </g>
     <g id="text_5">
      <!-- 03-03 00 -->
      <g transform="translate(708.815879 612.060909)rotate(-30)scale(0.1 -0.1)">
       <use xlink:href="#DejaVuSans-48"/>
       <use x="63.623047" xlink:href="#DejaVuSans-51"/>
       <use x="127.246094" xlink:href="#DejaVuSans-45"/>
       <use x="163.330078" xlink:href="#DejaVuSans-48"/>
       <use x="226.953125" xlink:href="#DejaVuSans-51"/>
       <use x="290.576172" xlink:href="#DejaVuSans-32"/>
       <use x="322.363281" xlink:href="#DejaVuSans-48"/>
       <use x="385.986328" xlink:href="#DejaVuSans-48"/>
      </g>
     </g>
    </g>
    <g id="xtick_6">
     <g id="line2d_6">
      <g>
       <use style="stroke:#000000;stroke-width:0.8;" x="878.309478" xlink:href="#m344b612023" y="576"/>
      </g>
     </g>
     <g id="text_6">
      <!-- 03-03 06 -->
      <g transform="translate(838.33232 612.060909)rotate(-30)scale(0.1 -0.1)">
       <use xlink:href="#DejaVuSans-48"/>
       <use x="63.623047" xlink:href="#DejaVuSans-51"/>
       <use x="127.246094" xlink:href="#DejaVuSans-45"/>
       <use x="163.330078" xlink:href="#DejaVuSans-48"/>
       <use x="226.953125" xlink:href="#DejaVuSans-51"/>
       <use x="290.576172" xlink:href="#DejaVuSans-32"/>
       <use x="322.363281" xlink:href="#DejaVuSans-48"/>
       <use x="385.986328" xlink:href="#DejaVuSans-54"/>
      </g>
     </g>
    </g>
    <g id="xtick_7">
     <g id="line2d_7">
      <g>
       <use style="stroke:#000000;stroke-width:0.8;" x="1007.825919" xlink:href="#m344b612023" y="576"/>
      </g>
     </g>
     <g id="text_7">
      <!-- 03-03 12 -->
      <g transform="translate(967.848761 612.060909)rotate(-30)scale(0.1 -0.1)">
       <use xlink:href="#DejaVuSans-48"/>
       <use x="63.623047" xlink:href="#DejaVuSans-51"/>
       <use x="127.246094" xlink:href="#DejaVuSans-45"/>
       <use x="163.330078" xlink:href="#DejaVuSans-48"/>
       <use x="226.953125" xlink:href="#DejaVuSans-51"/>
       <use x="290.576172" xlink:href="#DejaVuSans-32"/>
       <use x="322.363281" xlink:href="#DejaVuSans-49"/>
       <use x="385.986328" xlink:href="#DejaVuSans-50"/>
      </g>
     </g>
    </g>
    <g id="xtick_8">
     <g id="line2d_8">
      <g>
       <use style="stroke:#000000;stroke-width:0.8;" x="1137.34236" xlink:href="#m344b612023" y="576"/>
      </g>
     </g>
     <g id="text_8">
      <!-- 03-03 18 -->
      <g transform="translate(1097.365202 612.060909)rotate(-30)scale(0.1 -0.1)">
       <use xlink:href="#DejaVuSans-48"/>
       <use x="63.623047" xlink:href="#DejaVuSans-51"/>
       <use x="127.246094" xlink:href="#DejaVuSans-45"/>
       <use x="163.330078" xlink:href="#DejaVuSans-48"/>
       <use x="226.953125" xlink:href="#DejaVuSans-51"/>
       <use x="290.576172" xlink:href="#DejaVuSans-32"/>
       <use x="322.363281" xlink:href="#DejaVuSans-49"/>
       <use x="385.986328" xlink:href="#DejaVuSans-56"/>
      </g>
     </g>
    </g>
    <g id="xtick_9">
     <g id="line2d_9">
      <g>
       <use style="stroke:#000000;stroke-width:0.8;" x="1266.858801" xlink:href="#m344b612023" y="576"/>
      </g>
     </g>
     <g id="text_9">
      <!-- 03-04 00 -->
      <defs>
       <path d="M 37.796875 64.3125 
L 12.890625 25.390625 
L 37.796875 25.390625 
z
M 35.203125 72.90625 
L 47.609375 72.90625 
L 47.609375 25.390625 
L 58.015625 25.390625 
L 58.015625 17.1875 
L 47.609375 17.1875 
L 47.609375 0 
L 37.796875 0 
L 37.796875 17.1875 
L 4.890625 17.1875 
L 4.890625 26.703125 
z
" id="DejaVuSans-52"/>
      </defs>
      <g transform="translate(1226.881643 612.060909)rotate(-30)scale(0.1 -0.1)">
       <use xlink:href="#DejaVuSans-48"/>
       <use x="63.623047" xlink:href="#DejaVuSans-51"/>
       <use x="127.246094" xlink:href="#DejaVuSans-45"/>
       <use x="163.330078" xlink:href="#DejaVuSans-48"/>
       <use x="226.953125" xlink:href="#DejaVuSans-52"/>
       <use x="290.576172" xlink:href="#DejaVuSans-32"/>
       <use x="322.363281" xlink:href="#DejaVuSans-48"/>
       <use x="385.986328" xlink:href="#DejaVuSans-48"/>
      </g>
     </g>
    </g>
   </g>
   <g id="matplotlib.axis_2">
    <g id="ytick_1">
     <g id="line2d_10">
      <defs>
       <path d="M 0 0 
L -3.5 0 
" id="m0e8e32b4f0" style="stroke:#000000;stroke-width:0.8;"/>
      </defs>
      <g>
       <use style="stroke:#000000;stroke-width:0.8;" x="180" xlink:href="#m0e8e32b4f0" y="558.186382"/>
      </g>
     </g>
     <g id="text_10">
      <!-- 5 -->
      <defs>
       <path d="M 10.796875 72.90625 
L 49.515625 72.90625 
L 49.515625 64.59375 
L 19.828125 64.59375 
L 19.828125 46.734375 
Q 21.96875 47.46875 24.109375 47.828125 
Q 26.265625 48.1875 28.421875 48.1875 
Q 40.625 48.1875 47.75 41.5 
Q 54.890625 34.8125 54.890625 23.390625 
Q 54.890625 11.625 47.5625 5.09375 
Q 40.234375 -1.421875 26.90625 -1.421875 
Q 22.3125 -1.421875 17.546875 -0.640625 
Q 12.796875 0.140625 7.71875 1.703125 
L 7.71875 11.625 
Q 12.109375 9.234375 16.796875 8.0625 
Q 21.484375 6.890625 26.703125 6.890625 
Q 35.15625 6.890625 40.078125 11.328125 
Q 45.015625 15.765625 45.015625 23.390625 
Q 45.015625 31 40.078125 35.4375 
Q 35.15625 39.890625 26.703125 39.890625 
Q 22.75 39.890625 18.8125 39.015625 
Q 14.890625 38.140625 10.796875 36.28125 
z
" id="DejaVuSans-53"/>
      </defs>
      <g transform="translate(166.6375 561.985601)scale(0.1 -0.1)">
       <use xlink:href="#DejaVuSans-53"/>
      </g>
     </g>
    </g>
    <g id="ytick_2">
     <g id="line2d_11">
      <g>
       <use style="stroke:#000000;stroke-width:0.8;" x="180" xlink:href="#m0e8e32b4f0" y="488.869097"/>
      </g>
     </g>
     <g id="text_11">
      <!-- 10 -->
      <g transform="translate(160.275 492.668316)scale(0.1 -0.1)">
       <use xlink:href="#DejaVuSans-49"/>
       <use x="63.623047" xlink:href="#DejaVuSans-48"/>
      </g>
     </g>
    </g>
    <g id="ytick_3">
     <g id="line2d_12">
      <g>
       <use style="stroke:#000000;stroke-width:0.8;" x="180" xlink:href="#m0e8e32b4f0" y="419.551812"/>
      </g>
     </g>
     <g id="text_12">
      <!-- 15 -->
      <g transform="translate(160.275 423.35103)scale(0.1 -0.1)">
       <use xlink:href="#DejaVuSans-49"/>
       <use x="63.623047" xlink:href="#DejaVuSans-53"/>
      </g>
     </g>
    </g>
    <g id="ytick_4">
     <g id="line2d_13">
      <g>
       <use style="stroke:#000000;stroke-width:0.8;" x="180" xlink:href="#m0e8e32b4f0" y="350.234527"/>
      </g>
     </g>
     <g id="text_13">
      <!-- 20 -->
      <g transform="translate(160.275 354.033745)scale(0.1 -0.1)">
       <use xlink:href="#DejaVuSans-50"/>
       <use x="63.623047" xlink:href="#DejaVuSans-48"/>
      </g>
     </g>
    </g>
    <g id="ytick_5">
     <g id="line2d_14">
      <g>
       <use style="stroke:#000000;stroke-width:0.8;" x="180" xlink:href="#m0e8e32b4f0" y="280.917241"/>
      </g>
     </g>
     <g id="text_14">
      <!-- 25 -->
      <g transform="translate(160.275 284.71646)scale(0.1 -0.1)">
       <use xlink:href="#DejaVuSans-50"/>
       <use x="63.623047" xlink:href="#DejaVuSans-53"/>
      </g>
     </g>
    </g>
    <g id="ytick_6">
     <g id="line2d_15">
      <g>
       <use style="stroke:#000000;stroke-width:0.8;" x="180" xlink:href="#m0e8e32b4f0" y="211.599956"/>
      </g>
     </g>
     <g id="text_15">
      <!-- 30 -->
      <g transform="translate(160.275 215.399175)scale(0.1 -0.1)">
       <use xlink:href="#DejaVuSans-51"/>
       <use x="63.623047" xlink:href="#DejaVuSans-48"/>
      </g>
     </g>
    </g>
    <g id="ytick_7">
     <g id="line2d_16">
      <g>
       <use style="stroke:#000000;stroke-width:0.8;" x="180" xlink:href="#m0e8e32b4f0" y="142.282671"/>
      </g>
     </g>
     <g id="text_16">
      <!-- 35 -->
      <g transform="translate(160.275 146.08189)scale(0.1 -0.1)">
       <use xlink:href="#DejaVuSans-51"/>
       <use x="63.623047" xlink:href="#DejaVuSans-53"/>
      </g>
     </g>
    </g>
   </g>
   <g id="line2d_17">
    <path clip-path="url(#p9084d32d50)" d="M 230.727273 492.053071 
L 252.313346 518.291974 
L 273.89942 516.817826 
L 295.485493 529.216378 
L 317.071567 538.906934 
L 338.65764 519.364081 
L 360.243714 482.783039 
L 381.829787 465.107131 
L 403.415861 441.127972 
L 425.001934 410.457384 
L 446.588008 369.888287 
L 468.174081 348.598639 
L 489.760155 327.937466 
L 511.346228 278.578938 
L 532.932302 269.133303 
L 554.518375 265.464108 
L 576.104449 263.74966 
L 597.690522 307.872423 
L 619.276596 340.719574 
L 640.862669 362.194069 
L 662.448743 356.805805 
L 684.034816 361.001811 
L 705.62089 343.307419 
L 727.206963 335.895751 
L 748.793037 337.868323 
L 770.37911 319.355987 
L 791.965184 268.463236 
L 813.551257 274.69717 
L 835.137331 276.813658 
L 856.723404 299.575542 
L 878.309478 293.976618 
L 899.895551 296.809384 
L 921.481625 299.212383 
L 943.067698 289.096681 
L 964.653772 286.596638 
L 986.239845 243.712344 
L 1007.825919 213.642506 
L 1029.411992 196.928594 
L 1050.998066 177.588275 
L 1072.584139 148.961033 
L 1094.170213 175.365501 
L 1115.756286 233.448764 
L 1137.34236 260.038875 
L 1158.928433 275.237845 
L 1180.514507 253.375173 
L 1202.10058 273.135221 
L 1223.686654 258.264353 
L 1245.272727 262.714522 
" style="fill:none;stroke:#1f77b4;stroke-linecap:square;stroke-width:1.5;"/>
   </g>
   <g id="line2d_18">
    <path clip-path="url(#p9084d32d50)" d="M 230.727273 500.754701 
L 252.313346 517.59418 
L 273.89942 519.814313 
L 295.485493 532.867088 
L 317.071567 543.458769 
L 338.65764 529.489026 
L 360.243714 491.9283 
L 381.829787 474.150727 
L 403.415861 449.630892 
L 425.001934 418.216299 
L 446.588008 381.099203 
L 468.174081 360.987948 
L 489.760155 347.614811 
L 511.346228 315.80232 
L 532.932302 297.077411 
L 554.518375 276.982152 
L 576.104449 298.352849 
L 597.690522 338.575359 
L 619.276596 359.074791 
L 640.862669 375.054736 
L 662.448743 375.253445 
L 684.034816 378.11856 
L 705.62089 368.913224 
L 727.206963 356.486946 
L 748.793037 339.208457 
L 770.37911 317.401239 
L 791.965184 266.221977 
L 813.551257 291.689147 
L 835.137331 294.549641 
L 856.723404 308.011058 
L 878.309478 305.219882 
L 899.895551 306.278125 
L 921.481625 300.034949 
L 943.067698 289.45251 
L 964.653772 283.070698 
L 986.239845 258.481547 
L 1007.825919 222.316408 
L 1029.411992 213.8597 
L 1050.998066 191.091282 
L 1072.584139 161.386515 
L 1094.170213 184.478413 
L 1115.756286 250.334455 
L 1137.34236 286.36558 
L 1158.928433 299.859345 
L 1180.514507 286.009751 
L 1202.10058 314.605442 
L 1223.686654 285.658544 
L 1245.272727 286.809211 
" style="fill:none;stroke:#ff7f0e;stroke-linecap:square;stroke-width:1.5;"/>
   </g>
   <g id="line2d_19">
    <path clip-path="url(#p9084d32d50)" d="M 230.727273 472.51946 
L 252.313346 506.20766 
L 273.89942 494.021682 
L 295.485493 513.365825 
L 317.071567 520.708836 
L 338.65764 504.830557 
L 360.243714 456.058915 
L 381.829787 431.312644 
L 403.415861 397.185434 
L 425.001934 357.295647 
L 446.588008 309.536038 
L 468.174081 306.130249 
L 489.760155 283.768492 
L 511.346228 256.716267 
L 532.932302 230.643725 
L 554.518375 240.297312 
L 576.104449 253.874258 
L 597.690522 303.759597 
L 619.276596 315.515809 
L 640.862669 326.061279 
L 662.448743 344.684523 
L 684.034816 339.929357 
L 705.62089 328.325643 
L 727.206963 302.576582 
L 748.793037 264.937297 
L 770.37911 237.131823 
L 791.965184 208.619313 
L 813.551257 226.359917 
L 835.137331 217.385639 
L 856.723404 239.654972 
L 878.309478 246.979499 
L 899.895551 238.490442 
L 921.481625 224.696302 
L 943.067698 210.167399 
L 964.653772 199.82526 
L 986.239845 181.33603 
L 1007.825919 162.172111 
L 1029.411992 148.230094 
L 1050.998066 129.241779 
L 1072.584139 108.654545 
L 1094.170213 155.887344 
L 1115.756286 201.659858 
L 1137.34236 245.057099 
L 1158.928433 241.295481 
L 1180.514507 237.034779 
L 1202.10058 246.840864 
L 1223.686654 227.071574 
L 1245.272727 222.150047 
" style="fill:none;stroke:#2ca02c;stroke-linecap:square;stroke-width:1.5;"/>
   </g>
   <g id="line2d_20">
    <path clip-path="url(#p9084d32d50)" d="M 230.727273 500.283343 
L 252.313346 512.843635 
L 273.89942 505.223355 
L 295.485493 527.187692 
L 317.071567 533.828288 
L 338.65764 524.262503 
L 360.243714 487.889413 
L 381.829787 466.253177 
L 403.415861 435.051157 
L 425.001934 402.809377 
L 446.588008 366.805006 
L 468.174081 349.04689 
L 489.760155 321.763607 
L 511.346228 272.284929 
L 532.932302 264.179428 
L 554.518375 259.946452 
L 576.104449 279.743469 
L 597.690522 326.26923 
L 619.276596 342.110541 
L 640.862669 357.817837 
L 662.448743 370.673883 
L 684.034816 356.218919 
L 705.62089 348.173493 
L 727.206963 329.966152 
L 748.793037 306.860391 
L 770.37911 290.654009 
L 791.965184 232.894226 
L 813.551257 257.940872 
L 835.137331 255.819763 
L 856.723404 277.14176 
L 878.309478 283.773114 
L 899.895551 281.217616 
L 921.481625 278.930146 
L 943.067698 276.448587 
L 964.653772 251.092324 
L 986.239845 207.963109 
L 1007.825919 186.248314 
L 1029.411992 182.897979 
L 1050.998066 159.399419 
L 1072.584139 127.753768 
L 1094.170213 177.676077 
L 1115.756286 218.614865 
L 1137.34236 253.541535 
L 1158.928433 260.159025 
L 1180.514507 247.603354 
L 1202.10058 275.117695 
L 1223.686654 255.459313 
L 1245.272727 254.780004 
" style="fill:none;stroke:#d62728;stroke-linecap:square;stroke-width:1.5;"/>
   </g>
   <g id="line2d_21">
    <path clip-path="url(#p9084d32d50)" d="M 230.727273 498.116023 
L 252.313346 499.317522 
L 273.89942 516.956461 
L 295.485493 530.279243 
L 317.071567 537.788616 
L 338.65764 524.650679 
L 360.243714 492.413521 
L 381.829787 469.19223 
L 403.415861 431.201737 
L 425.001934 396.062494 
L 446.588008 362.905726 
L 468.174081 345.608753 
L 489.760155 321.948453 
L 511.346228 282.622447 
L 532.932302 275.519735 
L 554.518375 268.883761 
L 576.104449 289.249179 
L 597.690522 330.428268 
L 619.276596 341.792159 
L 640.862669 375.539957 
L 662.448743 378.377344 
L 684.034816 369.273674 
L 705.62089 358.51101 
L 727.206963 338.903461 
L 748.793037 316.063495 
L 770.37911 266.212735 
L 791.965184 242.843567 
L 813.551257 268.823686 
L 835.137331 269.193378 
L 856.723404 288.375781 
L 878.309478 303.828915 
L 899.895551 296.305679 
L 921.481625 283.763871 
L 943.067698 278.870071 
L 964.653772 279.433851 
L 986.239845 218.864408 
L 1007.825919 194.557146 
L 1029.411992 194.996156 
L 1050.998066 169.653756 
L 1072.584139 150.642336 
L 1094.170213 186.51172 
L 1115.756286 245.334368 
L 1137.34236 278.343259 
L 1158.928433 286.194597 
L 1180.514507 282.659416 
L 1202.10058 299.887072 
L 1223.686654 265.505698 
L 1245.272727 267.612944 
" style="fill:none;stroke:#9467bd;stroke-linecap:square;stroke-width:1.5;"/>
   </g>
   <g id="line2d_22">
    <path clip-path="url(#p9084d32d50)" d="M 230.727273 493.481007 
L 252.313346 518.592349 
L 273.89942 515.376027 
L 295.485493 531.748769 
L 317.071567 535.695233 
L 338.65764 522.293892 
L 360.243714 480.306102 
L 381.829787 465.980529 
L 403.415861 430.758106 
L 425.001934 394.435849 
L 446.588008 365.419633 
L 468.174081 339.957084 
L 489.760155 335.45146 
L 511.346228 306.079416 
L 532.932302 281.864578 
L 554.518375 276.448587 
L 576.104449 289.156756 
L 597.690522 337.595675 
L 619.276596 354.638485 
L 640.862669 370.17942 
L 662.448743 370.526006 
L 684.034816 361.274459 
L 705.62089 354.296519 
L 727.206963 338.140971 
L 748.793037 335.174191 
L 770.37911 327.747999 
L 791.965184 267.220146 
L 813.551257 283.121531 
L 835.137331 286.176113 
L 856.723404 305.566468 
L 878.309478 296.629159 
L 899.895551 290.843477 
L 921.481625 288.44972 
L 943.067698 281.790639 
L 964.653772 270.473437 
L 986.239845 253.795698 
L 1007.825919 221.52157 
L 1029.411992 209.076807 
L 1050.998066 182.856389 
L 1072.584139 169.644514 
L 1094.170213 189.228958 
L 1115.756286 259.516685 
L 1137.34236 280.473611 
L 1158.928433 289.434025 
L 1180.514507 279.054917 
L 1202.10058 302.225375 
L 1223.686654 275.103832 
L 1245.272727 277.349712 
" style="fill:none;stroke:#8c564b;stroke-linecap:square;stroke-width:1.5;"/>
   </g>
   <g id="line2d_23">
    <path clip-path="url(#p9084d32d50)" d="M 230.727273 489.104776 
L 252.313346 513.721654 
L 273.89942 512.002585 
L 295.485493 522.765249 
L 317.071567 534.415174 
L 338.65764 520.149677 
L 360.243714 477.681287 
L 381.829787 459.24751 
L 403.415861 424.343947 
L 425.001934 393.88131 
L 446.588008 357.702309 
L 468.174081 336.421902 
L 489.760155 316.430797 
L 511.346228 285.233398 
L 532.932302 258.236626 
L 554.518375 260.168267 
L 576.104449 272.682348 
L 597.690522 318.547285 
L 619.276596 330.460616 
L 640.862669 353.566377 
L 662.448743 348.104175 
L 684.034816 342.882273 
L 705.62089 334.28693 
L 727.206963 316.278299 
L 748.793037 309.94732 
L 770.37911 285.0809 
L 791.965184 231.942269 
L 813.551257 253.772592 
L 835.137331 257.261563 
L 856.723404 275.880185 
L 878.309478 280.954211 
L 899.895551 281.425568 
L 921.481625 275.334889 
L 943.067698 266.064858 
L 964.653772 260.585765 
L 986.239845 235.814794 
L 1007.825919 197.731878 
L 1029.411992 191.179084 
L 1050.998066 162.966949 
L 1072.584139 130.900773 
L 1094.170213 170.342308 
L 1115.756286 229.289727 
L 1137.34236 259.493579 
L 1158.928433 266.360611 
L 1180.514507 259.396535 
L 1202.10058 278.218488 
L 1223.686654 256.554526 
L 1245.272727 256.540663 
" style="fill:none;stroke:#e377c2;stroke-linecap:square;stroke-width:1.5;"/>
   </g>
   <g id="line2d_24">
    <path clip-path="url(#p9084d32d50)" d="M 230.727273 491.410731 
L 252.313346 512.686516 
L 273.89942 511.253959 
L 295.485493 523.398347 
L 317.071567 531.443773 
L 338.65764 519.756879 
L 360.243714 488.00032 
L 381.829787 468.291105 
L 403.415861 434.478134 
L 425.001934 397.374902 
L 446.588008 360.733785 
L 468.174081 338.381271 
L 489.760155 326.287715 
L 511.346228 291.823161 
L 532.932302 268.472478 
L 554.518375 272.252581 
L 576.104449 278.463409 
L 597.690522 332.517028 
L 619.276596 347.203051 
L 640.862669 375.304278 
L 662.448743 379.299981 
L 684.034816 378.548327 
L 705.62089 373.529755 
L 727.206963 339.596634 
L 748.793037 315.88088 
L 770.37911 297.502557 
L 791.965184 252.413974 
L 813.551257 274.156495 
L 835.137331 270.935552 
L 856.723404 286.453382 
L 878.309478 308.62105 
L 899.895551 302.779913 
L 921.481625 287.419203 
L 943.067698 284.013413 
L 964.653772 279.567865 
L 986.239845 247.50631 
L 1007.825919 209.885509 
L 1029.411992 198.586791 
L 1050.998066 190.684621 
L 1072.584139 151.284676 
L 1094.170213 196.57659 
L 1115.756286 259.960315 
L 1137.34236 284.055004 
L 1158.928433 289.683567 
L 1180.514507 284.909917 
L 1202.10058 301.989696 
L 1223.686654 275.695339 
L 1245.272727 262.252407 
" style="fill:none;stroke:#7f7f7f;stroke-linecap:square;stroke-width:1.5;"/>
   </g>
   <g id="line2d_25">
    <path clip-path="url(#p9084d32d50)" d="M 230.727273 483.014097 
L 252.313346 503.67989 
L 273.89942 500.546749 
L 295.485493 517.862207 
L 317.071567 521.036938 
L 338.65764 505.28343 
L 360.243714 475.708055 
L 381.829787 457.496094 
L 403.415861 415.448228 
L 425.001934 382.111235 
L 446.588008 351.070955 
L 468.174081 328.025268 
L 489.760155 311.065639 
L 511.346228 279.133477 
L 532.932302 252.15981 
L 554.518375 248.10706 
L 576.104449 243.079246 
L 597.690522 307.636744 
L 619.276596 322.308903 
L 640.862669 347.545016 
L 662.448743 341.403504 
L 684.034816 324.758114 
L 705.62089 319.619392 
L 727.206963 319.563938 
L 748.793037 319.628635 
L 770.37911 313.163642 
L 791.965184 255.5656 
L 813.551257 268.717399 
L 835.137331 280.02998 
L 856.723404 293.163295 
L 878.309478 278.375608 
L 899.895551 271.425394 
L 921.481625 267.742336 
L 943.067698 263.703449 
L 964.653772 277.659329 
L 986.239845 253.245781 
L 1007.825919 220.35704 
L 1029.411992 209.136882 
L 1050.998066 189.15964 
L 1072.584139 164.408748 
L 1094.170213 182.976539 
L 1115.756286 240.773291 
L 1137.34236 278.800754 
L 1158.928433 290.65863 
L 1180.514507 275.441176 
L 1202.10058 292.34073 
L 1223.686654 265.320852 
L 1245.272727 265.325473 
" style="fill:none;stroke:#bcbd22;stroke-linecap:square;stroke-width:1.5;"/>
   </g>
   <g id="line2d_26">
    <path clip-path="url(#p9084d32d50)" d="M 230.727273 502.977475 
L 252.313346 513.934227 
L 273.89942 509.664282 
L 295.485493 528.250557 
L 317.071567 532.294065 
L 338.65764 519.498095 
L 360.243714 484.081583 
L 381.829787 463.591393 
L 403.415861 429.316307 
L 425.001934 395.909996 
L 446.588008 361.371504 
L 468.174081 343.626279 
L 489.760155 312.766223 
L 511.346228 273.768319 
L 532.932302 264.877222 
L 554.518375 259.964937 
L 576.104449 279.133477 
L 597.690522 321.583382 
L 619.276596 342.706669 
L 640.862669 362.813303 
L 662.448743 363.261555 
L 684.034816 356.14498 
L 705.62089 348.131902 
L 727.206963 333.894132 
L 748.793037 319.014021 
L 770.37911 287.058753 
L 791.965184 246.859349 
L 813.551257 265.893875 
L 835.137331 260.200615 
L 856.723404 279.373776 
L 878.309478 278.236973 
L 899.895551 289.221452 
L 921.481625 281.601172 
L 943.067698 277.941219 
L 964.653772 258.315185 
L 986.239845 214.469692 
L 1007.825919 192.195738 
L 1029.411992 184.940528 
L 1050.998066 165.411539 
L 1072.584139 135.697529 
L 1094.170213 178.623413 
L 1115.756286 228.254589 
L 1137.34236 267.862486 
L 1158.928433 265.764483 
L 1180.514507 264.692375 
L 1202.10058 294.189191 
L 1223.686654 268.393919 
L 1245.272727 264.290335 
" style="fill:none;stroke:#17becf;stroke-linecap:square;stroke-width:1.5;"/>
   </g>
   <g id="line2d_27">
    <path clip-path="url(#p9084d32d50)" d="M 230.727273 500.080012 
L 252.313346 523.199638 
L 273.89942 524.641437 
L 295.485493 544.161185 
L 317.071567 553.745455 
L 338.65764 540.524338 
L 360.243714 516.656086 
L 381.829787 495.518935 
L 403.415861 459.390766 
L 425.001934 413.327119 
L 446.588008 363.36322 
L 468.174081 349.347265 
L 489.760155 334.670485 
L 511.346228 311.560103 
L 532.932302 294.836152 
L 554.518375 295.778867 
L 576.104449 311.10723 
L 597.690522 376.99562 
L 619.276596 379.985505 
L 640.862669 397.629065 
L 662.448743 405.512751 
L 684.034816 403.350052 
L 705.62089 382.101993 
L 727.206963 350.419373 
L 748.793037 312.183958 
L 770.37911 293.167916 
L 791.965184 245.833453 
L 813.551257 271.628725 
L 835.137331 258.430714 
L 856.723404 289.022743 
L 878.309478 344.550509 
L 899.895551 320.506653 
L 921.481625 294.124495 
L 943.067698 278.10296 
L 964.653772 274.443007 
L 986.239845 218.956831 
L 1007.825919 198.175509 
L 1029.411992 186.849064 
L 1050.998066 170.536396 
L 1072.584139 137.54599 
L 1094.170213 192.921258 
L 1115.756286 239.386945 
L 1137.34236 279.618698 
L 1158.928433 284.734313 
L 1180.514507 269.780264 
L 1202.10058 302.747565 
L 1223.686654 275.949503 
L 1245.272727 262.483465 
" style="fill:none;stroke:#1f77b4;stroke-linecap:square;stroke-width:1.5;"/>
   </g>
   <g id="line2d_28">
    <path clip-path="url(#p9084d32d50)" d="M 230.727273 494.700991 
L 252.313346 509.345423 
L 273.89942 511.928647 
L 295.485493 526.998225 
L 317.071567 534.992818 
L 338.65764 517.718951 
L 360.243714 478.429914 
L 381.829787 458.609791 
L 403.415861 427.056563 
L 425.001934 393.543966 
L 446.588008 357.397313 
L 468.174081 337.567948 
L 489.760155 322.489128 
L 511.346228 288.343433 
L 532.932302 263.911401 
L 554.518375 261.457569 
L 576.104449 280.806334 
L 597.690522 321.925347 
L 619.276596 339.287017 
L 640.862669 361.348398 
L 662.448743 364.139574 
L 684.034816 357.822459 
L 705.62089 346.306547 
L 727.206963 326.477182 
L 748.793037 315.090663 
L 770.37911 301.134783 
L 791.965184 250.121882 
L 813.551257 267.663776 
L 835.137331 267.742336 
L 856.723404 285.344305 
L 878.309478 284.817494 
L 899.895551 290.903552 
L 921.481625 283.634479 
L 943.067698 276.832143 
L 964.653772 264.244124 
L 986.239845 228.125197 
L 1007.825919 199.330797 
L 1029.411992 197.852028 
L 1050.998066 181.876704 
L 1072.584139 152.800414 
L 1094.170213 195.675465 
L 1115.756286 246.845485 
L 1137.34236 267.039921 
L 1158.928433 264.433591 
L 1180.514507 271.656452 
L 1202.10058 291.250138 
L 1223.686654 269.355118 
L 1245.272727 261.157194 
" style="fill:none;stroke:#ff7f0e;stroke-linecap:square;stroke-width:1.5;"/>
   </g>
   <g id="line2d_29">
    <path clip-path="url(#p9084d32d50)" d="M 230.727273 499.215857 
L 252.313346 513.837183 
L 273.89942 511.725316 
L 295.485493 522.945474 
L 317.071567 528.846686 
L 338.65764 517.691224 
L 360.243714 479.220131 
L 381.829787 453.447964 
L 403.415861 425.845821 
L 425.001934 387.712072 
L 446.588008 357.291026 
L 468.174081 352.355635 
L 489.760155 332.461575 
L 511.346228 293.588441 
L 532.932302 264.844874 
L 554.518375 273.967028 
L 576.104449 280.339597 
L 597.690522 325.571436 
L 619.276596 336.65296 
L 640.862669 359.966673 
L 662.448743 363.344736 
L 684.034816 357.092317 
L 705.62089 351.334361 
L 727.206963 339.055959 
L 748.793037 268.139755 
L 770.37911 226.138101 
L 791.965184 244.095899 
L 813.551257 264.54912 
L 835.137331 264.327304 
L 856.723404 274.406038 
L 878.309478 294.235402 
L 899.895551 280.598382 
L 921.481625 280.709289 
L 943.067698 284.725071 
L 964.653772 270.593587 
L 986.239845 231.02266 
L 1007.825919 195.897281 
L 1029.411992 186.761262 
L 1050.998066 161.469696 
L 1072.584139 149.37614 
L 1094.170213 197.644076 
L 1115.756286 257.067474 
L 1137.34236 264.221018 
L 1158.928433 276.370027 
L 1180.514507 269.909656 
L 1202.10058 276.194424 
L 1223.686654 258.310564 
L 1245.272727 272.474396 
" style="fill:none;stroke:#2ca02c;stroke-linecap:square;stroke-width:1.5;"/>
   </g>
   <g id="line2d_30">
    <path clip-path="url(#p9084d32d50)" d="M 230.727273 489.215683 
L 252.313346 517.423038 
L 273.89942 517.534105 
L 295.485493 530.126745 
L 317.071567 536.841279 
L 338.65764 521.554507 
L 360.243714 481.253438 
L 381.829787 464.815999 
L 403.415861 425.226587 
L 425.001934 394.126231 
L 446.588008 364.153437 
L 468.174081 336.190845 
L 489.760155 317.576843 
L 511.346228 290.279696 
L 532.932302 260.491748 
L 554.518375 256.961188 
L 576.104449 273.671274 
L 597.690522 326.94854 
L 619.276596 343.053256 
L 640.862669 360.779996 
L 662.448743 358.404724 
L 684.034816 354.758635 
L 705.62089 345.220576 
L 727.206963 333.958828 
L 748.793037 324.106531 
L 770.37911 298.995189 
L 791.965184 258.569349 
L 813.551257 276.545631 
L 835.137331 270.713737 
L 856.723404 275.686097 
L 878.309478 294.115252 
L 899.895551 281.749049 
L 921.481625 276.434724 
L 943.067698 267.63605 
L 964.653772 257.270805 
L 986.239845 252.876089 
L 1007.825919 210.920647 
L 1029.411992 201.14691 
L 1050.998066 163.595426 
L 1072.584139 136.108812 
L 1094.170213 161.317198 
L 1115.756286 228.17603 
L 1137.34236 255.972261 
L 1158.928433 270.330181 
L 1180.514507 255.611811 
L 1202.10058 288.602218 
L 1223.686654 257.936251 
L 1245.272727 246.86397 
" style="fill:none;stroke:#d62728;stroke-linecap:square;stroke-width:1.5;"/>
   </g>
   <g id="line2d_31">
    <path clip-path="url(#p9084d32d50)" d="M 230.727273 501.942337 
L 252.313346 517.968493 
L 273.89942 518.75871 
L 295.485493 536.499314 
L 317.071567 545.566015 
L 338.65764 533.648063 
L 360.243714 493.776761 
L 381.829787 474.257013 
L 403.415861 448.226062 
L 425.001934 415.268003 
L 446.588008 379.64354 
L 468.174081 354.125537 
L 489.760155 340.114203 
L 511.346228 304.221713 
L 532.932302 281.069739 
L 554.518375 272.123188 
L 576.104449 264.100868 
L 597.690522 330.654704 
L 619.276596 349.230621 
L 640.862669 357.38807 
L 662.448743 367.637786 
L 684.034816 365.475087 
L 705.62089 359.523043 
L 727.206963 346.232609 
L 748.793037 337.2953 
L 770.37911 311.768054 
L 791.965184 260.464021 
L 813.551257 284.715829 
L 835.137331 292.086567 
L 856.723404 306.763346 
L 878.309478 307.70144 
L 899.895551 303.93058 
L 921.481625 300.792818 
L 943.067698 294.119874 
L 964.653772 284.826736 
L 986.239845 253.994408 
L 1007.825919 224.705544 
L 1029.411992 205.412233 
L 1050.998066 179.207456 
L 1072.584139 154.14979 
L 1094.170213 181.682616 
L 1115.756286 238.915588 
L 1137.34236 268.24142 
L 1158.928433 264.063899 
L 1180.514507 267.298705 
L 1202.10058 290.219621 
L 1223.686654 275.797323 
L 1245.272727 276.323179 
" style="fill:none;stroke:#9467bd;stroke-linecap:square;stroke-width:1.5;"/>
   </g>
   <g id="line2d_32">
    <path clip-path="url(#p9084d32d50)" d="M 230.727273 492.505944 
L 252.313346 525.205218 
L 273.89942 516.27253 
L 295.485493 532.543608 
L 317.071567 537.654602 
L 338.65764 516.221698 
L 360.243714 462.49618 
L 381.829787 451.123524 
L 403.415861 426.917928 
L 425.001934 386.778599 
L 446.588008 349.379613 
L 468.174081 342.420158 
L 489.760155 330.419025 
L 511.346228 302.128331 
L 532.932302 282.479191 
L 554.518375 267.451203 
L 576.104449 277.585391 
L 597.690522 321.380051 
L 619.276596 342.184479 
L 640.862669 360.964842 
L 662.448743 361.31605 
L 684.034816 347.771452 
L 705.62089 336.209329 
L 727.206963 327.184219 
L 748.793037 300.104266 
L 770.37911 282.442222 
L 791.965184 243.670753 
L 813.551257 260.732048 
L 835.137331 253.546156 
L 856.723404 278.001294 
L 878.309478 275.247087 
L 899.895551 264.438212 
L 921.481625 257.266184 
L 943.067698 249.983248 
L 964.653772 243.347273 
L 986.239845 219.492884 
L 1007.825919 191.955438 
L 1029.411992 175.656633 
L 1050.998066 163.179522 
L 1072.584139 128.627166 
L 1094.170213 165.5779 
L 1115.756286 231.230611 
L 1137.34236 273.883847 
L 1158.928433 280.556791 
L 1180.514507 265.362443 
L 1202.10058 285.219534 
L 1223.686654 259.733879 
L 1245.272727 247.802064 
" style="fill:none;stroke:#8c564b;stroke-linecap:square;stroke-width:1.5;"/>
   </g>
   <g id="line2d_33">
    <path clip-path="url(#p9084d32d50)" d="M 230.727273 493.835969 
L 252.313346 513.990537 
L 273.89942 512.658624 
L 295.485493 528.138494 
L 317.071567 535.451468 
L 338.65764 521.0586 
L 360.243714 483.04269 
L 381.829787 463.649736 
L 403.415861 431.325353 
L 425.001934 396.206905 
L 446.588008 359.860037 
L 468.174081 341.799479 
L 489.760155 323.92287 
L 511.346228 289.510274 
L 532.932302 269.362339 
L 554.518375 266.015891 
L 576.104449 277.193459 
L 597.690522 326.766293 
L 619.276596 342.932777 
L 640.862669 362.759582 
L 662.448743 365.546615 
L 684.034816 359.65128 
L 705.62089 349.861946 
L 727.206963 333.41444 
L 748.793037 313.843968 
L 770.37911 290.934744 
L 791.965184 248.487438 
L 813.551257 268.187988 
L 835.137331 267.200795 
L 856.723404 285.151253 
L 878.309478 292.328888 
L 899.895551 287.307717 
L 921.481625 280.009185 
L 943.067698 273.059261 
L 964.653772 265.084118 
L 986.239845 232.478611 
L 1007.825919 202.60084 
L 1029.411992 192.719422 
L 1050.998066 171.119928 
L 1072.584139 144.246422 
L 1094.170213 180.780336 
L 1115.756286 238.050566 
L 1137.34236 268.938059 
L 1158.928433 275.321026 
L 1180.514507 266.862295 
L 1202.10058 288.298955 
L 1223.686654 264.381912 
L 1245.272727 261.683099 
" style="fill:none;stroke:#e377c2;stroke-dasharray:5.55,2.4;stroke-dashoffset:0;stroke-width:1.5;"/>
   </g>
   <g id="patch_3">
    <path d="M 180 576 
L 180 86.4 
" style="fill:none;stroke:#000000;stroke-linecap:square;stroke-linejoin:miter;stroke-width:0.8;"/>
   </g>
   <g id="patch_4">
    <path d="M 1296 576 
L 1296 86.4 
" style="fill:none;stroke:#000000;stroke-linecap:square;stroke-linejoin:miter;stroke-width:0.8;"/>
   </g>
   <g id="patch_5">
    <path d="M 180 576 
L 1296 576 
" style="fill:none;stroke:#000000;stroke-linecap:square;stroke-linejoin:miter;stroke-width:0.8;"/>
   </g>
   <g id="patch_6">
    <path d="M 180 86.4 
L 1296 86.4 
" style="fill:none;stroke:#000000;stroke-linecap:square;stroke-linejoin:miter;stroke-width:0.8;"/>
   </g>
   <g id="legend_1">
    <g id="patch_7">
     <path d="M 187 348.378125 
L 275.503125 348.378125 
Q 277.503125 348.378125 277.503125 346.378125 
L 277.503125 93.4 
Q 277.503125 91.4 275.503125 91.4 
L 187 91.4 
Q 185 91.4 185 93.4 
L 185 346.378125 
Q 185 348.378125 187 348.378125 
z
" style="fill:#ffffff;opacity:0.8;stroke:#cccccc;stroke-linejoin:miter;"/>
    </g>
    <g id="line2d_34">
     <path d="M 189 99.498438 
L 209 99.498438 
" style="fill:none;stroke:#1f77b4;stroke-linecap:square;stroke-width:1.5;"/>
    </g>
    <g id="line2d_35"/>
    <g id="text_17">
     <!-- PA_II_E6D8 -->
     <defs>
      <path d="M 19.671875 64.796875 
L 19.671875 37.40625 
L 32.078125 37.40625 
Q 38.96875 37.40625 42.71875 40.96875 
Q 46.484375 44.53125 46.484375 51.125 
Q 46.484375 57.671875 42.71875 61.234375 
Q 38.96875 64.796875 32.078125 64.796875 
z
M 9.8125 72.90625 
L 32.078125 72.90625 
Q 44.34375 72.90625 50.609375 67.359375 
Q 56.890625 61.8125 56.890625 51.125 
Q 56.890625 40.328125 50.609375 34.8125 
Q 44.34375 29.296875 32.078125 29.296875 
L 19.671875 29.296875 
L 19.671875 0 
L 9.8125 0 
z
" id="DejaVuSans-80"/>
      <path d="M 34.1875 63.1875 
L 20.796875 26.90625 
L 47.609375 26.90625 
z
M 28.609375 72.90625 
L 39.796875 72.90625 
L 67.578125 0 
L 57.328125 0 
L 50.6875 18.703125 
L 17.828125 18.703125 
L 11.1875 0 
L 0.78125 0 
z
" id="DejaVuSans-65"/>
      <path d="M 50.984375 -16.609375 
L 50.984375 -23.578125 
L -0.984375 -23.578125 
L -0.984375 -16.609375 
z
" id="DejaVuSans-95"/>
      <path d="M 9.8125 72.90625 
L 19.671875 72.90625 
L 19.671875 0 
L 9.8125 0 
z
" id="DejaVuSans-73"/>
      <path d="M 9.8125 72.90625 
L 55.90625 72.90625 
L 55.90625 64.59375 
L 19.671875 64.59375 
L 19.671875 43.015625 
L 54.390625 43.015625 
L 54.390625 34.71875 
L 19.671875 34.71875 
L 19.671875 8.296875 
L 56.78125 8.296875 
L 56.78125 0 
L 9.8125 0 
z
" id="DejaVuSans-69"/>
      <path d="M 19.671875 64.796875 
L 19.671875 8.109375 
L 31.59375 8.109375 
Q 46.6875 8.109375 53.6875 14.9375 
Q 60.6875 21.78125 60.6875 36.53125 
Q 60.6875 51.171875 53.6875 57.984375 
Q 46.6875 64.796875 31.59375 64.796875 
z
M 9.8125 72.90625 
L 30.078125 72.90625 
Q 51.265625 72.90625 61.171875 64.09375 
Q 71.09375 55.28125 71.09375 36.53125 
Q 71.09375 17.671875 61.125 8.828125 
Q 51.171875 0 30.078125 0 
L 9.8125 0 
z
" id="DejaVuSans-68"/>
     </defs>
     <g transform="translate(217 102.998438)scale(0.1 -0.1)">
      <use xlink:href="#DejaVuSans-80"/>
      <use x="60.208984" xlink:href="#DejaVuSans-65"/>
      <use x="128.617188" xlink:href="#DejaVuSans-95"/>
      <use x="178.617188" xlink:href="#DejaVuSans-73"/>
      <use x="208.109375" xlink:href="#DejaVuSans-73"/>
      <use x="237.601562" xlink:href="#DejaVuSans-95"/>
      <use x="287.601562" xlink:href="#DejaVuSans-69"/>
      <use x="350.785156" xlink:href="#DejaVuSans-54"/>
      <use x="414.408203" xlink:href="#DejaVuSans-68"/>
      <use x="491.410156" xlink:href="#DejaVuSans-56"/>
     </g>
    </g>
    <g id="line2d_36">
     <path d="M 189 114.454688 
L 209 114.454688 
" style="fill:none;stroke:#ff7f0e;stroke-linecap:square;stroke-width:1.5;"/>
    </g>
    <g id="line2d_37"/>
    <g id="text_18">
     <!-- PA_II_0D9C -->
     <defs>
      <path d="M 10.984375 1.515625 
L 10.984375 10.5 
Q 14.703125 8.734375 18.5 7.8125 
Q 22.3125 6.890625 25.984375 6.890625 
Q 35.75 6.890625 40.890625 13.453125 
Q 46.046875 20.015625 46.78125 33.40625 
Q 43.953125 29.203125 39.59375 26.953125 
Q 35.25 24.703125 29.984375 24.703125 
Q 19.046875 24.703125 12.671875 31.3125 
Q 6.296875 37.9375 6.296875 49.421875 
Q 6.296875 60.640625 12.9375 67.421875 
Q 19.578125 74.21875 30.609375 74.21875 
Q 43.265625 74.21875 49.921875 64.515625 
Q 56.59375 54.828125 56.59375 36.375 
Q 56.59375 19.140625 48.40625 8.859375 
Q 40.234375 -1.421875 26.421875 -1.421875 
Q 22.703125 -1.421875 18.890625 -0.6875 
Q 15.09375 0.046875 10.984375 1.515625 
z
M 30.609375 32.421875 
Q 37.25 32.421875 41.125 36.953125 
Q 45.015625 41.5 45.015625 49.421875 
Q 45.015625 57.28125 41.125 61.84375 
Q 37.25 66.40625 30.609375 66.40625 
Q 23.96875 66.40625 20.09375 61.84375 
Q 16.21875 57.28125 16.21875 49.421875 
Q 16.21875 41.5 20.09375 36.953125 
Q 23.96875 32.421875 30.609375 32.421875 
z
" id="DejaVuSans-57"/>
      <path d="M 64.40625 67.28125 
L 64.40625 56.890625 
Q 59.421875 61.53125 53.78125 63.8125 
Q 48.140625 66.109375 41.796875 66.109375 
Q 29.296875 66.109375 22.65625 58.46875 
Q 16.015625 50.828125 16.015625 36.375 
Q 16.015625 21.96875 22.65625 14.328125 
Q 29.296875 6.6875 41.796875 6.6875 
Q 48.140625 6.6875 53.78125 8.984375 
Q 59.421875 11.28125 64.40625 15.921875 
L 64.40625 5.609375 
Q 59.234375 2.09375 53.4375 0.328125 
Q 47.65625 -1.421875 41.21875 -1.421875 
Q 24.65625 -1.421875 15.125 8.703125 
Q 5.609375 18.84375 5.609375 36.375 
Q 5.609375 53.953125 15.125 64.078125 
Q 24.65625 74.21875 41.21875 74.21875 
Q 47.75 74.21875 53.53125 72.484375 
Q 59.328125 70.75 64.40625 67.28125 
z
" id="DejaVuSans-67"/>
     </defs>
     <g transform="translate(217 117.954688)scale(0.1 -0.1)">
      <use xlink:href="#DejaVuSans-80"/>
      <use x="60.208984" xlink:href="#DejaVuSans-65"/>
      <use x="128.617188" xlink:href="#DejaVuSans-95"/>
      <use x="178.617188" xlink:href="#DejaVuSans-73"/>
      <use x="208.109375" xlink:href="#DejaVuSans-73"/>
      <use x="237.601562" xlink:href="#DejaVuSans-95"/>
      <use x="287.601562" xlink:href="#DejaVuSans-48"/>
      <use x="351.224609" xlink:href="#DejaVuSans-68"/>
      <use x="428.226562" xlink:href="#DejaVuSans-57"/>
      <use x="491.849609" xlink:href="#DejaVuSans-67"/>
     </g>
    </g>
    <g id="line2d_38">
     <path d="M 189 129.410938 
L 209 129.410938 
" style="fill:none;stroke:#2ca02c;stroke-linecap:square;stroke-width:1.5;"/>
    </g>
    <g id="line2d_39"/>
    <g id="text_19">
     <!-- PA_II_0DA2 -->
     <g transform="translate(217 132.910938)scale(0.1 -0.1)">
      <use xlink:href="#DejaVuSans-80"/>
      <use x="60.208984" xlink:href="#DejaVuSans-65"/>
      <use x="128.617188" xlink:href="#DejaVuSans-95"/>
      <use x="178.617188" xlink:href="#DejaVuSans-73"/>
      <use x="208.109375" xlink:href="#DejaVuSans-73"/>
      <use x="237.601562" xlink:href="#DejaVuSans-95"/>
      <use x="287.601562" xlink:href="#DejaVuSans-48"/>
      <use x="351.224609" xlink:href="#DejaVuSans-68"/>
      <use x="428.210938" xlink:href="#DejaVuSans-65"/>
      <use x="496.619141" xlink:href="#DejaVuSans-50"/>
     </g>
    </g>
    <g id="line2d_40">
     <path d="M 189 144.367188 
L 209 144.367188 
" style="fill:none;stroke:#d62728;stroke-linecap:square;stroke-width:1.5;"/>
    </g>
    <g id="line2d_41"/>
    <g id="text_20">
     <!-- PA_II_0DA8 -->
     <g transform="translate(217 147.867188)scale(0.1 -0.1)">
      <use xlink:href="#DejaVuSans-80"/>
      <use x="60.208984" xlink:href="#DejaVuSans-65"/>
      <use x="128.617188" xlink:href="#DejaVuSans-95"/>
      <use x="178.617188" xlink:href="#DejaVuSans-73"/>
      <use x="208.109375" xlink:href="#DejaVuSans-73"/>
      <use x="237.601562" xlink:href="#DejaVuSans-95"/>
      <use x="287.601562" xlink:href="#DejaVuSans-48"/>
      <use x="351.224609" xlink:href="#DejaVuSans-68"/>
      <use x="428.210938" xlink:href="#DejaVuSans-65"/>
      <use x="496.619141" xlink:href="#DejaVuSans-56"/>
     </g>
    </g>
    <g id="line2d_42">
     <path d="M 189 159.323438 
L 209 159.323438 
" style="fill:none;stroke:#9467bd;stroke-linecap:square;stroke-width:1.5;"/>
    </g>
    <g id="line2d_43"/>
    <g id="text_21">
     <!-- PA_II_0E47 -->
     <defs>
      <path d="M 8.203125 72.90625 
L 55.078125 72.90625 
L 55.078125 68.703125 
L 28.609375 0 
L 18.3125 0 
L 43.21875 64.59375 
L 8.203125 64.59375 
z
" id="DejaVuSans-55"/>
     </defs>
     <g transform="translate(217 162.823438)scale(0.1 -0.1)">
      <use xlink:href="#DejaVuSans-80"/>
      <use x="60.208984" xlink:href="#DejaVuSans-65"/>
      <use x="128.617188" xlink:href="#DejaVuSans-95"/>
      <use x="178.617188" xlink:href="#DejaVuSans-73"/>
      <use x="208.109375" xlink:href="#DejaVuSans-73"/>
      <use x="237.601562" xlink:href="#DejaVuSans-95"/>
      <use x="287.601562" xlink:href="#DejaVuSans-48"/>
      <use x="351.224609" xlink:href="#DejaVuSans-69"/>
      <use x="414.408203" xlink:href="#DejaVuSans-52"/>
      <use x="478.03125" xlink:href="#DejaVuSans-55"/>
     </g>
    </g>
    <g id="line2d_44">
     <path d="M 189 174.279688 
L 209 174.279688 
" style="fill:none;stroke:#8c564b;stroke-linecap:square;stroke-width:1.5;"/>
    </g>
    <g id="line2d_45"/>
    <g id="text_22">
     <!-- PA_II_0E49 -->
     <g transform="translate(217 177.779688)scale(0.1 -0.1)">
      <use xlink:href="#DejaVuSans-80"/>
      <use x="60.208984" xlink:href="#DejaVuSans-65"/>
      <use x="128.617188" xlink:href="#DejaVuSans-95"/>
      <use x="178.617188" xlink:href="#DejaVuSans-73"/>
      <use x="208.109375" xlink:href="#DejaVuSans-73"/>
      <use x="237.601562" xlink:href="#DejaVuSans-95"/>
      <use x="287.601562" xlink:href="#DejaVuSans-48"/>
      <use x="351.224609" xlink:href="#DejaVuSans-69"/>
      <use x="414.408203" xlink:href="#DejaVuSans-52"/>
      <use x="478.03125" xlink:href="#DejaVuSans-57"/>
     </g>
    </g>
    <g id="line2d_46">
     <path d="M 189 189.235938 
L 209 189.235938 
" style="fill:none;stroke:#e377c2;stroke-linecap:square;stroke-width:1.5;"/>
    </g>
    <g id="line2d_47"/>
    <g id="text_23">
     <!-- PA_II_0ED1 -->
     <g transform="translate(217 192.735938)scale(0.1 -0.1)">
      <use xlink:href="#DejaVuSans-80"/>
      <use x="60.208984" xlink:href="#DejaVuSans-65"/>
      <use x="128.617188" xlink:href="#DejaVuSans-95"/>
      <use x="178.617188" xlink:href="#DejaVuSans-73"/>
      <use x="208.109375" xlink:href="#DejaVuSans-73"/>
      <use x="237.601562" xlink:href="#DejaVuSans-95"/>
      <use x="287.601562" xlink:href="#DejaVuSans-48"/>
      <use x="351.224609" xlink:href="#DejaVuSans-69"/>
      <use x="414.408203" xlink:href="#DejaVuSans-68"/>
      <use x="491.410156" xlink:href="#DejaVuSans-49"/>
     </g>
    </g>
    <g id="line2d_48">
     <path d="M 189 204.192188 
L 209 204.192188 
" style="fill:none;stroke:#7f7f7f;stroke-linecap:square;stroke-width:1.5;"/>
    </g>
    <g id="line2d_49"/>
    <g id="text_24">
     <!-- PA_II_6A1A -->
     <g transform="translate(217 207.692188)scale(0.1 -0.1)">
      <use xlink:href="#DejaVuSans-80"/>
      <use x="60.208984" xlink:href="#DejaVuSans-65"/>
      <use x="128.617188" xlink:href="#DejaVuSans-95"/>
      <use x="178.617188" xlink:href="#DejaVuSans-73"/>
      <use x="208.109375" xlink:href="#DejaVuSans-73"/>
      <use x="237.601562" xlink:href="#DejaVuSans-95"/>
      <use x="287.601562" xlink:href="#DejaVuSans-54"/>
      <use x="351.224609" xlink:href="#DejaVuSans-65"/>
      <use x="419.632812" xlink:href="#DejaVuSans-49"/>
      <use x="483.255859" xlink:href="#DejaVuSans-65"/>
     </g>
    </g>
    <g id="line2d_50">
     <path d="M 189 219.148438 
L 209 219.148438 
" style="fill:none;stroke:#bcbd22;stroke-linecap:square;stroke-width:1.5;"/>
    </g>
    <g id="line2d_51"/>
    <g id="text_25">
     <!-- PA_II_806B -->
     <defs>
      <path d="M 19.671875 34.8125 
L 19.671875 8.109375 
L 35.5 8.109375 
Q 43.453125 8.109375 47.28125 11.40625 
Q 51.125 14.703125 51.125 21.484375 
Q 51.125 28.328125 47.28125 31.5625 
Q 43.453125 34.8125 35.5 34.8125 
z
M 19.671875 64.796875 
L 19.671875 42.828125 
L 34.28125 42.828125 
Q 41.5 42.828125 45.03125 45.53125 
Q 48.578125 48.25 48.578125 53.8125 
Q 48.578125 59.328125 45.03125 62.0625 
Q 41.5 64.796875 34.28125 64.796875 
z
M 9.8125 72.90625 
L 35.015625 72.90625 
Q 46.296875 72.90625 52.390625 68.21875 
Q 58.5 63.53125 58.5 54.890625 
Q 58.5 48.1875 55.375 44.234375 
Q 52.25 40.28125 46.1875 39.3125 
Q 53.46875 37.75 57.5 32.78125 
Q 61.53125 27.828125 61.53125 20.40625 
Q 61.53125 10.640625 54.890625 5.3125 
Q 48.25 0 35.984375 0 
L 9.8125 0 
z
" id="DejaVuSans-66"/>
     </defs>
     <g transform="translate(217 222.648438)scale(0.1 -0.1)">
      <use xlink:href="#DejaVuSans-80"/>
      <use x="60.208984" xlink:href="#DejaVuSans-65"/>
      <use x="128.617188" xlink:href="#DejaVuSans-95"/>
      <use x="178.617188" xlink:href="#DejaVuSans-73"/>
      <use x="208.109375" xlink:href="#DejaVuSans-73"/>
      <use x="237.601562" xlink:href="#DejaVuSans-95"/>
      <use x="287.601562" xlink:href="#DejaVuSans-56"/>
      <use x="351.224609" xlink:href="#DejaVuSans-48"/>
      <use x="414.847656" xlink:href="#DejaVuSans-54"/>
      <use x="478.470703" xlink:href="#DejaVuSans-66"/>
     </g>
    </g>
    <g id="line2d_52">
     <path d="M 189 234.104688 
L 209 234.104688 
" style="fill:none;stroke:#17becf;stroke-linecap:square;stroke-width:1.5;"/>
    </g>
    <g id="line2d_53"/>
    <g id="text_26">
     <!-- PA_II_D718 -->
     <g transform="translate(217 237.604688)scale(0.1 -0.1)">
      <use xlink:href="#DejaVuSans-80"/>
      <use x="60.208984" xlink:href="#DejaVuSans-65"/>
      <use x="128.617188" xlink:href="#DejaVuSans-95"/>
      <use x="178.617188" xlink:href="#DejaVuSans-73"/>
      <use x="208.109375" xlink:href="#DejaVuSans-73"/>
      <use x="237.601562" xlink:href="#DejaVuSans-95"/>
      <use x="287.601562" xlink:href="#DejaVuSans-68"/>
      <use x="364.603516" xlink:href="#DejaVuSans-55"/>
      <use x="428.226562" xlink:href="#DejaVuSans-49"/>
      <use x="491.849609" xlink:href="#DejaVuSans-56"/>
     </g>
    </g>
    <g id="line2d_54">
     <path d="M 189 249.060938 
L 209 249.060938 
" style="fill:none;stroke:#1f77b4;stroke-linecap:square;stroke-width:1.5;"/>
    </g>
    <g id="line2d_55"/>
    <g id="text_27">
     <!-- PA_II_D71C -->
     <g transform="translate(217 252.560938)scale(0.1 -0.1)">
      <use xlink:href="#DejaVuSans-80"/>
      <use x="60.208984" xlink:href="#DejaVuSans-65"/>
      <use x="128.617188" xlink:href="#DejaVuSans-95"/>
      <use x="178.617188" xlink:href="#DejaVuSans-73"/>
      <use x="208.109375" xlink:href="#DejaVuSans-73"/>
      <use x="237.601562" xlink:href="#DejaVuSans-95"/>
      <use x="287.601562" xlink:href="#DejaVuSans-68"/>
      <use x="364.603516" xlink:href="#DejaVuSans-55"/>
      <use x="428.226562" xlink:href="#DejaVuSans-49"/>
      <use x="491.849609" xlink:href="#DejaVuSans-67"/>
     </g>
    </g>
    <g id="line2d_56">
     <path d="M 189 264.017188 
L 209 264.017188 
" style="fill:none;stroke:#ff7f0e;stroke-linecap:square;stroke-width:1.5;"/>
    </g>
    <g id="line2d_57"/>
    <g id="text_28">
     <!-- PA_II_D727 -->
     <g transform="translate(217 267.517188)scale(0.1 -0.1)">
      <use xlink:href="#DejaVuSans-80"/>
      <use x="60.208984" xlink:href="#DejaVuSans-65"/>
      <use x="128.617188" xlink:href="#DejaVuSans-95"/>
      <use x="178.617188" xlink:href="#DejaVuSans-73"/>
      <use x="208.109375" xlink:href="#DejaVuSans-73"/>
      <use x="237.601562" xlink:href="#DejaVuSans-95"/>
      <use x="287.601562" xlink:href="#DejaVuSans-68"/>
      <use x="364.603516" xlink:href="#DejaVuSans-55"/>
      <use x="428.226562" xlink:href="#DejaVuSans-50"/>
      <use x="491.849609" xlink:href="#DejaVuSans-55"/>
     </g>
    </g>
    <g id="line2d_58">
     <path d="M 189 278.973438 
L 209 278.973438 
" style="fill:none;stroke:#2ca02c;stroke-linecap:square;stroke-width:1.5;"/>
    </g>
    <g id="line2d_59"/>
    <g id="text_29">
     <!-- PA_II_D8B6 -->
     <g transform="translate(217 282.473438)scale(0.1 -0.1)">
      <use xlink:href="#DejaVuSans-80"/>
      <use x="60.208984" xlink:href="#DejaVuSans-65"/>
      <use x="128.617188" xlink:href="#DejaVuSans-95"/>
      <use x="178.617188" xlink:href="#DejaVuSans-73"/>
      <use x="208.109375" xlink:href="#DejaVuSans-73"/>
      <use x="237.601562" xlink:href="#DejaVuSans-95"/>
      <use x="287.601562" xlink:href="#DejaVuSans-68"/>
      <use x="364.603516" xlink:href="#DejaVuSans-56"/>
      <use x="428.226562" xlink:href="#DejaVuSans-66"/>
      <use x="496.830078" xlink:href="#DejaVuSans-54"/>
     </g>
    </g>
    <g id="line2d_60">
     <path d="M 189 293.929688 
L 209 293.929688 
" style="fill:none;stroke:#d62728;stroke-linecap:square;stroke-width:1.5;"/>
    </g>
    <g id="line2d_61"/>
    <g id="text_30">
     <!-- PA_II_D8BE -->
     <g transform="translate(217 297.429688)scale(0.1 -0.1)">
      <use xlink:href="#DejaVuSans-80"/>
      <use x="60.208984" xlink:href="#DejaVuSans-65"/>
      <use x="128.617188" xlink:href="#DejaVuSans-95"/>
      <use x="178.617188" xlink:href="#DejaVuSans-73"/>
      <use x="208.109375" xlink:href="#DejaVuSans-73"/>
      <use x="237.601562" xlink:href="#DejaVuSans-95"/>
      <use x="287.601562" xlink:href="#DejaVuSans-68"/>
      <use x="364.603516" xlink:href="#DejaVuSans-56"/>
      <use x="428.226562" xlink:href="#DejaVuSans-66"/>
      <use x="496.830078" xlink:href="#DejaVuSans-69"/>
     </g>
    </g>
    <g id="line2d_62">
     <path d="M 189 308.885938 
L 209 308.885938 
" style="fill:none;stroke:#9467bd;stroke-linecap:square;stroke-width:1.5;"/>
    </g>
    <g id="line2d_63"/>
    <g id="text_31">
     <!-- PA_II_DA7A -->
     <g transform="translate(217 312.385938)scale(0.1 -0.1)">
      <use xlink:href="#DejaVuSans-80"/>
      <use x="60.208984" xlink:href="#DejaVuSans-65"/>
      <use x="128.617188" xlink:href="#DejaVuSans-95"/>
      <use x="178.617188" xlink:href="#DejaVuSans-73"/>
      <use x="208.109375" xlink:href="#DejaVuSans-73"/>
      <use x="237.601562" xlink:href="#DejaVuSans-95"/>
      <use x="287.601562" xlink:href="#DejaVuSans-68"/>
      <use x="364.587891" xlink:href="#DejaVuSans-65"/>
      <use x="432.996094" xlink:href="#DejaVuSans-55"/>
      <use x="496.619141" xlink:href="#DejaVuSans-65"/>
     </g>
    </g>
    <g id="line2d_64">
     <path d="M 189 323.842188 
L 209 323.842188 
" style="fill:none;stroke:#8c564b;stroke-linecap:square;stroke-width:1.5;"/>
    </g>
    <g id="line2d_65"/>
    <g id="text_32">
     <!-- PA_II_D44F -->
     <defs>
      <path d="M 9.8125 72.90625 
L 51.703125 72.90625 
L 51.703125 64.59375 
L 19.671875 64.59375 
L 19.671875 43.109375 
L 48.578125 43.109375 
L 48.578125 34.8125 
L 19.671875 34.8125 
L 19.671875 0 
L 9.8125 0 
z
" id="DejaVuSans-70"/>
     </defs>
     <g transform="translate(217 327.342188)scale(0.1 -0.1)">
      <use xlink:href="#DejaVuSans-80"/>
      <use x="60.208984" xlink:href="#DejaVuSans-65"/>
      <use x="128.617188" xlink:href="#DejaVuSans-95"/>
      <use x="178.617188" xlink:href="#DejaVuSans-73"/>
      <use x="208.109375" xlink:href="#DejaVuSans-73"/>
      <use x="237.601562" xlink:href="#DejaVuSans-95"/>
      <use x="287.601562" xlink:href="#DejaVuSans-68"/>
      <use x="364.603516" xlink:href="#DejaVuSans-52"/>
      <use x="428.226562" xlink:href="#DejaVuSans-52"/>
      <use x="491.849609" xlink:href="#DejaVuSans-70"/>
     </g>
    </g>
    <g id="line2d_66">
     <path d="M 189 338.798438 
L 209 338.798438 
" style="fill:none;stroke:#e377c2;stroke-dasharray:5.55,2.4;stroke-dashoffset:0;stroke-width:1.5;"/>
    </g>
    <g id="line2d_67"/>
    <g id="text_33">
     <!-- Average -->
     <defs>
      <path d="M 2.984375 54.6875 
L 12.5 54.6875 
L 29.59375 8.796875 
L 46.6875 54.6875 
L 56.203125 54.6875 
L 35.6875 0 
L 23.484375 0 
z
" id="DejaVuSans-118"/>
      <path d="M 56.203125 29.59375 
L 56.203125 25.203125 
L 14.890625 25.203125 
Q 15.484375 15.921875 20.484375 11.0625 
Q 25.484375 6.203125 34.421875 6.203125 
Q 39.59375 6.203125 44.453125 7.46875 
Q 49.3125 8.734375 54.109375 11.28125 
L 54.109375 2.78125 
Q 49.265625 0.734375 44.1875 -0.34375 
Q 39.109375 -1.421875 33.890625 -1.421875 
Q 20.796875 -1.421875 13.15625 6.1875 
Q 5.515625 13.8125 5.515625 26.8125 
Q 5.515625 40.234375 12.765625 48.109375 
Q 20.015625 56 32.328125 56 
Q 43.359375 56 49.78125 48.890625 
Q 56.203125 41.796875 56.203125 29.59375 
z
M 47.21875 32.234375 
Q 47.125 39.59375 43.09375 43.984375 
Q 39.0625 48.390625 32.421875 48.390625 
Q 24.90625 48.390625 20.390625 44.140625 
Q 15.875 39.890625 15.1875 32.171875 
z
" id="DejaVuSans-101"/>
      <path d="M 41.109375 46.296875 
Q 39.59375 47.171875 37.8125 47.578125 
Q 36.03125 48 33.890625 48 
Q 26.265625 48 22.1875 43.046875 
Q 18.109375 38.09375 18.109375 28.8125 
L 18.109375 0 
L 9.078125 0 
L 9.078125 54.6875 
L 18.109375 54.6875 
L 18.109375 46.1875 
Q 20.953125 51.171875 25.484375 53.578125 
Q 30.03125 56 36.53125 56 
Q 37.453125 56 38.578125 55.875 
Q 39.703125 55.765625 41.0625 55.515625 
z
" id="DejaVuSans-114"/>
      <path d="M 34.28125 27.484375 
Q 23.390625 27.484375 19.1875 25 
Q 14.984375 22.515625 14.984375 16.5 
Q 14.984375 11.71875 18.140625 8.90625 
Q 21.296875 6.109375 26.703125 6.109375 
Q 34.1875 6.109375 38.703125 11.40625 
Q 43.21875 16.703125 43.21875 25.484375 
L 43.21875 27.484375 
z
M 52.203125 31.203125 
L 52.203125 0 
L 43.21875 0 
L 43.21875 8.296875 
Q 40.140625 3.328125 35.546875 0.953125 
Q 30.953125 -1.421875 24.3125 -1.421875 
Q 15.921875 -1.421875 10.953125 3.296875 
Q 6 8.015625 6 15.921875 
Q 6 25.140625 12.171875 29.828125 
Q 18.359375 34.515625 30.609375 34.515625 
L 43.21875 34.515625 
L 43.21875 35.40625 
Q 43.21875 41.609375 39.140625 45 
Q 35.0625 48.390625 27.6875 48.390625 
Q 23 48.390625 18.546875 47.265625 
Q 14.109375 46.140625 10.015625 43.890625 
L 10.015625 52.203125 
Q 14.9375 54.109375 19.578125 55.046875 
Q 24.21875 56 28.609375 56 
Q 40.484375 56 46.34375 49.84375 
Q 52.203125 43.703125 52.203125 31.203125 
z
" id="DejaVuSans-97"/>
      <path d="M 45.40625 27.984375 
Q 45.40625 37.75 41.375 43.109375 
Q 37.359375 48.484375 30.078125 48.484375 
Q 22.859375 48.484375 18.828125 43.109375 
Q 14.796875 37.75 14.796875 27.984375 
Q 14.796875 18.265625 18.828125 12.890625 
Q 22.859375 7.515625 30.078125 7.515625 
Q 37.359375 7.515625 41.375 12.890625 
Q 45.40625 18.265625 45.40625 27.984375 
z
M 54.390625 6.78125 
Q 54.390625 -7.171875 48.1875 -13.984375 
Q 42 -20.796875 29.203125 -20.796875 
Q 24.46875 -20.796875 20.265625 -20.09375 
Q 16.0625 -19.390625 12.109375 -17.921875 
L 12.109375 -9.1875 
Q 16.0625 -11.328125 19.921875 -12.34375 
Q 23.78125 -13.375 27.78125 -13.375 
Q 36.625 -13.375 41.015625 -8.765625 
Q 45.40625 -4.15625 45.40625 5.171875 
L 45.40625 9.625 
Q 42.625 4.78125 38.28125 2.390625 
Q 33.9375 0 27.875 0 
Q 17.828125 0 11.671875 7.65625 
Q 5.515625 15.328125 5.515625 27.984375 
Q 5.515625 40.671875 11.671875 48.328125 
Q 17.828125 56 27.875 56 
Q 33.9375 56 38.28125 53.609375 
Q 42.625 51.21875 45.40625 46.390625 
L 45.40625 54.6875 
L 54.390625 54.6875 
z
" id="DejaVuSans-103"/>
     </defs>
     <g transform="translate(217 342.298438)scale(0.1 -0.1)">
      <use xlink:href="#DejaVuSans-65"/>
      <use x="68.330078" xlink:href="#DejaVuSans-118"/>
      <use x="127.509766" xlink:href="#DejaVuSans-101"/>
      <use x="189.033203" xlink:href="#DejaVuSans-114"/>
      <use x="230.146484" xlink:href="#DejaVuSans-97"/>
      <use x="291.425781" xlink:href="#DejaVuSans-103"/>
      <use x="354.902344" xlink:href="#DejaVuSans-101"/>
     </g>
    </g>
   </g>
  </g>
 </g>
 <defs>
  <clipPath id="p9084d32d50">
   <rect height="489.6" width="1116" x="180" y="86.4"/>
  </clipPath>
 </defs>
</svg>
