<?xml version="1.0" encoding="utf-8" standalone="no"?>
<!DOCTYPE svg PUBLIC "-//W3C//DTD SVG 1.1//EN"
  "http://www.w3.org/Graphics/SVG/1.1/DTD/svg11.dtd">
<!-- Created with matplotlib (https://matplotlib.org/) -->
<svg height="720pt" version="1.1" viewBox="0 0 1440 720" width="1440pt" xmlns="http://www.w3.org/2000/svg" xmlns:xlink="http://www.w3.org/1999/xlink">
 <defs>
  <style type="text/css">
*{stroke-linecap:butt;stroke-linejoin:round;}
  </style>
 </defs>
 <g id="figure_1">
  <g id="patch_1">
   <path d="M 0 720 
L 1440 720 
L 1440 0 
L 0 0 
z
" style="fill:#ffffff;"/>
  </g>
  <g id="axes_1">
   <g id="patch_2">
    <path d="M 180 630 
L 1296 630 
L 1296 86.4 
L 180 86.4 
z
" style="fill:#ffffff;"/>
   </g>
   <g id="matplotlib.axis_1">
    <g id="xtick_1">
     <g id="line2d_1">
      <defs>
       <path d="M 0 0 
L 0 3.5 
" id="m0169d4b32d" style="stroke:#000000;stroke-width:0.8;"/>
      </defs>
      <g>
       <use style="stroke:#000000;stroke-width:0.8;" x="230.727273" xlink:href="#m0169d4b32d" y="630"/>
      </g>
     </g>
     <g id="text_1">
      <!-- 03-02 00 -->
      <defs>
       <path d="M 31.78125 66.40625 
Q 24.171875 66.40625 20.328125 58.90625 
Q 16.5 51.421875 16.5 36.375 
Q 16.5 21.390625 20.328125 13.890625 
Q 24.171875 6.390625 31.78125 6.390625 
Q 39.453125 6.390625 43.28125 13.890625 
Q 47.125 21.390625 47.125 36.375 
Q 47.125 51.421875 43.28125 58.90625 
Q 39.453125 66.40625 31.78125 66.40625 
z
M 31.78125 74.21875 
Q 44.046875 74.21875 50.515625 64.515625 
Q 56.984375 54.828125 56.984375 36.375 
Q 56.984375 17.96875 50.515625 8.265625 
Q 44.046875 -1.421875 31.78125 -1.421875 
Q 19.53125 -1.421875 13.0625 8.265625 
Q 6.59375 17.96875 6.59375 36.375 
Q 6.59375 54.828125 13.0625 64.515625 
Q 19.53125 74.21875 31.78125 74.21875 
z
" id="DejaVuSans-48"/>
       <path d="M 40.578125 39.3125 
Q 47.65625 37.796875 51.625 33 
Q 55.609375 28.21875 55.609375 21.1875 
Q 55.609375 10.40625 48.1875 4.484375 
Q 40.765625 -1.421875 27.09375 -1.421875 
Q 22.515625 -1.421875 17.65625 -0.515625 
Q 12.796875 0.390625 7.625 2.203125 
L 7.625 11.71875 
Q 11.71875 9.328125 16.59375 8.109375 
Q 21.484375 6.890625 26.8125 6.890625 
Q 36.078125 6.890625 40.9375 10.546875 
Q 45.796875 14.203125 45.796875 21.1875 
Q 45.796875 27.640625 41.28125 31.265625 
Q 36.765625 34.90625 28.71875 34.90625 
L 20.21875 34.90625 
L 20.21875 43.015625 
L 29.109375 43.015625 
Q 36.375 43.015625 40.234375 45.921875 
Q 44.09375 48.828125 44.09375 54.296875 
Q 44.09375 59.90625 40.109375 62.90625 
Q 36.140625 65.921875 28.71875 65.921875 
Q 24.65625 65.921875 20.015625 65.03125 
Q 15.375 64.15625 9.8125 62.3125 
L 9.8125 71.09375 
Q 15.4375 72.65625 20.34375 73.4375 
Q 25.25 74.21875 29.59375 74.21875 
Q 40.828125 74.21875 47.359375 69.109375 
Q 53.90625 64.015625 53.90625 55.328125 
Q 53.90625 49.265625 50.4375 45.09375 
Q 46.96875 40.921875 40.578125 39.3125 
z
" id="DejaVuSans-51"/>
       <path d="M 4.890625 31.390625 
L 31.203125 31.390625 
L 31.203125 23.390625 
L 4.890625 23.390625 
z
" id="DejaVuSans-45"/>
       <path d="M 19.1875 8.296875 
L 53.609375 8.296875 
L 53.609375 0 
L 7.328125 0 
L 7.328125 8.296875 
Q 12.9375 14.109375 22.625 23.890625 
Q 32.328125 33.6875 34.8125 36.53125 
Q 39.546875 41.84375 41.421875 45.53125 
Q 43.3125 49.21875 43.3125 52.78125 
Q 43.3125 58.59375 39.234375 62.25 
Q 35.15625 65.921875 28.609375 65.921875 
Q 23.96875 65.921875 18.8125 64.3125 
Q 13.671875 62.703125 7.8125 59.421875 
L 7.8125 69.390625 
Q 13.765625 71.78125 18.9375 73 
Q 24.125 74.21875 28.421875 74.21875 
Q 39.75 74.21875 46.484375 68.546875 
Q 53.21875 62.890625 53.21875 53.421875 
Q 53.21875 48.921875 51.53125 44.890625 
Q 49.859375 40.875 45.40625 35.40625 
Q 44.1875 33.984375 37.640625 27.21875 
Q 31.109375 20.453125 19.1875 8.296875 
z
" id="DejaVuSans-50"/>
       <path id="DejaVuSans-32"/>
      </defs>
      <g transform="translate(208.246804 644.598438)scale(0.1 -0.1)">
       <use xlink:href="#DejaVuSans-48"/>
       <use x="63.623047" xlink:href="#DejaVuSans-51"/>
       <use x="127.246094" xlink:href="#DejaVuSans-45"/>
       <use x="163.330078" xlink:href="#DejaVuSans-48"/>
       <use x="226.953125" xlink:href="#DejaVuSans-50"/>
       <use x="290.576172" xlink:href="#DejaVuSans-32"/>
       <use x="322.363281" xlink:href="#DejaVuSans-48"/>
       <use x="385.986328" xlink:href="#DejaVuSans-48"/>
      </g>
     </g>
    </g>
    <g id="xtick_2">
     <g id="line2d_2">
      <g>
       <use style="stroke:#000000;stroke-width:0.8;" x="360.243714" xlink:href="#m0169d4b32d" y="630"/>
      </g>
     </g>
     <g id="text_2">
      <!-- 03-02 06 -->
      <defs>
       <path d="M 33.015625 40.375 
Q 26.375 40.375 22.484375 35.828125 
Q 18.609375 31.296875 18.609375 23.390625 
Q 18.609375 15.53125 22.484375 10.953125 
Q 26.375 6.390625 33.015625 6.390625 
Q 39.65625 6.390625 43.53125 10.953125 
Q 47.40625 15.53125 47.40625 23.390625 
Q 47.40625 31.296875 43.53125 35.828125 
Q 39.65625 40.375 33.015625 40.375 
z
M 52.59375 71.296875 
L 52.59375 62.3125 
Q 48.875 64.0625 45.09375 64.984375 
Q 41.3125 65.921875 37.59375 65.921875 
Q 27.828125 65.921875 22.671875 59.328125 
Q 17.53125 52.734375 16.796875 39.40625 
Q 19.671875 43.65625 24.015625 45.921875 
Q 28.375 48.1875 33.59375 48.1875 
Q 44.578125 48.1875 50.953125 41.515625 
Q 57.328125 34.859375 57.328125 23.390625 
Q 57.328125 12.15625 50.6875 5.359375 
Q 44.046875 -1.421875 33.015625 -1.421875 
Q 20.359375 -1.421875 13.671875 8.265625 
Q 6.984375 17.96875 6.984375 36.375 
Q 6.984375 53.65625 15.1875 63.9375 
Q 23.390625 74.21875 37.203125 74.21875 
Q 40.921875 74.21875 44.703125 73.484375 
Q 48.484375 72.75 52.59375 71.296875 
z
" id="DejaVuSans-54"/>
      </defs>
      <g transform="translate(337.763245 644.598438)scale(0.1 -0.1)">
       <use xlink:href="#DejaVuSans-48"/>
       <use x="63.623047" xlink:href="#DejaVuSans-51"/>
       <use x="127.246094" xlink:href="#DejaVuSans-45"/>
       <use x="163.330078" xlink:href="#DejaVuSans-48"/>
       <use x="226.953125" xlink:href="#DejaVuSans-50"/>
       <use x="290.576172" xlink:href="#DejaVuSans-32"/>
       <use x="322.363281" xlink:href="#DejaVuSans-48"/>
       <use x="385.986328" xlink:href="#DejaVuSans-54"/>
      </g>
     </g>
    </g>
    <g id="xtick_3">
     <g id="line2d_3">
      <g>
       <use style="stroke:#000000;stroke-width:0.8;" x="489.760155" xlink:href="#m0169d4b32d" y="630"/>
      </g>
     </g>
     <g id="text_3">
      <!-- 03-02 12 -->
      <defs>
       <path d="M 12.40625 8.296875 
L 28.515625 8.296875 
L 28.515625 63.921875 
L 10.984375 60.40625 
L 10.984375 69.390625 
L 28.421875 72.90625 
L 38.28125 72.90625 
L 38.28125 8.296875 
L 54.390625 8.296875 
L 54.390625 0 
L 12.40625 0 
z
" id="DejaVuSans-49"/>
      </defs>
      <g transform="translate(467.279686 644.598438)scale(0.1 -0.1)">
       <use xlink:href="#DejaVuSans-48"/>
       <use x="63.623047" xlink:href="#DejaVuSans-51"/>
       <use x="127.246094" xlink:href="#DejaVuSans-45"/>
       <use x="163.330078" xlink:href="#DejaVuSans-48"/>
       <use x="226.953125" xlink:href="#DejaVuSans-50"/>
       <use x="290.576172" xlink:href="#DejaVuSans-32"/>
       <use x="322.363281" xlink:href="#DejaVuSans-49"/>
       <use x="385.986328" xlink:href="#DejaVuSans-50"/>
      </g>
     </g>
    </g>
    <g id="xtick_4">
     <g id="line2d_4">
      <g>
       <use style="stroke:#000000;stroke-width:0.8;" x="619.276596" xlink:href="#m0169d4b32d" y="630"/>
      </g>
     </g>
     <g id="text_4">
      <!-- 03-02 18 -->
      <defs>
       <path d="M 31.78125 34.625 
Q 24.75 34.625 20.71875 30.859375 
Q 16.703125 27.09375 16.703125 20.515625 
Q 16.703125 13.921875 20.71875 10.15625 
Q 24.75 6.390625 31.78125 6.390625 
Q 38.8125 6.390625 42.859375 10.171875 
Q 46.921875 13.96875 46.921875 20.515625 
Q 46.921875 27.09375 42.890625 30.859375 
Q 38.875 34.625 31.78125 34.625 
z
M 21.921875 38.8125 
Q 15.578125 40.375 12.03125 44.71875 
Q 8.5 49.078125 8.5 55.328125 
Q 8.5 64.0625 14.71875 69.140625 
Q 20.953125 74.21875 31.78125 74.21875 
Q 42.671875 74.21875 48.875 69.140625 
Q 55.078125 64.0625 55.078125 55.328125 
Q 55.078125 49.078125 51.53125 44.71875 
Q 48 40.375 41.703125 38.8125 
Q 48.828125 37.15625 52.796875 32.3125 
Q 56.78125 27.484375 56.78125 20.515625 
Q 56.78125 9.90625 50.3125 4.234375 
Q 43.84375 -1.421875 31.78125 -1.421875 
Q 19.734375 -1.421875 13.25 4.234375 
Q 6.78125 9.90625 6.78125 20.515625 
Q 6.78125 27.484375 10.78125 32.3125 
Q 14.796875 37.15625 21.921875 38.8125 
z
M 18.3125 54.390625 
Q 18.3125 48.734375 21.84375 45.5625 
Q 25.390625 42.390625 31.78125 42.390625 
Q 38.140625 42.390625 41.71875 45.5625 
Q 45.3125 48.734375 45.3125 54.390625 
Q 45.3125 60.0625 41.71875 63.234375 
Q 38.140625 66.40625 31.78125 66.40625 
Q 25.390625 66.40625 21.84375 63.234375 
Q 18.3125 60.0625 18.3125 54.390625 
z
" id="DejaVuSans-56"/>
      </defs>
      <g transform="translate(596.796127 644.598438)scale(0.1 -0.1)">
       <use xlink:href="#DejaVuSans-48"/>
       <use x="63.623047" xlink:href="#DejaVuSans-51"/>
       <use x="127.246094" xlink:href="#DejaVuSans-45"/>
       <use x="163.330078" xlink:href="#DejaVuSans-48"/>
       <use x="226.953125" xlink:href="#DejaVuSans-50"/>
       <use x="290.576172" xlink:href="#DejaVuSans-32"/>
       <use x="322.363281" xlink:href="#DejaVuSans-49"/>
       <use x="385.986328" xlink:href="#DejaVuSans-56"/>
      </g>
     </g>
    </g>
    <g id="xtick_5">
     <g id="line2d_5">
      <g>
       <use style="stroke:#000000;stroke-width:0.8;" x="748.793037" xlink:href="#m0169d4b32d" y="630"/>
      </g>
     </g>
     <g id="text_5">
      <!-- 03-03 00 -->
      <g transform="translate(726.312568 644.598438)scale(0.1 -0.1)">
       <use xlink:href="#DejaVuSans-48"/>
       <use x="63.623047" xlink:href="#DejaVuSans-51"/>
       <use x="127.246094" xlink:href="#DejaVuSans-45"/>
       <use x="163.330078" xlink:href="#DejaVuSans-48"/>
       <use x="226.953125" xlink:href="#DejaVuSans-51"/>
       <use x="290.576172" xlink:href="#DejaVuSans-32"/>
       <use x="322.363281" xlink:href="#DejaVuSans-48"/>
       <use x="385.986328" xlink:href="#DejaVuSans-48"/>
      </g>
     </g>
    </g>
    <g id="xtick_6">
     <g id="line2d_6">
      <g>
       <use style="stroke:#000000;stroke-width:0.8;" x="878.309478" xlink:href="#m0169d4b32d" y="630"/>
      </g>
     </g>
     <g id="text_6">
      <!-- 03-03 06 -->
      <g transform="translate(855.829009 644.598438)scale(0.1 -0.1)">
       <use xlink:href="#DejaVuSans-48"/>
       <use x="63.623047" xlink:href="#DejaVuSans-51"/>
       <use x="127.246094" xlink:href="#DejaVuSans-45"/>
       <use x="163.330078" xlink:href="#DejaVuSans-48"/>
       <use x="226.953125" xlink:href="#DejaVuSans-51"/>
       <use x="290.576172" xlink:href="#DejaVuSans-32"/>
       <use x="322.363281" xlink:href="#DejaVuSans-48"/>
       <use x="385.986328" xlink:href="#DejaVuSans-54"/>
      </g>
     </g>
    </g>
    <g id="xtick_7">
     <g id="line2d_7">
      <g>
       <use style="stroke:#000000;stroke-width:0.8;" x="1007.825919" xlink:href="#m0169d4b32d" y="630"/>
      </g>
     </g>
     <g id="text_7">
      <!-- 03-03 12 -->
      <g transform="translate(985.34545 644.598438)scale(0.1 -0.1)">
       <use xlink:href="#DejaVuSans-48"/>
       <use x="63.623047" xlink:href="#DejaVuSans-51"/>
       <use x="127.246094" xlink:href="#DejaVuSans-45"/>
       <use x="163.330078" xlink:href="#DejaVuSans-48"/>
       <use x="226.953125" xlink:href="#DejaVuSans-51"/>
       <use x="290.576172" xlink:href="#DejaVuSans-32"/>
       <use x="322.363281" xlink:href="#DejaVuSans-49"/>
       <use x="385.986328" xlink:href="#DejaVuSans-50"/>
      </g>
     </g>
    </g>
    <g id="xtick_8">
     <g id="line2d_8">
      <g>
       <use style="stroke:#000000;stroke-width:0.8;" x="1137.34236" xlink:href="#m0169d4b32d" y="630"/>
      </g>
     </g>
     <g id="text_8">
      <!-- 03-03 18 -->
      <g transform="translate(1114.861891 644.598438)scale(0.1 -0.1)">
       <use xlink:href="#DejaVuSans-48"/>
       <use x="63.623047" xlink:href="#DejaVuSans-51"/>
       <use x="127.246094" xlink:href="#DejaVuSans-45"/>
       <use x="163.330078" xlink:href="#DejaVuSans-48"/>
       <use x="226.953125" xlink:href="#DejaVuSans-51"/>
       <use x="290.576172" xlink:href="#DejaVuSans-32"/>
       <use x="322.363281" xlink:href="#DejaVuSans-49"/>
       <use x="385.986328" xlink:href="#DejaVuSans-56"/>
      </g>
     </g>
    </g>
    <g id="xtick_9">
     <g id="line2d_9">
      <g>
       <use style="stroke:#000000;stroke-width:0.8;" x="1266.858801" xlink:href="#m0169d4b32d" y="630"/>
      </g>
     </g>
     <g id="text_9">
      <!-- 03-04 00 -->
      <defs>
       <path d="M 37.796875 64.3125 
L 12.890625 25.390625 
L 37.796875 25.390625 
z
M 35.203125 72.90625 
L 47.609375 72.90625 
L 47.609375 25.390625 
L 58.015625 25.390625 
L 58.015625 17.1875 
L 47.609375 17.1875 
L 47.609375 0 
L 37.796875 0 
L 37.796875 17.1875 
L 4.890625 17.1875 
L 4.890625 26.703125 
z
" id="DejaVuSans-52"/>
      </defs>
      <g transform="translate(1244.378332 644.598438)scale(0.1 -0.1)">
       <use xlink:href="#DejaVuSans-48"/>
       <use x="63.623047" xlink:href="#DejaVuSans-51"/>
       <use x="127.246094" xlink:href="#DejaVuSans-45"/>
       <use x="163.330078" xlink:href="#DejaVuSans-48"/>
       <use x="226.953125" xlink:href="#DejaVuSans-52"/>
       <use x="290.576172" xlink:href="#DejaVuSans-32"/>
       <use x="322.363281" xlink:href="#DejaVuSans-48"/>
       <use x="385.986328" xlink:href="#DejaVuSans-48"/>
      </g>
     </g>
    </g>
   </g>
   <g id="matplotlib.axis_2">
    <g id="ytick_1">
     <g id="line2d_10">
      <defs>
       <path d="M 0 0 
L -3.5 0 
" id="m9dc24b0d62" style="stroke:#000000;stroke-width:0.8;"/>
      </defs>
      <g>
       <use style="stroke:#000000;stroke-width:0.8;" x="180" xlink:href="#m9dc24b0d62" y="610.221645"/>
      </g>
     </g>
     <g id="text_10">
      <!-- 5 -->
      <defs>
       <path d="M 10.796875 72.90625 
L 49.515625 72.90625 
L 49.515625 64.59375 
L 19.828125 64.59375 
L 19.828125 46.734375 
Q 21.96875 47.46875 24.109375 47.828125 
Q 26.265625 48.1875 28.421875 48.1875 
Q 40.625 48.1875 47.75 41.5 
Q 54.890625 34.8125 54.890625 23.390625 
Q 54.890625 11.625 47.5625 5.09375 
Q 40.234375 -1.421875 26.90625 -1.421875 
Q 22.3125 -1.421875 17.546875 -0.640625 
Q 12.796875 0.140625 7.71875 1.703125 
L 7.71875 11.625 
Q 12.109375 9.234375 16.796875 8.0625 
Q 21.484375 6.890625 26.703125 6.890625 
Q 35.15625 6.890625 40.078125 11.328125 
Q 45.015625 15.765625 45.015625 23.390625 
Q 45.015625 31 40.078125 35.4375 
Q 35.15625 39.890625 26.703125 39.890625 
Q 22.75 39.890625 18.8125 39.015625 
Q 14.890625 38.140625 10.796875 36.28125 
z
" id="DejaVuSans-53"/>
      </defs>
      <g transform="translate(166.6375 614.020863)scale(0.1 -0.1)">
       <use xlink:href="#DejaVuSans-53"/>
      </g>
     </g>
    </g>
    <g id="ytick_2">
     <g id="line2d_11">
      <g>
       <use style="stroke:#000000;stroke-width:0.8;" x="180" xlink:href="#m9dc24b0d62" y="533.259071"/>
      </g>
     </g>
     <g id="text_11">
      <!-- 10 -->
      <g transform="translate(160.275 537.058289)scale(0.1 -0.1)">
       <use xlink:href="#DejaVuSans-49"/>
       <use x="63.623047" xlink:href="#DejaVuSans-48"/>
      </g>
     </g>
    </g>
    <g id="ytick_3">
     <g id="line2d_12">
      <g>
       <use style="stroke:#000000;stroke-width:0.8;" x="180" xlink:href="#m9dc24b0d62" y="456.296497"/>
      </g>
     </g>
     <g id="text_12">
      <!-- 15 -->
      <g transform="translate(160.275 460.095716)scale(0.1 -0.1)">
       <use xlink:href="#DejaVuSans-49"/>
       <use x="63.623047" xlink:href="#DejaVuSans-53"/>
      </g>
     </g>
    </g>
    <g id="ytick_4">
     <g id="line2d_13">
      <g>
       <use style="stroke:#000000;stroke-width:0.8;" x="180" xlink:href="#m9dc24b0d62" y="379.333923"/>
      </g>
     </g>
     <g id="text_13">
      <!-- 20 -->
      <g transform="translate(160.275 383.133142)scale(0.1 -0.1)">
       <use xlink:href="#DejaVuSans-50"/>
       <use x="63.623047" xlink:href="#DejaVuSans-48"/>
      </g>
     </g>
    </g>
    <g id="ytick_5">
     <g id="line2d_14">
      <g>
       <use style="stroke:#000000;stroke-width:0.8;" x="180" xlink:href="#m9dc24b0d62" y="302.371349"/>
      </g>
     </g>
     <g id="text_14">
      <!-- 25 -->
      <g transform="translate(160.275 306.170568)scale(0.1 -0.1)">
       <use xlink:href="#DejaVuSans-50"/>
       <use x="63.623047" xlink:href="#DejaVuSans-53"/>
      </g>
     </g>
    </g>
    <g id="ytick_6">
     <g id="line2d_15">
      <g>
       <use style="stroke:#000000;stroke-width:0.8;" x="180" xlink:href="#m9dc24b0d62" y="225.408775"/>
      </g>
     </g>
     <g id="text_15">
      <!-- 30 -->
      <g transform="translate(160.275 229.207994)scale(0.1 -0.1)">
       <use xlink:href="#DejaVuSans-51"/>
       <use x="63.623047" xlink:href="#DejaVuSans-48"/>
      </g>
     </g>
    </g>
    <g id="ytick_7">
     <g id="line2d_16">
      <g>
       <use style="stroke:#000000;stroke-width:0.8;" x="180" xlink:href="#m9dc24b0d62" y="148.446201"/>
      </g>
     </g>
     <g id="text_16">
      <!-- 35 -->
      <g transform="translate(160.275 152.24542)scale(0.1 -0.1)">
       <use xlink:href="#DejaVuSans-51"/>
       <use x="63.623047" xlink:href="#DejaVuSans-53"/>
      </g>
     </g>
    </g>
   </g>
   <g id="line2d_17">
    <path clip-path="url(#p8cf1d93785)" d="M 230.727273 536.794218 
L 252.313346 565.927118 
L 273.89942 564.290381 
L 295.485493 578.05642 
L 317.071567 588.815787 
L 338.65764 567.117472 
L 360.243714 526.501757 
L 381.829787 506.8763 
L 403.415861 480.252381 
L 425.001934 446.199007 
L 446.588008 401.155378 
L 468.174081 377.517606 
L 489.760155 354.577628 
L 511.346228 299.775145 
L 532.932302 289.287711 
L 554.518375 285.213826 
L 576.104449 283.310285 
L 597.690522 332.299528 
L 619.276596 368.769527 
L 640.862669 392.612532 
L 662.448743 386.629975 
L 684.034816 391.288776 
L 705.62089 371.642796 
L 727.206963 363.413665 
L 748.793037 365.6038 
L 770.37911 345.049662 
L 791.965184 288.54374 
L 813.551257 295.465241 
L 835.137331 297.815164 
L 856.723404 323.087551 
L 878.309478 316.871098 
L 899.895551 320.016302 
L 921.481625 322.684338 
L 943.067698 311.452933 
L 964.653772 308.677149 
L 986.239845 261.06297 
L 1007.825919 227.676605 
L 1029.411992 209.119248 
L 1050.998066 187.645805 
L 1072.584139 155.861147 
L 1094.170213 185.177872 
L 1115.756286 249.667378 
L 1137.34236 279.190222 
L 1158.928433 296.065549 
L 1180.514507 271.791553 
L 1202.10058 293.731017 
L 1223.686654 277.21998 
L 1245.272727 282.160977 
" style="fill:none;stroke:#1f77b4;stroke-linecap:square;stroke-width:1.5;"/>
   </g>
   <g id="line2d_18">
    <path clip-path="url(#p8cf1d93785)" d="M 230.727273 546.455587 
L 252.313346 565.152361 
L 273.89942 567.617363 
L 295.485493 582.109782 
L 317.071567 593.869663 
L 338.65764 578.359139 
L 360.243714 536.655686 
L 381.829787 516.917351 
L 403.415861 489.693123 
L 425.001934 454.813685 
L 446.588008 413.602792 
L 468.174081 391.273383 
L 489.760155 376.425268 
L 511.346228 341.104047 
L 532.932302 320.31389 
L 554.518375 298.002243 
L 576.104449 321.730002 
L 597.690522 366.388818 
L 619.276596 389.149216 
L 640.862669 406.891655 
L 662.448743 407.112281 
L 684.034816 410.293401 
L 705.62089 400.072771 
L 727.206963 386.275947 
L 748.793037 367.091743 
L 770.37911 342.879317 
L 791.965184 286.055283 
L 813.551257 314.331333 
L 835.137331 317.507322 
L 856.723404 332.453454 
L 878.309478 329.354427 
L 899.895551 330.529389 
L 921.481625 323.597627 
L 943.067698 311.848007 
L 964.653772 304.762319 
L 986.239845 277.461129 
L 1007.825919 237.307189 
L 1029.411992 227.917755 
L 1050.998066 202.638115 
L 1072.584139 169.657086 
L 1094.170213 195.295885 
L 1115.756286 268.415461 
L 1137.34236 308.420607 
L 1158.928433 323.402655 
L 1180.514507 308.025533 
L 1202.10058 339.77516 
L 1223.686654 307.635589 
L 1245.272727 308.913168 
" style="fill:none;stroke:#ff7f0e;stroke-linecap:square;stroke-width:1.5;"/>
   </g>
   <g id="line2d_19">
    <path clip-path="url(#p8cf1d93785)" d="M 230.727273 515.106165 
L 252.313346 552.509976 
L 273.89942 538.979955 
L 295.485493 560.457644 
L 317.071567 568.610546 
L 338.65764 550.980986 
L 360.243714 496.830119 
L 381.829787 469.35448 
L 403.415861 431.46324 
L 425.001934 387.173844 
L 446.588008 334.14663 
L 468.174081 330.365202 
L 489.760155 305.537076 
L 511.346228 275.501149 
L 532.932302 246.552959 
L 554.518375 257.271281 
L 576.104449 272.345683 
L 597.690522 327.733082 
L 619.276596 340.785935 
L 640.862669 352.494508 
L 662.448743 373.171786 
L 684.034816 367.892153 
L 705.62089 355.008619 
L 727.206963 326.419588 
L 748.793037 284.62891 
L 770.37911 253.756656 
L 791.965184 222.099384 
L 813.551257 241.796672 
L 835.137331 231.832584 
L 856.723404 256.558094 
L 878.309478 264.690473 
L 899.895551 255.265123 
L 921.481625 239.949571 
L 943.067698 223.818215 
L 964.653772 212.335399 
L 986.239845 191.806915 
L 1007.825919 170.529329 
L 1029.411992 155.04959 
L 1050.998066 133.966975 
L 1072.584139 111.109091 
L 1094.170213 163.551389 
L 1115.756286 214.372342 
L 1137.34236 262.556044 
L 1158.928433 258.379542 
L 1180.514507 253.648909 
L 1202.10058 264.536548 
L 1223.686654 242.586821 
L 1245.272727 237.122479 
" style="fill:none;stroke:#2ca02c;stroke-linecap:square;stroke-width:1.5;"/>
   </g>
   <g id="line2d_20">
    <path clip-path="url(#p8cf1d93785)" d="M 230.727273 545.932241 
L 252.313346 559.87786 
L 273.89942 551.417107 
L 295.485493 575.803982 
L 317.071567 583.176996 
L 338.65764 572.556161 
L 360.243714 532.171333 
L 381.829787 508.148748 
L 403.415861 473.505328 
L 425.001934 437.70747 
L 446.588008 397.732029 
L 468.174081 378.015297 
L 489.760155 347.722828 
L 511.346228 292.786943 
L 532.932302 283.787453 
L 554.518375 279.087605 
L 576.104449 301.068116 
L 597.690522 352.725396 
L 619.276596 370.313909 
L 640.862669 387.753628 
L 662.448743 402.02762 
L 684.034816 385.978358 
L 705.62089 377.045569 
L 727.206963 356.830066 
L 748.793037 331.175875 
L 770.37911 313.182025 
L 791.965184 249.051678 
L 813.551257 276.860821 
L 835.137331 274.505766 
L 856.723404 298.179454 
L 878.309478 305.542207 
L 899.895551 302.704853 
L 921.481625 300.165088 
L 943.067698 297.409828 
L 964.653772 269.256919 
L 986.239845 221.370805 
L 1007.825919 197.260996 
L 1029.411992 193.541138 
L 1050.998066 167.450826 
L 1072.584139 132.314845 
L 1094.170213 187.743291 
L 1115.756286 233.197387 
L 1137.34236 271.976263 
L 1158.928433 279.323623 
L 1180.514507 265.383136 
L 1202.10058 295.932147 
L 1223.686654 274.105561 
L 1245.272727 273.351328 
" style="fill:none;stroke:#d62728;stroke-linecap:square;stroke-width:1.5;"/>
   </g>
   <g id="line2d_21">
    <path clip-path="url(#p8cf1d93785)" d="M 230.727273 543.525878 
L 252.313346 544.859896 
L 273.89942 564.444306 
L 295.485493 579.236512 
L 317.071567 587.574125 
L 338.65764 572.987151 
L 360.243714 537.194424 
L 381.829787 511.411961 
L 403.415861 469.23134 
L 425.001934 430.216446 
L 446.588008 393.402681 
L 468.174081 374.197954 
L 489.760155 347.928062 
L 511.346228 304.264628 
L 532.932302 296.37853 
L 554.518375 289.010646 
L 576.104449 311.62225 
L 597.690522 357.34315 
L 619.276596 369.960412 
L 640.862669 407.430393 
L 662.448743 410.580728 
L 684.034816 400.472976 
L 705.62089 388.523254 
L 727.206963 366.753107 
L 748.793037 341.394028 
L 770.37911 286.045022 
L 791.965184 260.098372 
L 813.551257 288.943945 
L 835.137331 289.354412 
L 856.723404 310.652522 
L 878.309478 327.810045 
L 899.895551 319.45704 
L 921.481625 305.531945 
L 943.067698 300.098388 
L 964.653772 300.72435 
L 986.239845 233.474453 
L 1007.825919 206.486243 
L 1029.411992 206.973673 
L 1050.998066 178.836156 
L 1072.584139 157.727887 
L 1094.170213 197.553454 
L 1115.756286 262.863894 
L 1137.34236 299.513472 
L 1158.928433 308.230766 
L 1180.514507 304.305675 
L 1202.10058 323.43344 
L 1223.686654 285.260003 
L 1245.272727 287.599665 
" style="fill:none;stroke:#9467bd;stroke-linecap:square;stroke-width:1.5;"/>
   </g>
   <g id="line2d_22">
    <path clip-path="url(#p8cf1d93785)" d="M 230.727273 538.379647 
L 252.313346 566.260622 
L 273.89942 562.689559 
L 295.485493 580.868119 
L 317.071567 585.249855 
L 338.65764 570.370424 
L 360.243714 523.751627 
L 381.829787 507.846029 
L 403.415861 468.73878 
L 425.001934 428.410391 
L 446.588008 396.193857 
L 468.174081 367.922939 
L 489.760155 362.920371 
L 511.346228 330.308763 
L 532.932302 303.423171 
L 554.518375 297.409828 
L 576.104449 311.519633 
L 597.690522 365.30108 
L 619.276596 384.223612 
L 640.862669 401.478621 
L 662.448743 401.863434 
L 684.034816 391.591495 
L 705.62089 383.84393 
L 727.206963 365.906519 
L 748.793037 362.612521 
L 770.37911 354.367264 
L 791.965184 287.163544 
L 813.551257 304.818759 
L 835.137331 308.210243 
L 856.723404 329.73924 
L 878.309478 319.816199 
L 899.895551 313.392389 
L 921.481625 310.734615 
L 943.067698 303.341077 
L 964.653772 290.775654 
L 986.239845 272.258459 
L 1007.825919 236.424685 
L 1029.411992 222.607337 
L 1050.998066 193.494961 
L 1072.584139 178.825894 
L 1094.170213 200.570387 
L 1115.756286 278.610437 
L 1137.34236 301.878788 
L 1158.928433 311.827484 
L 1180.514507 300.303621 
L 1202.10058 326.029644 
L 1223.686654 295.916754 
L 1245.272727 298.410342 
" style="fill:none;stroke:#8c564b;stroke-linecap:square;stroke-width:1.5;"/>
   </g>
   <g id="line2d_23">
    <path clip-path="url(#p8cf1d93785)" d="M 230.727273 533.520743 
L 252.313346 560.852719 
L 273.89942 558.944047 
L 295.485493 570.893769 
L 317.071567 583.828613 
L 338.65764 567.989715 
L 360.243714 520.837311 
L 381.829787 500.370397 
L 403.415861 461.617176 
L 425.001934 427.79469 
L 446.588008 387.625357 
L 468.174081 363.997847 
L 489.760155 341.801841 
L 511.346228 307.163552 
L 532.932302 277.189195 
L 554.518375 279.333885 
L 576.104449 293.228195 
L 597.690522 344.151765 
L 619.276596 357.379066 
L 640.862669 383.033257 
L 662.448743 376.968606 
L 684.034816 371.170759 
L 705.62089 361.6274 
L 727.206963 341.632523 
L 748.793037 334.603275 
L 770.37911 306.994234 
L 791.965184 247.994725 
L 813.551257 272.232805 
L 835.137331 276.106588 
L 856.723404 296.778735 
L 878.309478 302.412396 
L 899.895551 302.935741 
L 921.481625 296.173296 
L 943.067698 285.880835 
L 964.653772 279.79743 
L 986.239845 252.294367 
L 1007.825919 210.011129 
L 1029.411992 202.735601 
L 1050.998066 171.411833 
L 1072.584139 135.808946 
L 1094.170213 179.600651 
L 1115.756286 245.049624 
L 1137.34236 278.584783 
L 1158.928433 286.209208 
L 1180.514507 278.477035 
L 1202.10058 299.374939 
L 1223.686654 275.32157 
L 1245.272727 275.306177 
" style="fill:none;stroke:#e377c2;stroke-linecap:square;stroke-width:1.5;"/>
   </g>
   <g id="line2d_24">
    <path clip-path="url(#p8cf1d93785)" d="M 230.727273 536.081032 
L 252.313346 559.703411 
L 273.89942 558.112851 
L 295.485493 571.596694 
L 317.071567 580.529484 
L 338.65764 567.553594 
L 360.243714 532.294473 
L 381.829787 510.411448 
L 403.415861 472.869104 
L 425.001934 431.673604 
L 446.588008 390.991187 
L 468.174081 366.173323 
L 489.760155 352.745919 
L 511.346228 314.480127 
L 532.932302 288.554001 
L 554.518375 292.751027 
L 576.104449 299.646874 
L 597.690522 359.662289 
L 619.276596 375.968093 
L 640.862669 407.16872 
L 662.448743 411.605126 
L 684.034816 410.770569 
L 705.62089 405.198478 
L 727.206963 367.522733 
L 748.793037 341.191271 
L 770.37911 320.785927 
L 791.965184 270.724338 
L 813.551257 294.864932 
L 835.137331 291.288738 
L 856.723404 308.518093 
L 878.309478 333.130724 
L 899.895551 326.645345 
L 921.481625 309.590438 
L 943.067698 305.80901 
L 964.653772 300.873144 
L 986.239845 265.275388 
L 1007.825919 223.505234 
L 1029.411992 210.960334 
L 1050.998066 202.186601 
L 1072.584139 158.441074 
L 1094.170213 208.72842 
L 1115.756286 279.102997 
L 1137.34236 305.855188 
L 1158.928433 312.104549 
L 1180.514507 306.804393 
L 1202.10058 325.767971 
L 1223.686654 296.573502 
L 1245.272727 281.647893 
" style="fill:none;stroke:#7f7f7f;stroke-linecap:square;stroke-width:1.5;"/>
   </g>
   <g id="line2d_25">
    <path clip-path="url(#p8cf1d93785)" d="M 230.727273 526.758299 
L 252.313346 549.703407 
L 273.89942 546.224699 
L 295.485493 565.44995 
L 317.071567 568.974836 
L 338.65764 551.483808 
L 360.243714 518.646443 
L 381.829787 498.42581 
L 403.415861 451.740312 
L 425.001934 414.726445 
L 446.588008 380.262605 
L 468.174081 354.675114 
L 489.760155 335.844938 
L 511.346228 300.390845 
L 532.932302 270.442142 
L 554.518375 265.942397 
L 576.104449 260.360045 
L 597.690522 332.037856 
L 619.276596 348.328267 
L 640.862669 376.347775 
L 662.448743 369.528891 
L 684.034816 351.047611 
L 705.62089 345.342119 
L 727.206963 345.280549 
L 748.793037 345.352381 
L 770.37911 338.174338 
L 791.965184 274.22357 
L 813.551257 288.825936 
L 835.137331 301.386228 
L 856.723404 315.96807 
L 878.309478 299.549388 
L 899.895551 291.832607 
L 921.481625 287.743329 
L 943.067698 283.258976 
L 964.653772 298.754108 
L 986.239845 271.647889 
L 1007.825919 235.131713 
L 1029.411992 222.674038 
L 1050.998066 200.493424 
L 1072.584139 173.012655 
L 1094.170213 193.628363 
L 1115.756286 257.799757 
L 1137.34236 300.021425 
L 1158.928433 313.187156 
L 1180.514507 296.291306 
L 1202.10058 315.054781 
L 1223.686654 285.05477 
L 1245.272727 285.059901 
" style="fill:none;stroke:#bcbd22;stroke-linecap:square;stroke-width:1.5;"/>
   </g>
   <g id="line2d_26">
    <path clip-path="url(#p8cf1d93785)" d="M 230.727273 548.92352 
L 252.313346 561.088737 
L 273.89942 556.347843 
L 295.485493 576.984074 
L 317.071567 581.473558 
L 338.65764 567.266267 
L 360.243714 527.943522 
L 381.829787 505.193385 
L 403.415861 467.137958 
L 425.001934 430.047128 
L 446.588008 391.699243 
L 468.174081 371.996824 
L 489.760155 337.733086 
L 511.346228 294.433942 
L 532.932302 284.562209 
L 554.518375 279.108128 
L 576.104449 300.390845 
L 597.690522 347.522726 
L 619.276596 370.975787 
L 640.862669 393.300065 
L 662.448743 393.797756 
L 684.034816 385.896265 
L 705.62089 376.999391 
L 727.206963 361.191279 
L 748.793037 344.669979 
L 770.37911 309.190233 
L 791.965184 264.557071 
L 813.551257 285.690994 
L 835.137331 279.369801 
L 856.723404 300.657649 
L 878.309478 299.395463 
L 899.895551 311.591465 
L 921.481625 303.130713 
L 943.067698 299.067089 
L 964.653772 277.276419 
L 986.239845 228.595025 
L 1007.825919 203.864385 
L 1029.411992 195.808969 
L 1050.998066 174.126046 
L 1072.584139 141.134756 
L 1094.170213 188.795113 
L 1115.756286 243.900316 
L 1137.34236 287.876731 
L 1158.928433 285.54733 
L 1180.514507 284.356976 
L 1202.10058 317.107116 
L 1223.686654 288.466777 
L 1245.272727 283.910593 
" style="fill:none;stroke:#17becf;stroke-linecap:square;stroke-width:1.5;"/>
   </g>
   <g id="line2d_27">
    <path clip-path="url(#p8cf1d93785)" d="M 230.727273 545.706484 
L 252.313346 571.376068 
L 273.89942 572.97689 
L 295.485493 594.649551 
L 317.071567 605.290909 
L 338.65764 590.611581 
L 360.243714 564.110801 
L 381.829787 540.642347 
L 403.415861 500.529453 
L 425.001934 449.385258 
L 446.588008 393.910634 
L 468.174081 378.348802 
L 489.760155 362.05326 
L 511.346228 336.393937 
L 532.932302 317.825434 
L 554.518375 318.872125 
L 576.104449 335.891115 
L 597.690522 409.046607 
L 619.276596 412.36626 
L 640.862669 431.9558 
L 662.448743 440.70901 
L 684.034816 438.307778 
L 705.62089 414.716183 
L 727.206963 379.539156 
L 748.793037 337.086601 
L 770.37911 315.973201 
L 791.965184 263.418025 
L 813.551257 292.058364 
L 835.137331 277.40469 
L 856.723404 311.370839 
L 878.309478 373.022992 
L 899.895551 346.32724 
L 921.481625 317.035285 
L 943.067698 299.246668 
L 964.653772 295.183044 
L 986.239845 233.577069 
L 1007.825919 210.50369 
L 1029.411992 197.928005 
L 1050.998066 179.816146 
L 1072.584139 143.187092 
L 1094.170213 204.669927 
L 1115.756286 256.260505 
L 1137.34236 300.929583 
L 1158.928433 306.609421 
L 1180.514507 290.006029 
L 1202.10058 326.609429 
L 1223.686654 296.855698 
L 1245.272727 281.904435 
" style="fill:none;stroke:#1f77b4;stroke-linecap:square;stroke-width:1.5;"/>
   </g>
   <g id="line2d_28">
    <path clip-path="url(#p8cf1d93785)" d="M 230.727273 539.734189 
L 252.313346 555.993815 
L 273.89942 558.861954 
L 295.485493 575.593617 
L 317.071567 584.469967 
L 338.65764 565.290894 
L 360.243714 521.668507 
L 381.829787 499.662342 
L 403.415861 464.628978 
L 425.001934 427.420139 
L 446.588008 387.286722 
L 468.174081 365.270295 
L 489.760155 348.52837 
L 511.346228 310.616606 
L 532.932302 283.489864 
L 554.518375 280.765389 
L 576.104449 302.248209 
L 597.690522 347.902408 
L 619.276596 367.178967 
L 640.862669 391.673589 
L 662.448743 394.772615 
L 684.034816 387.758759 
L 705.62089 374.97271 
L 727.206963 352.956283 
L 748.793037 340.313898 
L 770.37911 324.818766 
L 791.965184 268.179443 
L 813.551257 287.656105 
L 835.137331 287.743329 
L 856.723404 307.286692 
L 878.309478 306.701776 
L 899.895551 313.45909 
L 921.481625 305.388282 
L 943.067698 297.835688 
L 964.653772 283.859284 
L 986.239845 243.756653 
L 1007.825919 211.786399 
L 1029.411992 210.144531 
L 1050.998066 192.407223 
L 1072.584139 160.123989 
L 1094.170213 207.727906 
L 1115.756286 264.541678 
L 1137.34236 286.963442 
L 1158.928433 284.069649 
L 1180.514507 292.089149 
L 1202.10058 313.843903 
L 1223.686654 289.533992 
L 1245.272727 280.431884 
" style="fill:none;stroke:#ff7f0e;stroke-linecap:square;stroke-width:1.5;"/>
   </g>
   <g id="line2d_29">
    <path clip-path="url(#p8cf1d93785)" d="M 230.727273 544.747018 
L 252.313346 560.98099 
L 273.89942 558.636197 
L 295.485493 571.093872 
L 317.071567 577.645953 
L 338.65764 565.260109 
L 360.243714 522.54588 
L 381.829787 493.931195 
L 403.415861 463.284698 
L 425.001934 420.945021 
L 446.588008 387.168713 
L 468.174081 381.688978 
L 489.760155 359.600719 
L 511.346228 316.440107 
L 532.932302 284.526293 
L 554.518375 294.654568 
L 576.104449 301.729994 
L 597.690522 351.950639 
L 619.276596 364.254389 
L 640.862669 390.139468 
L 662.448743 393.890111 
L 684.034816 386.948087 
L 705.62089 380.555062 
L 727.206963 366.922425 
L 748.793037 288.184581 
L 770.37911 241.550392 
L 791.965184 261.48883 
L 813.551257 284.19792 
L 835.137331 283.951639 
L 856.723404 295.141998 
L 878.309478 317.158425 
L 899.895551 302.017321 
L 921.481625 302.140461 
L 943.067698 306.59916 
L 964.653772 290.909056 
L 986.239845 246.973688 
L 1007.825919 207.974186 
L 1029.411992 197.830519 
L 1050.998066 169.749441 
L 1072.584139 156.322038 
L 1094.170213 209.913643 
L 1115.756286 275.891093 
L 1137.34236 283.83363 
L 1158.928433 297.322604 
L 1180.514507 290.149692 
L 1202.10058 297.127632 
L 1223.686654 277.271288 
L 1245.272727 292.997307 
" style="fill:none;stroke:#2ca02c;stroke-linecap:square;stroke-width:1.5;"/>
   </g>
   <g id="line2d_30">
    <path clip-path="url(#p8cf1d93785)" d="M 230.727273 533.643884 
L 252.313346 564.962343 
L 273.89942 565.08566 
L 295.485493 579.067195 
L 317.071567 586.522303 
L 338.65764 569.54949 
L 360.243714 524.803449 
L 381.829787 506.553058 
L 403.415861 462.597166 
L 425.001934 428.066625 
L 446.588008 394.788008 
L 468.174081 363.741305 
L 489.760155 343.074289 
L 511.346228 312.766427 
L 532.932302 279.693044 
L 554.518375 275.773083 
L 576.104449 294.326194 
L 597.690522 353.479629 
L 619.276596 371.3606 
L 640.862669 391.042496 
L 662.448743 388.405245 
L 684.034816 384.357013 
L 705.62089 373.766963 
L 727.206963 361.26311 
L 748.793037 350.324163 
L 770.37911 322.443188 
L 791.965184 277.558615 
L 813.551257 297.517576 
L 835.137331 291.042458 
L 856.723404 296.56324 
L 878.309478 317.025023 
L 899.895551 303.2949 
L 921.481625 297.394436 
L 943.067698 287.62532 
L 964.653772 276.116849 
L 986.239845 271.237422 
L 1007.825919 224.654542 
L 1029.411992 213.802819 
L 1050.998066 172.109627 
L 1072.584139 141.591401 
L 1094.170213 169.580124 
L 1115.756286 243.813092 
L 1137.34236 274.675084 
L 1158.928433 290.616598 
L 1180.514507 274.274879 
L 1202.10058 310.903933 
L 1223.686654 276.85569 
L 1245.272727 264.562202 
" style="fill:none;stroke:#d62728;stroke-linecap:square;stroke-width:1.5;"/>
   </g>
   <g id="line2d_31">
    <path clip-path="url(#p8cf1d93785)" d="M 230.727273 547.774212 
L 252.313346 565.567959 
L 273.89942 566.445333 
L 295.485493 586.142621 
L 317.071567 596.209325 
L 338.65764 582.976893 
L 360.243714 538.708021 
L 381.829787 517.03536 
L 403.415861 488.133348 
L 425.001934 451.54021 
L 446.588008 411.986578 
L 468.174081 383.654089 
L 489.760155 368.097387 
L 511.346228 328.246166 
L 532.932302 302.540667 
L 554.518375 292.607364 
L 576.104449 283.700228 
L 597.690522 357.594561 
L 619.276596 378.219292 
L 640.862669 387.27646 
L 662.448743 398.65666 
L 684.034816 396.255427 
L 705.62089 389.646908 
L 727.206963 374.890617 
L 748.793037 364.967576 
L 770.37911 336.624825 
L 791.965184 279.662259 
L 813.551257 306.588898 
L 835.137331 314.772585 
L 856.723404 331.068127 
L 878.309478 332.109687 
L 899.895551 327.922923 
L 921.481625 324.439084 
L 943.067698 317.030154 
L 964.653772 306.712038 
L 986.239845 272.479085 
L 1007.825919 239.959832 
L 1029.411992 218.538582 
L 1050.998066 189.443572 
L 1072.584139 161.622194 
L 1094.170213 192.191728 
L 1115.756286 255.73716 
L 1137.34236 288.297459 
L 1158.928433 283.659182 
L 1180.514507 287.250768 
L 1202.10058 312.699726 
L 1223.686654 296.686734 
L 1245.272727 297.270588 
" style="fill:none;stroke:#9467bd;stroke-linecap:square;stroke-width:1.5;"/>
   </g>
   <g id="line2d_32">
    <path clip-path="url(#p8cf1d93785)" d="M 230.727273 537.29704 
L 252.313346 573.602852 
L 273.89942 563.684942 
L 295.485493 581.750623 
L 317.071567 587.42533 
L 338.65764 563.628502 
L 360.243714 503.977377 
L 381.829787 491.350384 
L 403.415861 464.475053 
L 425.001934 419.908592 
L 446.588008 378.384718 
L 468.174081 370.657675 
L 489.760155 357.332888 
L 511.346228 325.921896 
L 532.932302 304.105572 
L 554.518375 287.420086 
L 576.104449 298.672014 
L 597.690522 347.296969 
L 619.276596 370.396003 
L 640.862669 391.247729 
L 662.448743 391.637673 
L 684.034816 376.599186 
L 705.62089 363.761829 
L 727.206963 353.741302 
L 748.793037 323.674589 
L 770.37911 304.064525 
L 791.965184 261.016792 
L 813.551257 279.959847 
L 835.137331 271.981394 
L 856.723404 299.13379 
L 878.309478 296.07581 
L 899.895551 284.07478 
L 921.481625 276.111719 
L 943.067698 268.025518 
L 964.653772 260.657634 
L 986.239845 234.172247 
L 1007.825919 203.597581 
L 1029.411992 185.501115 
L 1050.998066 171.647852 
L 1072.584139 133.284574 
L 1094.170213 174.310757 
L 1115.756286 247.204576 
L 1137.34236 294.562213 
L 1158.928433 301.971143 
L 1180.514507 285.100947 
L 1202.10058 307.148159 
L 1223.686654 278.851586 
L 1245.272727 265.603762 
" style="fill:none;stroke:#8c564b;stroke-linecap:square;stroke-width:1.5;"/>
   </g>
   <g id="patch_3">
    <path d="M 180 630 
L 180 86.4 
" style="fill:none;stroke:#000000;stroke-linecap:square;stroke-linejoin:miter;stroke-width:0.8;"/>
   </g>
   <g id="patch_4">
    <path d="M 1296 630 
L 1296 86.4 
" style="fill:none;stroke:#000000;stroke-linecap:square;stroke-linejoin:miter;stroke-width:0.8;"/>
   </g>
   <g id="patch_5">
    <path d="M 180 630 
L 1296 630 
" style="fill:none;stroke:#000000;stroke-linecap:square;stroke-linejoin:miter;stroke-width:0.8;"/>
   </g>
   <g id="patch_6">
    <path d="M 180 86.4 
L 1296 86.4 
" style="fill:none;stroke:#000000;stroke-linecap:square;stroke-linejoin:miter;stroke-width:0.8;"/>
   </g>
   <g id="legend_1">
    <g id="patch_7">
     <path d="M 187 333.7 
L 275.503125 333.7 
Q 277.503125 333.7 277.503125 331.7 
L 277.503125 93.4 
Q 277.503125 91.4 275.503125 91.4 
L 187 91.4 
Q 185 91.4 185 93.4 
L 185 331.7 
Q 185 333.7 187 333.7 
z
" style="fill:#ffffff;opacity:0.8;stroke:#cccccc;stroke-linejoin:miter;"/>
    </g>
    <g id="line2d_33">
     <path d="M 189 99.498437 
L 209 99.498437 
" style="fill:none;stroke:#1f77b4;stroke-linecap:square;stroke-width:1.5;"/>
    </g>
    <g id="line2d_34"/>
    <g id="text_17">
     <!-- PA_II_E6D8 -->
     <defs>
      <path d="M 19.671875 64.796875 
L 19.671875 37.40625 
L 32.078125 37.40625 
Q 38.96875 37.40625 42.71875 40.96875 
Q 46.484375 44.53125 46.484375 51.125 
Q 46.484375 57.671875 42.71875 61.234375 
Q 38.96875 64.796875 32.078125 64.796875 
z
M 9.8125 72.90625 
L 32.078125 72.90625 
Q 44.34375 72.90625 50.609375 67.359375 
Q 56.890625 61.8125 56.890625 51.125 
Q 56.890625 40.328125 50.609375 34.8125 
Q 44.34375 29.296875 32.078125 29.296875 
L 19.671875 29.296875 
L 19.671875 0 
L 9.8125 0 
z
" id="DejaVuSans-80"/>
      <path d="M 34.1875 63.1875 
L 20.796875 26.90625 
L 47.609375 26.90625 
z
M 28.609375 72.90625 
L 39.796875 72.90625 
L 67.578125 0 
L 57.328125 0 
L 50.6875 18.703125 
L 17.828125 18.703125 
L 11.1875 0 
L 0.78125 0 
z
" id="DejaVuSans-65"/>
      <path d="M 50.984375 -16.609375 
L 50.984375 -23.578125 
L -0.984375 -23.578125 
L -0.984375 -16.609375 
z
" id="DejaVuSans-95"/>
      <path d="M 9.8125 72.90625 
L 19.671875 72.90625 
L 19.671875 0 
L 9.8125 0 
z
" id="DejaVuSans-73"/>
      <path d="M 9.8125 72.90625 
L 55.90625 72.90625 
L 55.90625 64.59375 
L 19.671875 64.59375 
L 19.671875 43.015625 
L 54.390625 43.015625 
L 54.390625 34.71875 
L 19.671875 34.71875 
L 19.671875 8.296875 
L 56.78125 8.296875 
L 56.78125 0 
L 9.8125 0 
z
" id="DejaVuSans-69"/>
      <path d="M 19.671875 64.796875 
L 19.671875 8.109375 
L 31.59375 8.109375 
Q 46.6875 8.109375 53.6875 14.9375 
Q 60.6875 21.78125 60.6875 36.53125 
Q 60.6875 51.171875 53.6875 57.984375 
Q 46.6875 64.796875 31.59375 64.796875 
z
M 9.8125 72.90625 
L 30.078125 72.90625 
Q 51.265625 72.90625 61.171875 64.09375 
Q 71.09375 55.28125 71.09375 36.53125 
Q 71.09375 17.671875 61.125 8.828125 
Q 51.171875 0 30.078125 0 
L 9.8125 0 
z
" id="DejaVuSans-68"/>
     </defs>
     <g transform="translate(217 102.998437)scale(0.1 -0.1)">
      <use xlink:href="#DejaVuSans-80"/>
      <use x="60.208984" xlink:href="#DejaVuSans-65"/>
      <use x="128.617188" xlink:href="#DejaVuSans-95"/>
      <use x="178.617188" xlink:href="#DejaVuSans-73"/>
      <use x="208.109375" xlink:href="#DejaVuSans-73"/>
      <use x="237.601562" xlink:href="#DejaVuSans-95"/>
      <use x="287.601562" xlink:href="#DejaVuSans-69"/>
      <use x="350.785156" xlink:href="#DejaVuSans-54"/>
      <use x="414.408203" xlink:href="#DejaVuSans-68"/>
      <use x="491.410156" xlink:href="#DejaVuSans-56"/>
     </g>
    </g>
    <g id="line2d_35">
     <path d="M 189 114.454687 
L 209 114.454687 
" style="fill:none;stroke:#ff7f0e;stroke-linecap:square;stroke-width:1.5;"/>
    </g>
    <g id="line2d_36"/>
    <g id="text_18">
     <!-- PA_II_0D9C -->
     <defs>
      <path d="M 10.984375 1.515625 
L 10.984375 10.5 
Q 14.703125 8.734375 18.5 7.8125 
Q 22.3125 6.890625 25.984375 6.890625 
Q 35.75 6.890625 40.890625 13.453125 
Q 46.046875 20.015625 46.78125 33.40625 
Q 43.953125 29.203125 39.59375 26.953125 
Q 35.25 24.703125 29.984375 24.703125 
Q 19.046875 24.703125 12.671875 31.3125 
Q 6.296875 37.9375 6.296875 49.421875 
Q 6.296875 60.640625 12.9375 67.421875 
Q 19.578125 74.21875 30.609375 74.21875 
Q 43.265625 74.21875 49.921875 64.515625 
Q 56.59375 54.828125 56.59375 36.375 
Q 56.59375 19.140625 48.40625 8.859375 
Q 40.234375 -1.421875 26.421875 -1.421875 
Q 22.703125 -1.421875 18.890625 -0.6875 
Q 15.09375 0.046875 10.984375 1.515625 
z
M 30.609375 32.421875 
Q 37.25 32.421875 41.125 36.953125 
Q 45.015625 41.5 45.015625 49.421875 
Q 45.015625 57.28125 41.125 61.84375 
Q 37.25 66.40625 30.609375 66.40625 
Q 23.96875 66.40625 20.09375 61.84375 
Q 16.21875 57.28125 16.21875 49.421875 
Q 16.21875 41.5 20.09375 36.953125 
Q 23.96875 32.421875 30.609375 32.421875 
z
" id="DejaVuSans-57"/>
      <path d="M 64.40625 67.28125 
L 64.40625 56.890625 
Q 59.421875 61.53125 53.78125 63.8125 
Q 48.140625 66.109375 41.796875 66.109375 
Q 29.296875 66.109375 22.65625 58.46875 
Q 16.015625 50.828125 16.015625 36.375 
Q 16.015625 21.96875 22.65625 14.328125 
Q 29.296875 6.6875 41.796875 6.6875 
Q 48.140625 6.6875 53.78125 8.984375 
Q 59.421875 11.28125 64.40625 15.921875 
L 64.40625 5.609375 
Q 59.234375 2.09375 53.4375 0.328125 
Q 47.65625 -1.421875 41.21875 -1.421875 
Q 24.65625 -1.421875 15.125 8.703125 
Q 5.609375 18.84375 5.609375 36.375 
Q 5.609375 53.953125 15.125 64.078125 
Q 24.65625 74.21875 41.21875 74.21875 
Q 47.75 74.21875 53.53125 72.484375 
Q 59.328125 70.75 64.40625 67.28125 
z
" id="DejaVuSans-67"/>
     </defs>
     <g transform="translate(217 117.954687)scale(0.1 -0.1)">
      <use xlink:href="#DejaVuSans-80"/>
      <use x="60.208984" xlink:href="#DejaVuSans-65"/>
      <use x="128.617188" xlink:href="#DejaVuSans-95"/>
      <use x="178.617188" xlink:href="#DejaVuSans-73"/>
      <use x="208.109375" xlink:href="#DejaVuSans-73"/>
      <use x="237.601562" xlink:href="#DejaVuSans-95"/>
      <use x="287.601562" xlink:href="#DejaVuSans-48"/>
      <use x="351.224609" xlink:href="#DejaVuSans-68"/>
      <use x="428.226562" xlink:href="#DejaVuSans-57"/>
      <use x="491.849609" xlink:href="#DejaVuSans-67"/>
     </g>
    </g>
    <g id="line2d_37">
     <path d="M 189 129.410937 
L 209 129.410937 
" style="fill:none;stroke:#2ca02c;stroke-linecap:square;stroke-width:1.5;"/>
    </g>
    <g id="line2d_38"/>
    <g id="text_19">
     <!-- PA_II_0DA2 -->
     <g transform="translate(217 132.910937)scale(0.1 -0.1)">
      <use xlink:href="#DejaVuSans-80"/>
      <use x="60.208984" xlink:href="#DejaVuSans-65"/>
      <use x="128.617188" xlink:href="#DejaVuSans-95"/>
      <use x="178.617188" xlink:href="#DejaVuSans-73"/>
      <use x="208.109375" xlink:href="#DejaVuSans-73"/>
      <use x="237.601562" xlink:href="#DejaVuSans-95"/>
      <use x="287.601562" xlink:href="#DejaVuSans-48"/>
      <use x="351.224609" xlink:href="#DejaVuSans-68"/>
      <use x="428.210938" xlink:href="#DejaVuSans-65"/>
      <use x="496.619141" xlink:href="#DejaVuSans-50"/>
     </g>
    </g>
    <g id="line2d_39">
     <path d="M 189 144.367188 
L 209 144.367188 
" style="fill:none;stroke:#d62728;stroke-linecap:square;stroke-width:1.5;"/>
    </g>
    <g id="line2d_40"/>
    <g id="text_20">
     <!-- PA_II_0DA8 -->
     <g transform="translate(217 147.867188)scale(0.1 -0.1)">
      <use xlink:href="#DejaVuSans-80"/>
      <use x="60.208984" xlink:href="#DejaVuSans-65"/>
      <use x="128.617188" xlink:href="#DejaVuSans-95"/>
      <use x="178.617188" xlink:href="#DejaVuSans-73"/>
      <use x="208.109375" xlink:href="#DejaVuSans-73"/>
      <use x="237.601562" xlink:href="#DejaVuSans-95"/>
      <use x="287.601562" xlink:href="#DejaVuSans-48"/>
      <use x="351.224609" xlink:href="#DejaVuSans-68"/>
      <use x="428.210938" xlink:href="#DejaVuSans-65"/>
      <use x="496.619141" xlink:href="#DejaVuSans-56"/>
     </g>
    </g>
    <g id="line2d_41">
     <path d="M 189 159.323437 
L 209 159.323437 
" style="fill:none;stroke:#9467bd;stroke-linecap:square;stroke-width:1.5;"/>
    </g>
    <g id="line2d_42"/>
    <g id="text_21">
     <!-- PA_II_0E47 -->
     <defs>
      <path d="M 8.203125 72.90625 
L 55.078125 72.90625 
L 55.078125 68.703125 
L 28.609375 0 
L 18.3125 0 
L 43.21875 64.59375 
L 8.203125 64.59375 
z
" id="DejaVuSans-55"/>
     </defs>
     <g transform="translate(217 162.823437)scale(0.1 -0.1)">
      <use xlink:href="#DejaVuSans-80"/>
      <use x="60.208984" xlink:href="#DejaVuSans-65"/>
      <use x="128.617188" xlink:href="#DejaVuSans-95"/>
      <use x="178.617188" xlink:href="#DejaVuSans-73"/>
      <use x="208.109375" xlink:href="#DejaVuSans-73"/>
      <use x="237.601562" xlink:href="#DejaVuSans-95"/>
      <use x="287.601562" xlink:href="#DejaVuSans-48"/>
      <use x="351.224609" xlink:href="#DejaVuSans-69"/>
      <use x="414.408203" xlink:href="#DejaVuSans-52"/>
      <use x="478.03125" xlink:href="#DejaVuSans-55"/>
     </g>
    </g>
    <g id="line2d_43">
     <path d="M 189 174.279687 
L 209 174.279687 
" style="fill:none;stroke:#8c564b;stroke-linecap:square;stroke-width:1.5;"/>
    </g>
    <g id="line2d_44"/>
    <g id="text_22">
     <!-- PA_II_0E49 -->
     <g transform="translate(217 177.779687)scale(0.1 -0.1)">
      <use xlink:href="#DejaVuSans-80"/>
      <use x="60.208984" xlink:href="#DejaVuSans-65"/>
      <use x="128.617188" xlink:href="#DejaVuSans-95"/>
      <use x="178.617188" xlink:href="#DejaVuSans-73"/>
      <use x="208.109375" xlink:href="#DejaVuSans-73"/>
      <use x="237.601562" xlink:href="#DejaVuSans-95"/>
      <use x="287.601562" xlink:href="#DejaVuSans-48"/>
      <use x="351.224609" xlink:href="#DejaVuSans-69"/>
      <use x="414.408203" xlink:href="#DejaVuSans-52"/>
      <use x="478.03125" xlink:href="#DejaVuSans-57"/>
     </g>
    </g>
    <g id="line2d_45">
     <path d="M 189 189.235937 
L 209 189.235937 
" style="fill:none;stroke:#e377c2;stroke-linecap:square;stroke-width:1.5;"/>
    </g>
    <g id="line2d_46"/>
    <g id="text_23">
     <!-- PA_II_0ED1 -->
     <g transform="translate(217 192.735937)scale(0.1 -0.1)">
      <use xlink:href="#DejaVuSans-80"/>
      <use x="60.208984" xlink:href="#DejaVuSans-65"/>
      <use x="128.617188" xlink:href="#DejaVuSans-95"/>
      <use x="178.617188" xlink:href="#DejaVuSans-73"/>
      <use x="208.109375" xlink:href="#DejaVuSans-73"/>
      <use x="237.601562" xlink:href="#DejaVuSans-95"/>
      <use x="287.601562" xlink:href="#DejaVuSans-48"/>
      <use x="351.224609" xlink:href="#DejaVuSans-69"/>
      <use x="414.408203" xlink:href="#DejaVuSans-68"/>
      <use x="491.410156" xlink:href="#DejaVuSans-49"/>
     </g>
    </g>
    <g id="line2d_47">
     <path d="M 189 204.192187 
L 209 204.192187 
" style="fill:none;stroke:#7f7f7f;stroke-linecap:square;stroke-width:1.5;"/>
    </g>
    <g id="line2d_48"/>
    <g id="text_24">
     <!-- PA_II_6A1A -->
     <g transform="translate(217 207.692187)scale(0.1 -0.1)">
      <use xlink:href="#DejaVuSans-80"/>
      <use x="60.208984" xlink:href="#DejaVuSans-65"/>
      <use x="128.617188" xlink:href="#DejaVuSans-95"/>
      <use x="178.617188" xlink:href="#DejaVuSans-73"/>
      <use x="208.109375" xlink:href="#DejaVuSans-73"/>
      <use x="237.601562" xlink:href="#DejaVuSans-95"/>
      <use x="287.601562" xlink:href="#DejaVuSans-54"/>
      <use x="351.224609" xlink:href="#DejaVuSans-65"/>
      <use x="419.632812" xlink:href="#DejaVuSans-49"/>
      <use x="483.255859" xlink:href="#DejaVuSans-65"/>
     </g>
    </g>
    <g id="line2d_49">
     <path d="M 189 219.148437 
L 209 219.148437 
" style="fill:none;stroke:#bcbd22;stroke-linecap:square;stroke-width:1.5;"/>
    </g>
    <g id="line2d_50"/>
    <g id="text_25">
     <!-- PA_II_806B -->
     <defs>
      <path d="M 19.671875 34.8125 
L 19.671875 8.109375 
L 35.5 8.109375 
Q 43.453125 8.109375 47.28125 11.40625 
Q 51.125 14.703125 51.125 21.484375 
Q 51.125 28.328125 47.28125 31.5625 
Q 43.453125 34.8125 35.5 34.8125 
z
M 19.671875 64.796875 
L 19.671875 42.828125 
L 34.28125 42.828125 
Q 41.5 42.828125 45.03125 45.53125 
Q 48.578125 48.25 48.578125 53.8125 
Q 48.578125 59.328125 45.03125 62.0625 
Q 41.5 64.796875 34.28125 64.796875 
z
M 9.8125 72.90625 
L 35.015625 72.90625 
Q 46.296875 72.90625 52.390625 68.21875 
Q 58.5 63.53125 58.5 54.890625 
Q 58.5 48.1875 55.375 44.234375 
Q 52.25 40.28125 46.1875 39.3125 
Q 53.46875 37.75 57.5 32.78125 
Q 61.53125 27.828125 61.53125 20.40625 
Q 61.53125 10.640625 54.890625 5.3125 
Q 48.25 0 35.984375 0 
L 9.8125 0 
z
" id="DejaVuSans-66"/>
     </defs>
     <g transform="translate(217 222.648437)scale(0.1 -0.1)">
      <use xlink:href="#DejaVuSans-80"/>
      <use x="60.208984" xlink:href="#DejaVuSans-65"/>
      <use x="128.617188" xlink:href="#DejaVuSans-95"/>
      <use x="178.617188" xlink:href="#DejaVuSans-73"/>
      <use x="208.109375" xlink:href="#DejaVuSans-73"/>
      <use x="237.601562" xlink:href="#DejaVuSans-95"/>
      <use x="287.601562" xlink:href="#DejaVuSans-56"/>
      <use x="351.224609" xlink:href="#DejaVuSans-48"/>
      <use x="414.847656" xlink:href="#DejaVuSans-54"/>
      <use x="478.470703" xlink:href="#DejaVuSans-66"/>
     </g>
    </g>
    <g id="line2d_51">
     <path d="M 189 234.104687 
L 209 234.104687 
" style="fill:none;stroke:#17becf;stroke-linecap:square;stroke-width:1.5;"/>
    </g>
    <g id="line2d_52"/>
    <g id="text_26">
     <!-- PA_II_D718 -->
     <g transform="translate(217 237.604687)scale(0.1 -0.1)">
      <use xlink:href="#DejaVuSans-80"/>
      <use x="60.208984" xlink:href="#DejaVuSans-65"/>
      <use x="128.617188" xlink:href="#DejaVuSans-95"/>
      <use x="178.617188" xlink:href="#DejaVuSans-73"/>
      <use x="208.109375" xlink:href="#DejaVuSans-73"/>
      <use x="237.601562" xlink:href="#DejaVuSans-95"/>
      <use x="287.601562" xlink:href="#DejaVuSans-68"/>
      <use x="364.603516" xlink:href="#DejaVuSans-55"/>
      <use x="428.226562" xlink:href="#DejaVuSans-49"/>
      <use x="491.849609" xlink:href="#DejaVuSans-56"/>
     </g>
    </g>
    <g id="line2d_53">
     <path d="M 189 249.060937 
L 209 249.060937 
" style="fill:none;stroke:#1f77b4;stroke-linecap:square;stroke-width:1.5;"/>
    </g>
    <g id="line2d_54"/>
    <g id="text_27">
     <!-- PA_II_D71C -->
     <g transform="translate(217 252.560937)scale(0.1 -0.1)">
      <use xlink:href="#DejaVuSans-80"/>
      <use x="60.208984" xlink:href="#DejaVuSans-65"/>
      <use x="128.617188" xlink:href="#DejaVuSans-95"/>
      <use x="178.617188" xlink:href="#DejaVuSans-73"/>
      <use x="208.109375" xlink:href="#DejaVuSans-73"/>
      <use x="237.601562" xlink:href="#DejaVuSans-95"/>
      <use x="287.601562" xlink:href="#DejaVuSans-68"/>
      <use x="364.603516" xlink:href="#DejaVuSans-55"/>
      <use x="428.226562" xlink:href="#DejaVuSans-49"/>
      <use x="491.849609" xlink:href="#DejaVuSans-67"/>
     </g>
    </g>
    <g id="line2d_55">
     <path d="M 189 264.017187 
L 209 264.017187 
" style="fill:none;stroke:#ff7f0e;stroke-linecap:square;stroke-width:1.5;"/>
    </g>
    <g id="line2d_56"/>
    <g id="text_28">
     <!-- PA_II_D727 -->
     <g transform="translate(217 267.517187)scale(0.1 -0.1)">
      <use xlink:href="#DejaVuSans-80"/>
      <use x="60.208984" xlink:href="#DejaVuSans-65"/>
      <use x="128.617188" xlink:href="#DejaVuSans-95"/>
      <use x="178.617188" xlink:href="#DejaVuSans-73"/>
      <use x="208.109375" xlink:href="#DejaVuSans-73"/>
      <use x="237.601562" xlink:href="#DejaVuSans-95"/>
      <use x="287.601562" xlink:href="#DejaVuSans-68"/>
      <use x="364.603516" xlink:href="#DejaVuSans-55"/>
      <use x="428.226562" xlink:href="#DejaVuSans-50"/>
      <use x="491.849609" xlink:href="#DejaVuSans-55"/>
     </g>
    </g>
    <g id="line2d_57">
     <path d="M 189 278.973437 
L 209 278.973437 
" style="fill:none;stroke:#2ca02c;stroke-linecap:square;stroke-width:1.5;"/>
    </g>
    <g id="line2d_58"/>
    <g id="text_29">
     <!-- PA_II_D8B6 -->
     <g transform="translate(217 282.473437)scale(0.1 -0.1)">
      <use xlink:href="#DejaVuSans-80"/>
      <use x="60.208984" xlink:href="#DejaVuSans-65"/>
      <use x="128.617188" xlink:href="#DejaVuSans-95"/>
      <use x="178.617188" xlink:href="#DejaVuSans-73"/>
      <use x="208.109375" xlink:href="#DejaVuSans-73"/>
      <use x="237.601562" xlink:href="#DejaVuSans-95"/>
      <use x="287.601562" xlink:href="#DejaVuSans-68"/>
      <use x="364.603516" xlink:href="#DejaVuSans-56"/>
      <use x="428.226562" xlink:href="#DejaVuSans-66"/>
      <use x="496.830078" xlink:href="#DejaVuSans-54"/>
     </g>
    </g>
    <g id="line2d_59">
     <path d="M 189 293.929687 
L 209 293.929687 
" style="fill:none;stroke:#d62728;stroke-linecap:square;stroke-width:1.5;"/>
    </g>
    <g id="line2d_60"/>
    <g id="text_30">
     <!-- PA_II_D8BE -->
     <g transform="translate(217 297.429687)scale(0.1 -0.1)">
      <use xlink:href="#DejaVuSans-80"/>
      <use x="60.208984" xlink:href="#DejaVuSans-65"/>
      <use x="128.617188" xlink:href="#DejaVuSans-95"/>
      <use x="178.617188" xlink:href="#DejaVuSans-73"/>
      <use x="208.109375" xlink:href="#DejaVuSans-73"/>
      <use x="237.601562" xlink:href="#DejaVuSans-95"/>
      <use x="287.601562" xlink:href="#DejaVuSans-68"/>
      <use x="364.603516" xlink:href="#DejaVuSans-56"/>
      <use x="428.226562" xlink:href="#DejaVuSans-66"/>
      <use x="496.830078" xlink:href="#DejaVuSans-69"/>
     </g>
    </g>
    <g id="line2d_61">
     <path d="M 189 308.885937 
L 209 308.885937 
" style="fill:none;stroke:#9467bd;stroke-linecap:square;stroke-width:1.5;"/>
    </g>
    <g id="line2d_62"/>
    <g id="text_31">
     <!-- PA_II_DA7A -->
     <g transform="translate(217 312.385937)scale(0.1 -0.1)">
      <use xlink:href="#DejaVuSans-80"/>
      <use x="60.208984" xlink:href="#DejaVuSans-65"/>
      <use x="128.617188" xlink:href="#DejaVuSans-95"/>
      <use x="178.617188" xlink:href="#DejaVuSans-73"/>
      <use x="208.109375" xlink:href="#DejaVuSans-73"/>
      <use x="237.601562" xlink:href="#DejaVuSans-95"/>
      <use x="287.601562" xlink:href="#DejaVuSans-68"/>
      <use x="364.587891" xlink:href="#DejaVuSans-65"/>
      <use x="432.996094" xlink:href="#DejaVuSans-55"/>
      <use x="496.619141" xlink:href="#DejaVuSans-65"/>
     </g>
    </g>
    <g id="line2d_63">
     <path d="M 189 323.842187 
L 209 323.842187 
" style="fill:none;stroke:#8c564b;stroke-linecap:square;stroke-width:1.5;"/>
    </g>
    <g id="line2d_64"/>
    <g id="text_32">
     <!-- PA_II_D44F -->
     <defs>
      <path d="M 9.8125 72.90625 
L 51.703125 72.90625 
L 51.703125 64.59375 
L 19.671875 64.59375 
L 19.671875 43.109375 
L 48.578125 43.109375 
L 48.578125 34.8125 
L 19.671875 34.8125 
L 19.671875 0 
L 9.8125 0 
z
" id="DejaVuSans-70"/>
     </defs>
     <g transform="translate(217 327.342187)scale(0.1 -0.1)">
      <use xlink:href="#DejaVuSans-80"/>
      <use x="60.208984" xlink:href="#DejaVuSans-65"/>
      <use x="128.617188" xlink:href="#DejaVuSans-95"/>
      <use x="178.617188" xlink:href="#DejaVuSans-73"/>
      <use x="208.109375" xlink:href="#DejaVuSans-73"/>
      <use x="237.601562" xlink:href="#DejaVuSans-95"/>
      <use x="287.601562" xlink:href="#DejaVuSans-68"/>
      <use x="364.603516" xlink:href="#DejaVuSans-52"/>
      <use x="428.226562" xlink:href="#DejaVuSans-52"/>
      <use x="491.849609" xlink:href="#DejaVuSans-70"/>
     </g>
    </g>
   </g>
  </g>
 </g>
 <defs>
  <clipPath id="p8cf1d93785">
   <rect height="543.6" width="1116" x="180" y="86.4"/>
  </clipPath>
 </defs>
</svg>
